G75*
%MOIN*%
%OFA0B0*%
%FSLAX24Y24*%
%IPPOS*%
%LPD*%
%AMOC8*
5,1,8,0,0,1.08239X$1,22.5*
%
%ADD10C,0.0000*%
%ADD11R,0.0634X0.0634*%
%ADD12C,0.0700*%
%ADD13C,0.0634*%
%ADD14C,0.1182*%
%ADD15C,0.0390*%
%ADD16C,0.0555*%
%ADD17C,0.0476*%
%ADD18C,0.0640*%
%ADD19C,0.1221*%
%ADD20R,0.0555X0.0555*%
%ADD21R,0.1700X0.1700*%
D10*
X000100Y000185D02*
X000100Y022232D01*
X039076Y022232D01*
X039076Y000185D01*
X000100Y000185D01*
X000623Y001301D02*
X000625Y001348D01*
X000631Y001395D01*
X000640Y001441D01*
X000654Y001486D01*
X000671Y001530D01*
X000692Y001573D01*
X000716Y001613D01*
X000743Y001652D01*
X000774Y001688D01*
X000807Y001721D01*
X000843Y001752D01*
X000882Y001779D01*
X000922Y001803D01*
X000965Y001824D01*
X001009Y001841D01*
X001054Y001855D01*
X001100Y001864D01*
X001147Y001870D01*
X001194Y001872D01*
X001241Y001870D01*
X001288Y001864D01*
X001334Y001855D01*
X001379Y001841D01*
X001423Y001824D01*
X001466Y001803D01*
X001506Y001779D01*
X001545Y001752D01*
X001581Y001721D01*
X001614Y001688D01*
X001645Y001652D01*
X001672Y001613D01*
X001696Y001573D01*
X001717Y001530D01*
X001734Y001486D01*
X001748Y001441D01*
X001757Y001395D01*
X001763Y001348D01*
X001765Y001301D01*
X001763Y001254D01*
X001757Y001207D01*
X001748Y001161D01*
X001734Y001116D01*
X001717Y001072D01*
X001696Y001029D01*
X001672Y000989D01*
X001645Y000950D01*
X001614Y000914D01*
X001581Y000881D01*
X001545Y000850D01*
X001506Y000823D01*
X001466Y000799D01*
X001423Y000778D01*
X001379Y000761D01*
X001334Y000747D01*
X001288Y000738D01*
X001241Y000732D01*
X001194Y000730D01*
X001147Y000732D01*
X001100Y000738D01*
X001054Y000747D01*
X001009Y000761D01*
X000965Y000778D01*
X000922Y000799D01*
X000882Y000823D01*
X000843Y000850D01*
X000807Y000881D01*
X000774Y000914D01*
X000743Y000950D01*
X000716Y000989D01*
X000692Y001029D01*
X000671Y001072D01*
X000654Y001116D01*
X000640Y001161D01*
X000631Y001207D01*
X000625Y001254D01*
X000623Y001301D01*
X009623Y007301D02*
X009625Y007348D01*
X009631Y007395D01*
X009640Y007441D01*
X009654Y007486D01*
X009671Y007530D01*
X009692Y007573D01*
X009716Y007613D01*
X009743Y007652D01*
X009774Y007688D01*
X009807Y007721D01*
X009843Y007752D01*
X009882Y007779D01*
X009922Y007803D01*
X009965Y007824D01*
X010009Y007841D01*
X010054Y007855D01*
X010100Y007864D01*
X010147Y007870D01*
X010194Y007872D01*
X010241Y007870D01*
X010288Y007864D01*
X010334Y007855D01*
X010379Y007841D01*
X010423Y007824D01*
X010466Y007803D01*
X010506Y007779D01*
X010545Y007752D01*
X010581Y007721D01*
X010614Y007688D01*
X010645Y007652D01*
X010672Y007613D01*
X010696Y007573D01*
X010717Y007530D01*
X010734Y007486D01*
X010748Y007441D01*
X010757Y007395D01*
X010763Y007348D01*
X010765Y007301D01*
X010763Y007254D01*
X010757Y007207D01*
X010748Y007161D01*
X010734Y007116D01*
X010717Y007072D01*
X010696Y007029D01*
X010672Y006989D01*
X010645Y006950D01*
X010614Y006914D01*
X010581Y006881D01*
X010545Y006850D01*
X010506Y006823D01*
X010466Y006799D01*
X010423Y006778D01*
X010379Y006761D01*
X010334Y006747D01*
X010288Y006738D01*
X010241Y006732D01*
X010194Y006730D01*
X010147Y006732D01*
X010100Y006738D01*
X010054Y006747D01*
X010009Y006761D01*
X009965Y006778D01*
X009922Y006799D01*
X009882Y006823D01*
X009843Y006850D01*
X009807Y006881D01*
X009774Y006914D01*
X009743Y006950D01*
X009716Y006989D01*
X009692Y007029D01*
X009671Y007072D01*
X009654Y007116D01*
X009640Y007161D01*
X009631Y007207D01*
X009625Y007254D01*
X009623Y007301D01*
X000623Y011801D02*
X000625Y011848D01*
X000631Y011895D01*
X000640Y011941D01*
X000654Y011986D01*
X000671Y012030D01*
X000692Y012073D01*
X000716Y012113D01*
X000743Y012152D01*
X000774Y012188D01*
X000807Y012221D01*
X000843Y012252D01*
X000882Y012279D01*
X000922Y012303D01*
X000965Y012324D01*
X001009Y012341D01*
X001054Y012355D01*
X001100Y012364D01*
X001147Y012370D01*
X001194Y012372D01*
X001241Y012370D01*
X001288Y012364D01*
X001334Y012355D01*
X001379Y012341D01*
X001423Y012324D01*
X001466Y012303D01*
X001506Y012279D01*
X001545Y012252D01*
X001581Y012221D01*
X001614Y012188D01*
X001645Y012152D01*
X001672Y012113D01*
X001696Y012073D01*
X001717Y012030D01*
X001734Y011986D01*
X001748Y011941D01*
X001757Y011895D01*
X001763Y011848D01*
X001765Y011801D01*
X001763Y011754D01*
X001757Y011707D01*
X001748Y011661D01*
X001734Y011616D01*
X001717Y011572D01*
X001696Y011529D01*
X001672Y011489D01*
X001645Y011450D01*
X001614Y011414D01*
X001581Y011381D01*
X001545Y011350D01*
X001506Y011323D01*
X001466Y011299D01*
X001423Y011278D01*
X001379Y011261D01*
X001334Y011247D01*
X001288Y011238D01*
X001241Y011232D01*
X001194Y011230D01*
X001147Y011232D01*
X001100Y011238D01*
X001054Y011247D01*
X001009Y011261D01*
X000965Y011278D01*
X000922Y011299D01*
X000882Y011323D01*
X000843Y011350D01*
X000807Y011381D01*
X000774Y011414D01*
X000743Y011450D01*
X000716Y011489D01*
X000692Y011529D01*
X000671Y011572D01*
X000654Y011616D01*
X000640Y011661D01*
X000631Y011707D01*
X000625Y011754D01*
X000623Y011801D01*
X017123Y001301D02*
X017125Y001348D01*
X017131Y001395D01*
X017140Y001441D01*
X017154Y001486D01*
X017171Y001530D01*
X017192Y001573D01*
X017216Y001613D01*
X017243Y001652D01*
X017274Y001688D01*
X017307Y001721D01*
X017343Y001752D01*
X017382Y001779D01*
X017422Y001803D01*
X017465Y001824D01*
X017509Y001841D01*
X017554Y001855D01*
X017600Y001864D01*
X017647Y001870D01*
X017694Y001872D01*
X017741Y001870D01*
X017788Y001864D01*
X017834Y001855D01*
X017879Y001841D01*
X017923Y001824D01*
X017966Y001803D01*
X018006Y001779D01*
X018045Y001752D01*
X018081Y001721D01*
X018114Y001688D01*
X018145Y001652D01*
X018172Y001613D01*
X018196Y001573D01*
X018217Y001530D01*
X018234Y001486D01*
X018248Y001441D01*
X018257Y001395D01*
X018263Y001348D01*
X018265Y001301D01*
X018263Y001254D01*
X018257Y001207D01*
X018248Y001161D01*
X018234Y001116D01*
X018217Y001072D01*
X018196Y001029D01*
X018172Y000989D01*
X018145Y000950D01*
X018114Y000914D01*
X018081Y000881D01*
X018045Y000850D01*
X018006Y000823D01*
X017966Y000799D01*
X017923Y000778D01*
X017879Y000761D01*
X017834Y000747D01*
X017788Y000738D01*
X017741Y000732D01*
X017694Y000730D01*
X017647Y000732D01*
X017600Y000738D01*
X017554Y000747D01*
X017509Y000761D01*
X017465Y000778D01*
X017422Y000799D01*
X017382Y000823D01*
X017343Y000850D01*
X017307Y000881D01*
X017274Y000914D01*
X017243Y000950D01*
X017216Y000989D01*
X017192Y001029D01*
X017171Y001072D01*
X017154Y001116D01*
X017140Y001161D01*
X017131Y001207D01*
X017125Y001254D01*
X017123Y001301D01*
X032123Y001301D02*
X032125Y001348D01*
X032131Y001395D01*
X032140Y001441D01*
X032154Y001486D01*
X032171Y001530D01*
X032192Y001573D01*
X032216Y001613D01*
X032243Y001652D01*
X032274Y001688D01*
X032307Y001721D01*
X032343Y001752D01*
X032382Y001779D01*
X032422Y001803D01*
X032465Y001824D01*
X032509Y001841D01*
X032554Y001855D01*
X032600Y001864D01*
X032647Y001870D01*
X032694Y001872D01*
X032741Y001870D01*
X032788Y001864D01*
X032834Y001855D01*
X032879Y001841D01*
X032923Y001824D01*
X032966Y001803D01*
X033006Y001779D01*
X033045Y001752D01*
X033081Y001721D01*
X033114Y001688D01*
X033145Y001652D01*
X033172Y001613D01*
X033196Y001573D01*
X033217Y001530D01*
X033234Y001486D01*
X033248Y001441D01*
X033257Y001395D01*
X033263Y001348D01*
X033265Y001301D01*
X033263Y001254D01*
X033257Y001207D01*
X033248Y001161D01*
X033234Y001116D01*
X033217Y001072D01*
X033196Y001029D01*
X033172Y000989D01*
X033145Y000950D01*
X033114Y000914D01*
X033081Y000881D01*
X033045Y000850D01*
X033006Y000823D01*
X032966Y000799D01*
X032923Y000778D01*
X032879Y000761D01*
X032834Y000747D01*
X032788Y000738D01*
X032741Y000732D01*
X032694Y000730D01*
X032647Y000732D01*
X032600Y000738D01*
X032554Y000747D01*
X032509Y000761D01*
X032465Y000778D01*
X032422Y000799D01*
X032382Y000823D01*
X032343Y000850D01*
X032307Y000881D01*
X032274Y000914D01*
X032243Y000950D01*
X032216Y000989D01*
X032192Y001029D01*
X032171Y001072D01*
X032154Y001116D01*
X032140Y001161D01*
X032131Y001207D01*
X032125Y001254D01*
X032123Y001301D01*
X032123Y011801D02*
X032125Y011848D01*
X032131Y011895D01*
X032140Y011941D01*
X032154Y011986D01*
X032171Y012030D01*
X032192Y012073D01*
X032216Y012113D01*
X032243Y012152D01*
X032274Y012188D01*
X032307Y012221D01*
X032343Y012252D01*
X032382Y012279D01*
X032422Y012303D01*
X032465Y012324D01*
X032509Y012341D01*
X032554Y012355D01*
X032600Y012364D01*
X032647Y012370D01*
X032694Y012372D01*
X032741Y012370D01*
X032788Y012364D01*
X032834Y012355D01*
X032879Y012341D01*
X032923Y012324D01*
X032966Y012303D01*
X033006Y012279D01*
X033045Y012252D01*
X033081Y012221D01*
X033114Y012188D01*
X033145Y012152D01*
X033172Y012113D01*
X033196Y012073D01*
X033217Y012030D01*
X033234Y011986D01*
X033248Y011941D01*
X033257Y011895D01*
X033263Y011848D01*
X033265Y011801D01*
X033263Y011754D01*
X033257Y011707D01*
X033248Y011661D01*
X033234Y011616D01*
X033217Y011572D01*
X033196Y011529D01*
X033172Y011489D01*
X033145Y011450D01*
X033114Y011414D01*
X033081Y011381D01*
X033045Y011350D01*
X033006Y011323D01*
X032966Y011299D01*
X032923Y011278D01*
X032879Y011261D01*
X032834Y011247D01*
X032788Y011238D01*
X032741Y011232D01*
X032694Y011230D01*
X032647Y011232D01*
X032600Y011238D01*
X032554Y011247D01*
X032509Y011261D01*
X032465Y011278D01*
X032422Y011299D01*
X032382Y011323D01*
X032343Y011350D01*
X032307Y011381D01*
X032274Y011414D01*
X032243Y011450D01*
X032216Y011489D01*
X032192Y011529D01*
X032171Y011572D01*
X032154Y011616D01*
X032140Y011661D01*
X032131Y011707D01*
X032125Y011754D01*
X032123Y011801D01*
X031080Y017341D02*
X031082Y017388D01*
X031088Y017435D01*
X031097Y017481D01*
X031111Y017526D01*
X031128Y017570D01*
X031149Y017613D01*
X031173Y017653D01*
X031200Y017692D01*
X031231Y017728D01*
X031264Y017761D01*
X031300Y017792D01*
X031339Y017819D01*
X031379Y017843D01*
X031422Y017864D01*
X031466Y017881D01*
X031511Y017895D01*
X031557Y017904D01*
X031604Y017910D01*
X031651Y017912D01*
X031698Y017910D01*
X031745Y017904D01*
X031791Y017895D01*
X031836Y017881D01*
X031880Y017864D01*
X031923Y017843D01*
X031963Y017819D01*
X032002Y017792D01*
X032038Y017761D01*
X032071Y017728D01*
X032102Y017692D01*
X032129Y017653D01*
X032153Y017613D01*
X032174Y017570D01*
X032191Y017526D01*
X032205Y017481D01*
X032214Y017435D01*
X032220Y017388D01*
X032222Y017341D01*
X032220Y017294D01*
X032214Y017247D01*
X032205Y017201D01*
X032191Y017156D01*
X032174Y017112D01*
X032153Y017069D01*
X032129Y017029D01*
X032102Y016990D01*
X032071Y016954D01*
X032038Y016921D01*
X032002Y016890D01*
X031963Y016863D01*
X031923Y016839D01*
X031880Y016818D01*
X031836Y016801D01*
X031791Y016787D01*
X031745Y016778D01*
X031698Y016772D01*
X031651Y016770D01*
X031604Y016772D01*
X031557Y016778D01*
X031511Y016787D01*
X031466Y016801D01*
X031422Y016818D01*
X031379Y016839D01*
X031339Y016863D01*
X031300Y016890D01*
X031264Y016921D01*
X031231Y016954D01*
X031200Y016990D01*
X031173Y017029D01*
X031149Y017069D01*
X031128Y017112D01*
X031111Y017156D01*
X031097Y017201D01*
X031088Y017247D01*
X031082Y017294D01*
X031080Y017341D01*
X032123Y021301D02*
X032125Y021348D01*
X032131Y021395D01*
X032140Y021441D01*
X032154Y021486D01*
X032171Y021530D01*
X032192Y021573D01*
X032216Y021613D01*
X032243Y021652D01*
X032274Y021688D01*
X032307Y021721D01*
X032343Y021752D01*
X032382Y021779D01*
X032422Y021803D01*
X032465Y021824D01*
X032509Y021841D01*
X032554Y021855D01*
X032600Y021864D01*
X032647Y021870D01*
X032694Y021872D01*
X032741Y021870D01*
X032788Y021864D01*
X032834Y021855D01*
X032879Y021841D01*
X032923Y021824D01*
X032966Y021803D01*
X033006Y021779D01*
X033045Y021752D01*
X033081Y021721D01*
X033114Y021688D01*
X033145Y021652D01*
X033172Y021613D01*
X033196Y021573D01*
X033217Y021530D01*
X033234Y021486D01*
X033248Y021441D01*
X033257Y021395D01*
X033263Y021348D01*
X033265Y021301D01*
X033263Y021254D01*
X033257Y021207D01*
X033248Y021161D01*
X033234Y021116D01*
X033217Y021072D01*
X033196Y021029D01*
X033172Y020989D01*
X033145Y020950D01*
X033114Y020914D01*
X033081Y020881D01*
X033045Y020850D01*
X033006Y020823D01*
X032966Y020799D01*
X032923Y020778D01*
X032879Y020761D01*
X032834Y020747D01*
X032788Y020738D01*
X032741Y020732D01*
X032694Y020730D01*
X032647Y020732D01*
X032600Y020738D01*
X032554Y020747D01*
X032509Y020761D01*
X032465Y020778D01*
X032422Y020799D01*
X032382Y020823D01*
X032343Y020850D01*
X032307Y020881D01*
X032274Y020914D01*
X032243Y020950D01*
X032216Y020989D01*
X032192Y021029D01*
X032171Y021072D01*
X032154Y021116D01*
X032140Y021161D01*
X032131Y021207D01*
X032125Y021254D01*
X032123Y021301D01*
D11*
X003100Y019185D03*
X001100Y020185D03*
D12*
X001100Y021185D03*
X003100Y021185D03*
D13*
X002100Y021185D03*
X002100Y020185D03*
X003100Y020185D03*
X004100Y020185D03*
X005100Y020185D03*
X006100Y020185D03*
X007100Y020185D03*
X008100Y020185D03*
X009100Y020185D03*
X010100Y020185D03*
X011100Y020185D03*
X012100Y020185D03*
X013100Y020185D03*
X013100Y021185D03*
X012100Y021185D03*
X011100Y021185D03*
X010100Y021185D03*
X009100Y021185D03*
X008100Y021185D03*
X007100Y021185D03*
X006100Y021185D03*
X005100Y021185D03*
X004100Y021185D03*
X004100Y019185D03*
X005100Y019185D03*
X006100Y019185D03*
X006100Y018185D03*
X005100Y018185D03*
X004100Y018185D03*
X003100Y018185D03*
D14*
X001194Y011801D03*
X010194Y007301D03*
X017694Y001301D03*
X032694Y001301D03*
X032694Y011801D03*
X031651Y017341D03*
X032694Y021301D03*
X001194Y001301D03*
D15*
X023131Y020421D03*
X023131Y020972D03*
D16*
X033116Y005702D02*
X033116Y005187D01*
X034887Y005187D02*
X034887Y005702D01*
X034887Y003734D02*
X034887Y003219D01*
X033116Y003219D02*
X033116Y003734D01*
D17*
X028368Y009276D03*
X028368Y010197D03*
X028368Y011118D03*
X026065Y010657D03*
X026065Y011579D03*
X026065Y009736D03*
D18*
X026529Y006312D02*
X026529Y005712D01*
X027529Y005712D02*
X027529Y006312D01*
D19*
X031801Y012709D03*
X031801Y015819D03*
X031801Y018929D03*
D20*
X030100Y020067D03*
X028092Y019201D03*
D21*
X034470Y020933D03*
X034588Y009516D03*
M02*
