G75*
%MOIN*%
%OFA0B0*%
%FSLAX24Y24*%
%IPPOS*%
%LPD*%
%AMOC8*
5,1,8,0,0,1.08239X$1,22.5*
%
%ADD10C,0.0000*%
%ADD11R,0.0594X0.0594*%
%ADD12C,0.0660*%
%ADD13C,0.0594*%
%ADD14C,0.0350*%
%ADD15C,0.0515*%
%ADD16C,0.0436*%
%ADD17C,0.0600*%
%ADD18C,0.1181*%
%ADD19R,0.0515X0.0515*%
%ADD20C,0.0240*%
%ADD21C,0.0356*%
%ADD22C,0.0160*%
%ADD23C,0.0100*%
%ADD24C,0.0120*%
%ADD25R,0.0356X0.0356*%
%ADD26R,0.1660X0.1660*%
D10*
X000100Y000185D02*
X000100Y022232D01*
X039076Y022232D01*
X039076Y000185D01*
X000100Y000185D01*
X000623Y001301D02*
X000625Y001348D01*
X000631Y001395D01*
X000640Y001441D01*
X000654Y001486D01*
X000671Y001530D01*
X000692Y001573D01*
X000716Y001613D01*
X000743Y001652D01*
X000774Y001688D01*
X000807Y001721D01*
X000843Y001752D01*
X000882Y001779D01*
X000922Y001803D01*
X000965Y001824D01*
X001009Y001841D01*
X001054Y001855D01*
X001100Y001864D01*
X001147Y001870D01*
X001194Y001872D01*
X001241Y001870D01*
X001288Y001864D01*
X001334Y001855D01*
X001379Y001841D01*
X001423Y001824D01*
X001466Y001803D01*
X001506Y001779D01*
X001545Y001752D01*
X001581Y001721D01*
X001614Y001688D01*
X001645Y001652D01*
X001672Y001613D01*
X001696Y001573D01*
X001717Y001530D01*
X001734Y001486D01*
X001748Y001441D01*
X001757Y001395D01*
X001763Y001348D01*
X001765Y001301D01*
X001763Y001254D01*
X001757Y001207D01*
X001748Y001161D01*
X001734Y001116D01*
X001717Y001072D01*
X001696Y001029D01*
X001672Y000989D01*
X001645Y000950D01*
X001614Y000914D01*
X001581Y000881D01*
X001545Y000850D01*
X001506Y000823D01*
X001466Y000799D01*
X001423Y000778D01*
X001379Y000761D01*
X001334Y000747D01*
X001288Y000738D01*
X001241Y000732D01*
X001194Y000730D01*
X001147Y000732D01*
X001100Y000738D01*
X001054Y000747D01*
X001009Y000761D01*
X000965Y000778D01*
X000922Y000799D01*
X000882Y000823D01*
X000843Y000850D01*
X000807Y000881D01*
X000774Y000914D01*
X000743Y000950D01*
X000716Y000989D01*
X000692Y001029D01*
X000671Y001072D01*
X000654Y001116D01*
X000640Y001161D01*
X000631Y001207D01*
X000625Y001254D01*
X000623Y001301D01*
X009623Y007301D02*
X009625Y007348D01*
X009631Y007395D01*
X009640Y007441D01*
X009654Y007486D01*
X009671Y007530D01*
X009692Y007573D01*
X009716Y007613D01*
X009743Y007652D01*
X009774Y007688D01*
X009807Y007721D01*
X009843Y007752D01*
X009882Y007779D01*
X009922Y007803D01*
X009965Y007824D01*
X010009Y007841D01*
X010054Y007855D01*
X010100Y007864D01*
X010147Y007870D01*
X010194Y007872D01*
X010241Y007870D01*
X010288Y007864D01*
X010334Y007855D01*
X010379Y007841D01*
X010423Y007824D01*
X010466Y007803D01*
X010506Y007779D01*
X010545Y007752D01*
X010581Y007721D01*
X010614Y007688D01*
X010645Y007652D01*
X010672Y007613D01*
X010696Y007573D01*
X010717Y007530D01*
X010734Y007486D01*
X010748Y007441D01*
X010757Y007395D01*
X010763Y007348D01*
X010765Y007301D01*
X010763Y007254D01*
X010757Y007207D01*
X010748Y007161D01*
X010734Y007116D01*
X010717Y007072D01*
X010696Y007029D01*
X010672Y006989D01*
X010645Y006950D01*
X010614Y006914D01*
X010581Y006881D01*
X010545Y006850D01*
X010506Y006823D01*
X010466Y006799D01*
X010423Y006778D01*
X010379Y006761D01*
X010334Y006747D01*
X010288Y006738D01*
X010241Y006732D01*
X010194Y006730D01*
X010147Y006732D01*
X010100Y006738D01*
X010054Y006747D01*
X010009Y006761D01*
X009965Y006778D01*
X009922Y006799D01*
X009882Y006823D01*
X009843Y006850D01*
X009807Y006881D01*
X009774Y006914D01*
X009743Y006950D01*
X009716Y006989D01*
X009692Y007029D01*
X009671Y007072D01*
X009654Y007116D01*
X009640Y007161D01*
X009631Y007207D01*
X009625Y007254D01*
X009623Y007301D01*
X000623Y011801D02*
X000625Y011848D01*
X000631Y011895D01*
X000640Y011941D01*
X000654Y011986D01*
X000671Y012030D01*
X000692Y012073D01*
X000716Y012113D01*
X000743Y012152D01*
X000774Y012188D01*
X000807Y012221D01*
X000843Y012252D01*
X000882Y012279D01*
X000922Y012303D01*
X000965Y012324D01*
X001009Y012341D01*
X001054Y012355D01*
X001100Y012364D01*
X001147Y012370D01*
X001194Y012372D01*
X001241Y012370D01*
X001288Y012364D01*
X001334Y012355D01*
X001379Y012341D01*
X001423Y012324D01*
X001466Y012303D01*
X001506Y012279D01*
X001545Y012252D01*
X001581Y012221D01*
X001614Y012188D01*
X001645Y012152D01*
X001672Y012113D01*
X001696Y012073D01*
X001717Y012030D01*
X001734Y011986D01*
X001748Y011941D01*
X001757Y011895D01*
X001763Y011848D01*
X001765Y011801D01*
X001763Y011754D01*
X001757Y011707D01*
X001748Y011661D01*
X001734Y011616D01*
X001717Y011572D01*
X001696Y011529D01*
X001672Y011489D01*
X001645Y011450D01*
X001614Y011414D01*
X001581Y011381D01*
X001545Y011350D01*
X001506Y011323D01*
X001466Y011299D01*
X001423Y011278D01*
X001379Y011261D01*
X001334Y011247D01*
X001288Y011238D01*
X001241Y011232D01*
X001194Y011230D01*
X001147Y011232D01*
X001100Y011238D01*
X001054Y011247D01*
X001009Y011261D01*
X000965Y011278D01*
X000922Y011299D01*
X000882Y011323D01*
X000843Y011350D01*
X000807Y011381D01*
X000774Y011414D01*
X000743Y011450D01*
X000716Y011489D01*
X000692Y011529D01*
X000671Y011572D01*
X000654Y011616D01*
X000640Y011661D01*
X000631Y011707D01*
X000625Y011754D01*
X000623Y011801D01*
X017123Y001301D02*
X017125Y001348D01*
X017131Y001395D01*
X017140Y001441D01*
X017154Y001486D01*
X017171Y001530D01*
X017192Y001573D01*
X017216Y001613D01*
X017243Y001652D01*
X017274Y001688D01*
X017307Y001721D01*
X017343Y001752D01*
X017382Y001779D01*
X017422Y001803D01*
X017465Y001824D01*
X017509Y001841D01*
X017554Y001855D01*
X017600Y001864D01*
X017647Y001870D01*
X017694Y001872D01*
X017741Y001870D01*
X017788Y001864D01*
X017834Y001855D01*
X017879Y001841D01*
X017923Y001824D01*
X017966Y001803D01*
X018006Y001779D01*
X018045Y001752D01*
X018081Y001721D01*
X018114Y001688D01*
X018145Y001652D01*
X018172Y001613D01*
X018196Y001573D01*
X018217Y001530D01*
X018234Y001486D01*
X018248Y001441D01*
X018257Y001395D01*
X018263Y001348D01*
X018265Y001301D01*
X018263Y001254D01*
X018257Y001207D01*
X018248Y001161D01*
X018234Y001116D01*
X018217Y001072D01*
X018196Y001029D01*
X018172Y000989D01*
X018145Y000950D01*
X018114Y000914D01*
X018081Y000881D01*
X018045Y000850D01*
X018006Y000823D01*
X017966Y000799D01*
X017923Y000778D01*
X017879Y000761D01*
X017834Y000747D01*
X017788Y000738D01*
X017741Y000732D01*
X017694Y000730D01*
X017647Y000732D01*
X017600Y000738D01*
X017554Y000747D01*
X017509Y000761D01*
X017465Y000778D01*
X017422Y000799D01*
X017382Y000823D01*
X017343Y000850D01*
X017307Y000881D01*
X017274Y000914D01*
X017243Y000950D01*
X017216Y000989D01*
X017192Y001029D01*
X017171Y001072D01*
X017154Y001116D01*
X017140Y001161D01*
X017131Y001207D01*
X017125Y001254D01*
X017123Y001301D01*
X032123Y001301D02*
X032125Y001348D01*
X032131Y001395D01*
X032140Y001441D01*
X032154Y001486D01*
X032171Y001530D01*
X032192Y001573D01*
X032216Y001613D01*
X032243Y001652D01*
X032274Y001688D01*
X032307Y001721D01*
X032343Y001752D01*
X032382Y001779D01*
X032422Y001803D01*
X032465Y001824D01*
X032509Y001841D01*
X032554Y001855D01*
X032600Y001864D01*
X032647Y001870D01*
X032694Y001872D01*
X032741Y001870D01*
X032788Y001864D01*
X032834Y001855D01*
X032879Y001841D01*
X032923Y001824D01*
X032966Y001803D01*
X033006Y001779D01*
X033045Y001752D01*
X033081Y001721D01*
X033114Y001688D01*
X033145Y001652D01*
X033172Y001613D01*
X033196Y001573D01*
X033217Y001530D01*
X033234Y001486D01*
X033248Y001441D01*
X033257Y001395D01*
X033263Y001348D01*
X033265Y001301D01*
X033263Y001254D01*
X033257Y001207D01*
X033248Y001161D01*
X033234Y001116D01*
X033217Y001072D01*
X033196Y001029D01*
X033172Y000989D01*
X033145Y000950D01*
X033114Y000914D01*
X033081Y000881D01*
X033045Y000850D01*
X033006Y000823D01*
X032966Y000799D01*
X032923Y000778D01*
X032879Y000761D01*
X032834Y000747D01*
X032788Y000738D01*
X032741Y000732D01*
X032694Y000730D01*
X032647Y000732D01*
X032600Y000738D01*
X032554Y000747D01*
X032509Y000761D01*
X032465Y000778D01*
X032422Y000799D01*
X032382Y000823D01*
X032343Y000850D01*
X032307Y000881D01*
X032274Y000914D01*
X032243Y000950D01*
X032216Y000989D01*
X032192Y001029D01*
X032171Y001072D01*
X032154Y001116D01*
X032140Y001161D01*
X032131Y001207D01*
X032125Y001254D01*
X032123Y001301D01*
X032123Y011801D02*
X032125Y011848D01*
X032131Y011895D01*
X032140Y011941D01*
X032154Y011986D01*
X032171Y012030D01*
X032192Y012073D01*
X032216Y012113D01*
X032243Y012152D01*
X032274Y012188D01*
X032307Y012221D01*
X032343Y012252D01*
X032382Y012279D01*
X032422Y012303D01*
X032465Y012324D01*
X032509Y012341D01*
X032554Y012355D01*
X032600Y012364D01*
X032647Y012370D01*
X032694Y012372D01*
X032741Y012370D01*
X032788Y012364D01*
X032834Y012355D01*
X032879Y012341D01*
X032923Y012324D01*
X032966Y012303D01*
X033006Y012279D01*
X033045Y012252D01*
X033081Y012221D01*
X033114Y012188D01*
X033145Y012152D01*
X033172Y012113D01*
X033196Y012073D01*
X033217Y012030D01*
X033234Y011986D01*
X033248Y011941D01*
X033257Y011895D01*
X033263Y011848D01*
X033265Y011801D01*
X033263Y011754D01*
X033257Y011707D01*
X033248Y011661D01*
X033234Y011616D01*
X033217Y011572D01*
X033196Y011529D01*
X033172Y011489D01*
X033145Y011450D01*
X033114Y011414D01*
X033081Y011381D01*
X033045Y011350D01*
X033006Y011323D01*
X032966Y011299D01*
X032923Y011278D01*
X032879Y011261D01*
X032834Y011247D01*
X032788Y011238D01*
X032741Y011232D01*
X032694Y011230D01*
X032647Y011232D01*
X032600Y011238D01*
X032554Y011247D01*
X032509Y011261D01*
X032465Y011278D01*
X032422Y011299D01*
X032382Y011323D01*
X032343Y011350D01*
X032307Y011381D01*
X032274Y011414D01*
X032243Y011450D01*
X032216Y011489D01*
X032192Y011529D01*
X032171Y011572D01*
X032154Y011616D01*
X032140Y011661D01*
X032131Y011707D01*
X032125Y011754D01*
X032123Y011801D01*
X031080Y017341D02*
X031082Y017388D01*
X031088Y017435D01*
X031097Y017481D01*
X031111Y017526D01*
X031128Y017570D01*
X031149Y017613D01*
X031173Y017653D01*
X031200Y017692D01*
X031231Y017728D01*
X031264Y017761D01*
X031300Y017792D01*
X031339Y017819D01*
X031379Y017843D01*
X031422Y017864D01*
X031466Y017881D01*
X031511Y017895D01*
X031557Y017904D01*
X031604Y017910D01*
X031651Y017912D01*
X031698Y017910D01*
X031745Y017904D01*
X031791Y017895D01*
X031836Y017881D01*
X031880Y017864D01*
X031923Y017843D01*
X031963Y017819D01*
X032002Y017792D01*
X032038Y017761D01*
X032071Y017728D01*
X032102Y017692D01*
X032129Y017653D01*
X032153Y017613D01*
X032174Y017570D01*
X032191Y017526D01*
X032205Y017481D01*
X032214Y017435D01*
X032220Y017388D01*
X032222Y017341D01*
X032220Y017294D01*
X032214Y017247D01*
X032205Y017201D01*
X032191Y017156D01*
X032174Y017112D01*
X032153Y017069D01*
X032129Y017029D01*
X032102Y016990D01*
X032071Y016954D01*
X032038Y016921D01*
X032002Y016890D01*
X031963Y016863D01*
X031923Y016839D01*
X031880Y016818D01*
X031836Y016801D01*
X031791Y016787D01*
X031745Y016778D01*
X031698Y016772D01*
X031651Y016770D01*
X031604Y016772D01*
X031557Y016778D01*
X031511Y016787D01*
X031466Y016801D01*
X031422Y016818D01*
X031379Y016839D01*
X031339Y016863D01*
X031300Y016890D01*
X031264Y016921D01*
X031231Y016954D01*
X031200Y016990D01*
X031173Y017029D01*
X031149Y017069D01*
X031128Y017112D01*
X031111Y017156D01*
X031097Y017201D01*
X031088Y017247D01*
X031082Y017294D01*
X031080Y017341D01*
X032123Y021301D02*
X032125Y021348D01*
X032131Y021395D01*
X032140Y021441D01*
X032154Y021486D01*
X032171Y021530D01*
X032192Y021573D01*
X032216Y021613D01*
X032243Y021652D01*
X032274Y021688D01*
X032307Y021721D01*
X032343Y021752D01*
X032382Y021779D01*
X032422Y021803D01*
X032465Y021824D01*
X032509Y021841D01*
X032554Y021855D01*
X032600Y021864D01*
X032647Y021870D01*
X032694Y021872D01*
X032741Y021870D01*
X032788Y021864D01*
X032834Y021855D01*
X032879Y021841D01*
X032923Y021824D01*
X032966Y021803D01*
X033006Y021779D01*
X033045Y021752D01*
X033081Y021721D01*
X033114Y021688D01*
X033145Y021652D01*
X033172Y021613D01*
X033196Y021573D01*
X033217Y021530D01*
X033234Y021486D01*
X033248Y021441D01*
X033257Y021395D01*
X033263Y021348D01*
X033265Y021301D01*
X033263Y021254D01*
X033257Y021207D01*
X033248Y021161D01*
X033234Y021116D01*
X033217Y021072D01*
X033196Y021029D01*
X033172Y020989D01*
X033145Y020950D01*
X033114Y020914D01*
X033081Y020881D01*
X033045Y020850D01*
X033006Y020823D01*
X032966Y020799D01*
X032923Y020778D01*
X032879Y020761D01*
X032834Y020747D01*
X032788Y020738D01*
X032741Y020732D01*
X032694Y020730D01*
X032647Y020732D01*
X032600Y020738D01*
X032554Y020747D01*
X032509Y020761D01*
X032465Y020778D01*
X032422Y020799D01*
X032382Y020823D01*
X032343Y020850D01*
X032307Y020881D01*
X032274Y020914D01*
X032243Y020950D01*
X032216Y020989D01*
X032192Y021029D01*
X032171Y021072D01*
X032154Y021116D01*
X032140Y021161D01*
X032131Y021207D01*
X032125Y021254D01*
X032123Y021301D01*
D11*
X003100Y019185D03*
X001100Y020185D03*
D12*
X001100Y021185D03*
X003100Y021185D03*
D13*
X002100Y021185D03*
X002100Y020185D03*
X003100Y020185D03*
X004100Y020185D03*
X005100Y020185D03*
X006100Y020185D03*
X007100Y020185D03*
X008100Y020185D03*
X009100Y020185D03*
X010100Y020185D03*
X011100Y020185D03*
X012100Y020185D03*
X013100Y020185D03*
X013100Y021185D03*
X012100Y021185D03*
X011100Y021185D03*
X010100Y021185D03*
X009100Y021185D03*
X008100Y021185D03*
X007100Y021185D03*
X006100Y021185D03*
X005100Y021185D03*
X004100Y021185D03*
X004100Y019185D03*
X005100Y019185D03*
X006100Y019185D03*
X006100Y018185D03*
X005100Y018185D03*
X004100Y018185D03*
X003100Y018185D03*
D14*
X023131Y020421D03*
X023131Y020972D03*
D15*
X033116Y005702D02*
X033116Y005187D01*
X034887Y005187D02*
X034887Y005702D01*
X034887Y003734D02*
X034887Y003219D01*
X033116Y003219D02*
X033116Y003734D01*
D16*
X028368Y009276D03*
X028368Y010197D03*
X028368Y011118D03*
X026065Y010657D03*
X026065Y011579D03*
X026065Y009736D03*
D17*
X026529Y006312D02*
X026529Y005712D01*
X027529Y005712D02*
X027529Y006312D01*
D18*
X031801Y012709D03*
X031801Y015819D03*
X031801Y018929D03*
D19*
X030100Y020067D03*
X028092Y019201D03*
D20*
X027595Y019265D02*
X024800Y019265D01*
X024786Y019280D02*
X024632Y019343D01*
X024466Y019343D01*
X024312Y019280D01*
X024194Y019162D01*
X024131Y019008D01*
X024131Y018842D01*
X024194Y018688D01*
X024312Y018571D01*
X024466Y018507D01*
X024632Y018507D01*
X024635Y018508D01*
X024654Y018488D01*
X023878Y018415D01*
X023841Y018453D01*
X023687Y018517D01*
X023521Y018517D01*
X023367Y018453D01*
X023249Y018335D01*
X023186Y018182D01*
X023186Y018015D01*
X023249Y017862D01*
X023367Y017744D01*
X023521Y017680D01*
X023687Y017680D01*
X023841Y017744D01*
X023935Y017838D01*
X024755Y017915D01*
X026660Y016010D01*
X026660Y007805D01*
X026705Y007698D01*
X026786Y007616D01*
X027571Y006832D01*
X027570Y006832D01*
X027529Y006832D01*
X027488Y006832D01*
X027407Y006819D01*
X027330Y006794D01*
X027257Y006757D01*
X027190Y006708D01*
X027133Y006651D01*
X027084Y006584D01*
X027047Y006511D01*
X027040Y006489D01*
X026987Y006618D01*
X026835Y006770D01*
X026637Y006852D01*
X026422Y006852D01*
X026223Y006770D01*
X026071Y006618D01*
X025989Y006419D01*
X025989Y005604D01*
X026071Y005406D01*
X026223Y005254D01*
X026422Y005172D01*
X026637Y005172D01*
X026835Y005254D01*
X026987Y005406D01*
X027040Y005534D01*
X027047Y005512D01*
X027084Y005439D01*
X027133Y005373D01*
X027190Y005315D01*
X027257Y005267D01*
X027330Y005230D01*
X027407Y005205D01*
X027488Y005192D01*
X027529Y005192D01*
X027529Y006012D01*
X027529Y006832D01*
X027529Y006012D01*
X027529Y006012D01*
X028049Y006012D01*
X028049Y006353D01*
X028049Y006353D01*
X028078Y006325D01*
X028078Y005639D01*
X028122Y005533D01*
X028203Y005451D01*
X029052Y004602D01*
X029052Y004511D01*
X029116Y004358D01*
X029233Y004240D01*
X029387Y004176D01*
X029553Y004176D01*
X029707Y004240D01*
X029825Y004358D01*
X029888Y004511D01*
X029888Y004678D01*
X029825Y004831D01*
X029707Y004949D01*
X029553Y005013D01*
X029462Y005013D01*
X028658Y005817D01*
X028658Y006503D01*
X028614Y006609D01*
X028556Y006667D01*
X029822Y006667D01*
X029889Y006600D01*
X029889Y005891D01*
X029883Y005870D01*
X029889Y005834D01*
X029889Y005797D01*
X029897Y005777D01*
X029927Y005564D01*
X029903Y005540D01*
X029839Y005386D01*
X029839Y005220D01*
X029903Y005066D01*
X030021Y004949D01*
X030174Y004885D01*
X030341Y004885D01*
X030494Y004949D01*
X030612Y005066D01*
X030676Y005220D01*
X030676Y005386D01*
X030612Y005540D01*
X030501Y005651D01*
X030469Y005875D01*
X030469Y006778D01*
X030425Y006885D01*
X030188Y007121D01*
X030131Y007179D01*
X031610Y007179D01*
X031674Y007114D01*
X031828Y007050D01*
X031994Y007050D01*
X032148Y007114D01*
X032265Y007232D01*
X032329Y007385D01*
X032329Y007552D01*
X032265Y007705D01*
X032148Y007823D01*
X031994Y007887D01*
X031828Y007887D01*
X031674Y007823D01*
X031610Y007759D01*
X028905Y007759D01*
X028841Y007823D01*
X028687Y007887D01*
X028521Y007887D01*
X028367Y007823D01*
X028249Y007705D01*
X028196Y007577D01*
X027713Y008061D01*
X027713Y016188D01*
X027669Y016294D01*
X024967Y018996D01*
X024967Y019008D01*
X024903Y019162D01*
X024786Y019280D01*
X024959Y019027D02*
X027595Y019027D01*
X027595Y018896D02*
X027631Y018807D01*
X027699Y018740D01*
X027787Y018703D01*
X028397Y018703D01*
X028486Y018740D01*
X028553Y018807D01*
X028590Y018896D01*
X028590Y019506D01*
X028553Y019594D01*
X028486Y019662D01*
X028397Y019698D01*
X027787Y019698D01*
X027699Y019662D01*
X027631Y019594D01*
X027595Y019506D01*
X027595Y018896D01*
X027650Y018788D02*
X025175Y018788D01*
X025413Y018550D02*
X031059Y018550D01*
X031097Y018459D02*
X031330Y018225D01*
X031508Y018151D01*
X031490Y018151D01*
X031192Y018028D01*
X030964Y017800D01*
X030840Y017502D01*
X030840Y017179D01*
X030964Y016881D01*
X031192Y016653D01*
X031444Y016549D01*
X031442Y016547D01*
X031350Y016494D01*
X031265Y016430D01*
X031190Y016354D01*
X031125Y016270D01*
X031072Y016178D01*
X031032Y016080D01*
X031004Y015977D01*
X030993Y015896D01*
X031724Y015896D01*
X031724Y015742D01*
X031878Y015742D01*
X031878Y015896D01*
X032608Y015896D01*
X032597Y015977D01*
X032570Y016080D01*
X032529Y016178D01*
X032476Y016270D01*
X032411Y016354D01*
X032336Y016430D01*
X032252Y016494D01*
X032160Y016547D01*
X032062Y016588D01*
X031996Y016606D01*
X032110Y016653D01*
X032339Y016881D01*
X032462Y017179D01*
X032462Y017502D01*
X032339Y017800D01*
X032110Y018028D01*
X031940Y018099D01*
X031966Y018099D01*
X032271Y018225D01*
X032505Y018459D01*
X032631Y018764D01*
X032631Y019094D01*
X032505Y019400D01*
X032271Y019633D01*
X031966Y019760D01*
X031636Y019760D01*
X031330Y019633D01*
X031097Y019400D01*
X030970Y019094D01*
X030970Y018764D01*
X031097Y018459D01*
X031244Y018311D02*
X025652Y018311D01*
X025890Y018073D02*
X031300Y018073D01*
X030998Y017834D02*
X026129Y017834D01*
X026367Y017596D02*
X030879Y017596D01*
X030840Y017357D02*
X026606Y017357D01*
X026844Y017119D02*
X030865Y017119D01*
X030965Y016880D02*
X027083Y016880D01*
X027321Y016642D02*
X031220Y016642D01*
X031239Y016403D02*
X027560Y016403D01*
X027713Y016165D02*
X031067Y016165D01*
X030997Y015926D02*
X027713Y015926D01*
X027713Y015688D02*
X031001Y015688D01*
X031004Y015660D02*
X030993Y015742D01*
X031724Y015742D01*
X031724Y015011D01*
X031642Y015022D01*
X031540Y015050D01*
X031442Y015090D01*
X031350Y015144D01*
X031265Y015208D01*
X031190Y015283D01*
X031125Y015368D01*
X031072Y015460D01*
X031032Y015558D01*
X031004Y015660D01*
X031078Y015449D02*
X027713Y015449D01*
X027713Y015211D02*
X031263Y015211D01*
X031724Y015211D02*
X031878Y015211D01*
X031878Y015011D02*
X031959Y015022D01*
X032062Y015050D01*
X032160Y015090D01*
X032252Y015144D01*
X032336Y015208D01*
X032411Y015283D01*
X032476Y015368D01*
X032529Y015460D01*
X032570Y015558D01*
X032597Y015660D01*
X032608Y015742D01*
X031878Y015742D01*
X031878Y015011D01*
X032339Y015211D02*
X038289Y015211D01*
X038289Y015449D02*
X032523Y015449D01*
X032601Y015688D02*
X038289Y015688D01*
X038289Y015926D02*
X032604Y015926D01*
X032535Y016165D02*
X038289Y016165D01*
X038289Y016403D02*
X032363Y016403D01*
X032083Y016642D02*
X038289Y016642D01*
X038289Y016880D02*
X032337Y016880D01*
X032437Y017119D02*
X038289Y017119D01*
X038289Y017357D02*
X032462Y017357D01*
X032423Y017596D02*
X038289Y017596D01*
X038289Y017834D02*
X032304Y017834D01*
X032003Y018073D02*
X038289Y018073D01*
X038289Y018311D02*
X032357Y018311D01*
X032543Y018550D02*
X038289Y018550D01*
X038289Y018788D02*
X032631Y018788D01*
X032631Y019027D02*
X038289Y019027D01*
X038289Y019265D02*
X032561Y019265D01*
X032401Y019504D02*
X038289Y019504D01*
X038289Y019742D02*
X032009Y019742D01*
X031593Y019742D02*
X030589Y019742D01*
X030597Y019762D02*
X030597Y020372D01*
X030561Y020460D01*
X030493Y020528D01*
X030405Y020564D01*
X029795Y020564D01*
X029707Y020528D01*
X029639Y020460D01*
X029603Y020372D01*
X029603Y019762D01*
X029639Y019673D01*
X029707Y019606D01*
X029795Y019569D01*
X030405Y019569D01*
X030493Y019606D01*
X030561Y019673D01*
X030597Y019762D01*
X030597Y019981D02*
X033431Y019981D01*
X033437Y019967D02*
X033504Y019900D01*
X033592Y019863D01*
X035348Y019863D01*
X035436Y019900D01*
X035503Y019967D01*
X035540Y020055D01*
X035540Y021445D01*
X038289Y021445D01*
X038289Y000579D01*
X033069Y000579D01*
X033154Y000614D01*
X033382Y000842D01*
X033505Y001140D01*
X033505Y001462D01*
X033382Y001760D01*
X033154Y001989D01*
X032856Y002112D01*
X032533Y002112D01*
X032235Y001989D01*
X032007Y001760D01*
X031884Y001462D01*
X031884Y001140D01*
X032007Y000842D01*
X032235Y000614D01*
X032320Y000579D01*
X018069Y000579D01*
X018154Y000614D01*
X018382Y000842D01*
X018505Y001140D01*
X018505Y001462D01*
X018382Y001760D01*
X018154Y001989D01*
X017856Y002112D01*
X017533Y002112D01*
X017235Y001989D01*
X017007Y001760D01*
X016884Y001462D01*
X016884Y001140D01*
X017007Y000842D01*
X017235Y000614D01*
X017320Y000579D01*
X001569Y000579D01*
X001654Y000614D01*
X001882Y000842D01*
X002005Y001140D01*
X002005Y001462D01*
X001882Y001760D01*
X001654Y001989D01*
X001356Y002112D01*
X001033Y002112D01*
X000735Y001989D01*
X000533Y001786D01*
X000533Y011316D01*
X000735Y011114D01*
X001033Y010990D01*
X001356Y010990D01*
X001654Y011114D01*
X001882Y011342D01*
X002005Y011640D01*
X002005Y011962D01*
X001882Y012260D01*
X001654Y012489D01*
X001356Y012612D01*
X001033Y012612D01*
X000735Y012489D01*
X000533Y012286D01*
X000533Y021064D01*
X000617Y020862D01*
X000757Y020722D01*
X000755Y020722D01*
X000667Y020685D01*
X000600Y020618D01*
X000563Y020530D01*
X000563Y019840D01*
X000600Y019752D01*
X000667Y019685D01*
X000755Y019648D01*
X000764Y019648D01*
X000764Y016098D01*
X000879Y015821D01*
X001091Y015610D01*
X001368Y015495D01*
X002937Y015495D01*
X003158Y015587D01*
X003158Y015587D01*
X003328Y015757D01*
X003420Y015978D01*
X003420Y017746D01*
X003555Y017881D01*
X003600Y017989D01*
X003645Y017881D01*
X003796Y017730D01*
X003993Y017648D01*
X004207Y017648D01*
X004338Y017702D01*
X004338Y017065D01*
X004347Y017049D01*
X004347Y007204D01*
X004320Y006824D01*
X004401Y006044D01*
X004401Y006044D01*
X004616Y005289D01*
X004960Y004584D01*
X005420Y003949D01*
X005420Y003949D01*
X005984Y003403D01*
X006634Y002963D01*
X007350Y002643D01*
X008111Y002453D01*
X008451Y002429D01*
X008462Y002424D01*
X008514Y002424D01*
X008566Y002420D01*
X008577Y002424D01*
X030900Y002424D01*
X030937Y002418D01*
X030963Y002424D01*
X030990Y002424D01*
X031025Y002438D01*
X031061Y002447D01*
X031083Y002462D01*
X031108Y002473D01*
X031127Y002492D01*
X031145Y002502D01*
X031216Y002519D01*
X031289Y002507D01*
X031351Y002468D01*
X031358Y002459D01*
X031364Y002445D01*
X031390Y002418D01*
X031412Y002388D01*
X031435Y002374D01*
X031454Y002355D01*
X031489Y002340D01*
X031520Y002321D01*
X031547Y002316D01*
X031572Y002306D01*
X031609Y002306D01*
X031646Y002300D01*
X031672Y002306D01*
X034222Y002306D01*
X034575Y002421D01*
X034875Y002638D01*
X034875Y002638D01*
X034875Y002638D01*
X034935Y002721D01*
X034986Y002721D01*
X035169Y002797D01*
X035309Y002937D01*
X035385Y003120D01*
X035385Y003833D01*
X035309Y004016D01*
X035169Y004156D01*
X034986Y004231D01*
X034788Y004231D01*
X034606Y004156D01*
X034466Y004016D01*
X034390Y003833D01*
X034390Y003120D01*
X034401Y003093D01*
X034278Y003004D01*
X034120Y002953D01*
X034037Y002946D01*
X033508Y002946D01*
X033524Y002969D01*
X033558Y003036D01*
X033581Y003107D01*
X033593Y003181D01*
X033593Y003476D01*
X033116Y003476D01*
X033116Y003476D01*
X033593Y003476D01*
X033593Y003771D01*
X033581Y003846D01*
X033558Y003917D01*
X033524Y003984D01*
X033480Y004045D01*
X033427Y004098D01*
X033366Y004142D01*
X033299Y004176D01*
X033228Y004200D01*
X033153Y004211D01*
X033116Y004211D01*
X033116Y003476D01*
X032638Y003476D01*
X032638Y003181D01*
X032650Y003107D01*
X032673Y003036D01*
X032707Y002969D01*
X032724Y002946D01*
X031800Y002946D01*
X031521Y003120D01*
X031521Y003120D01*
X031196Y003175D01*
X031196Y003175D01*
X030875Y003100D01*
X030875Y003100D01*
X030824Y003064D01*
X008541Y003064D01*
X008215Y003102D01*
X007565Y003264D01*
X006953Y003538D01*
X006398Y003913D01*
X005916Y004379D01*
X005523Y004922D01*
X005230Y005524D01*
X005046Y006169D01*
X004977Y006835D01*
X004985Y007124D01*
X004987Y007129D01*
X004987Y007182D01*
X004991Y007234D01*
X004987Y007245D01*
X004987Y017178D01*
X004938Y017295D01*
X004918Y017316D01*
X004918Y017680D01*
X004993Y017648D01*
X005207Y017648D01*
X005404Y017730D01*
X005555Y017881D01*
X005611Y018017D01*
X005621Y017987D01*
X005658Y017914D01*
X005706Y017848D01*
X005763Y017791D01*
X005829Y017743D01*
X005902Y017706D01*
X005979Y017681D01*
X006059Y017668D01*
X006100Y017668D01*
X006141Y017668D01*
X006221Y017681D01*
X006298Y017706D01*
X006371Y017743D01*
X006437Y017791D01*
X006494Y017848D01*
X006542Y017914D01*
X006579Y017987D01*
X006604Y018064D01*
X006617Y018144D01*
X006617Y018185D01*
X006100Y018185D01*
X006100Y017668D01*
X006100Y018185D01*
X006100Y018185D01*
X006100Y018185D01*
X006617Y018185D01*
X006617Y018226D01*
X006604Y018306D01*
X006579Y018383D01*
X006542Y018456D01*
X006494Y018522D01*
X006437Y018579D01*
X006371Y018627D01*
X006298Y018664D01*
X006234Y018685D01*
X006298Y018706D01*
X006371Y018743D01*
X006437Y018791D01*
X006494Y018848D01*
X006542Y018914D01*
X006579Y018987D01*
X006604Y019064D01*
X006617Y019144D01*
X006617Y019185D01*
X006100Y019185D01*
X006100Y018668D01*
X006100Y018185D01*
X006100Y019185D01*
X006100Y019185D01*
X006100Y019185D01*
X006617Y019185D01*
X006617Y019226D01*
X006604Y019306D01*
X006579Y019383D01*
X006542Y019456D01*
X006494Y019522D01*
X006437Y019579D01*
X006371Y019627D01*
X006298Y019664D01*
X006268Y019674D01*
X006404Y019730D01*
X006555Y019881D01*
X006600Y019989D01*
X006645Y019881D01*
X006796Y019730D01*
X006977Y019655D01*
X006832Y019595D01*
X006714Y019477D01*
X006650Y019323D01*
X006650Y019157D01*
X006714Y019003D01*
X006832Y018886D01*
X006985Y018822D01*
X007076Y018822D01*
X007487Y018411D01*
X007487Y017450D01*
X007531Y017344D01*
X007613Y017262D01*
X007719Y017218D01*
X010951Y017218D01*
X010848Y017115D01*
X010784Y016961D01*
X010784Y016795D01*
X010848Y016641D01*
X010966Y016523D01*
X011119Y016460D01*
X011286Y016460D01*
X011439Y016523D01*
X011543Y016627D01*
X020669Y016627D01*
X020776Y016671D01*
X021327Y017223D01*
X021409Y017304D01*
X021453Y017411D01*
X021453Y018112D01*
X021517Y018177D01*
X021581Y018330D01*
X021581Y018497D01*
X021517Y018650D01*
X021400Y018768D01*
X021246Y018831D01*
X021080Y018831D01*
X020926Y018768D01*
X020809Y018650D01*
X020745Y018497D01*
X020745Y018330D01*
X020809Y018177D01*
X020873Y018112D01*
X020873Y017589D01*
X020492Y017207D01*
X020273Y017207D01*
X020336Y017271D01*
X020400Y017425D01*
X020400Y017591D01*
X020336Y017745D01*
X020219Y017862D01*
X020065Y017926D01*
X019899Y017926D01*
X019745Y017862D01*
X019681Y017798D01*
X008067Y017798D01*
X008067Y018589D01*
X008023Y018696D01*
X007941Y018777D01*
X007487Y019232D01*
X007487Y019323D01*
X007423Y019477D01*
X007305Y019595D01*
X007176Y019648D01*
X007207Y019648D01*
X007404Y019730D01*
X007555Y019881D01*
X007600Y019989D01*
X007645Y019881D01*
X007796Y019730D01*
X007993Y019648D01*
X008207Y019648D01*
X008404Y019730D01*
X008555Y019881D01*
X008600Y019989D01*
X008645Y019881D01*
X008796Y019730D01*
X008800Y019728D01*
X008800Y019504D01*
X008939Y019077D01*
X008939Y019077D01*
X009203Y018713D01*
X009566Y018449D01*
X009566Y018449D01*
X009994Y018310D01*
X010106Y018310D01*
X010154Y018290D01*
X014356Y018290D01*
X014430Y018216D01*
X014584Y018153D01*
X014750Y018153D01*
X014904Y018216D01*
X015021Y018334D01*
X015085Y018488D01*
X015085Y018654D01*
X015021Y018808D01*
X014904Y018925D01*
X014750Y018989D01*
X014584Y018989D01*
X014442Y018930D01*
X010154Y018930D01*
X010124Y018918D01*
X010090Y018920D01*
X009847Y018999D01*
X009640Y019150D01*
X009489Y019357D01*
X009410Y019600D01*
X009408Y019628D01*
X009597Y019367D01*
X009876Y019165D01*
X010203Y019058D01*
X011209Y019058D01*
X011214Y019044D01*
X011282Y018977D01*
X011370Y018940D01*
X011822Y018940D01*
X011910Y018977D01*
X011978Y019044D01*
X012014Y019132D01*
X012014Y019584D01*
X011986Y019651D01*
X011993Y019648D01*
X012207Y019648D01*
X012404Y019730D01*
X012555Y019881D01*
X012611Y020017D01*
X012621Y019987D01*
X012658Y019914D01*
X012706Y019848D01*
X012763Y019791D01*
X012829Y019743D01*
X012902Y019706D01*
X012979Y019681D01*
X013059Y019668D01*
X013100Y019668D01*
X013141Y019668D01*
X013221Y019681D01*
X013298Y019706D01*
X013371Y019743D01*
X013437Y019791D01*
X013494Y019848D01*
X013542Y019914D01*
X013579Y019987D01*
X013604Y020064D01*
X013617Y020144D01*
X013617Y020185D01*
X013100Y020185D01*
X013100Y019668D01*
X013100Y020185D01*
X013100Y020185D01*
X013100Y020185D01*
X013617Y020185D01*
X013617Y020226D01*
X013604Y020306D01*
X013579Y020383D01*
X013542Y020456D01*
X013494Y020522D01*
X013437Y020579D01*
X013371Y020627D01*
X013298Y020664D01*
X013268Y020674D01*
X013404Y020730D01*
X013555Y020881D01*
X013637Y021078D01*
X013637Y021292D01*
X013573Y021445D01*
X021060Y021445D01*
X020966Y021406D01*
X020848Y021288D01*
X020817Y021214D01*
X017143Y021214D01*
X017108Y021248D01*
X016955Y021312D01*
X016788Y021312D01*
X016635Y021248D01*
X016517Y021131D01*
X016454Y020977D01*
X016454Y020811D01*
X016517Y020657D01*
X016635Y020539D01*
X016788Y020476D01*
X016955Y020476D01*
X017108Y020539D01*
X017143Y020574D01*
X021140Y020574D01*
X021283Y020633D01*
X021286Y020633D01*
X021439Y020697D01*
X021557Y020814D01*
X021620Y020968D01*
X021620Y021134D01*
X021557Y021288D01*
X021439Y021406D01*
X021344Y021445D01*
X031884Y021445D01*
X031884Y021140D01*
X032007Y020842D01*
X032235Y020614D01*
X032533Y020490D01*
X032856Y020490D01*
X033154Y020614D01*
X033382Y020842D01*
X033400Y020886D01*
X033400Y020055D01*
X033437Y019967D01*
X033400Y020219D02*
X030597Y020219D01*
X030562Y020458D02*
X033400Y020458D01*
X033400Y020696D02*
X033236Y020696D01*
X032153Y020696D02*
X023444Y020696D01*
X023443Y020697D02*
X023483Y020737D01*
X023546Y020890D01*
X023546Y021055D01*
X023483Y021208D01*
X023367Y021324D01*
X023214Y021387D01*
X023049Y021387D01*
X022896Y021324D01*
X022780Y021208D01*
X022716Y021055D01*
X022716Y020890D01*
X022780Y020737D01*
X022820Y020697D01*
X022780Y020656D01*
X022716Y020504D01*
X022716Y020339D01*
X022780Y020186D01*
X022896Y020069D01*
X023049Y020006D01*
X023214Y020006D01*
X023367Y020069D01*
X023483Y020186D01*
X023546Y020339D01*
X023546Y020504D01*
X023483Y020656D01*
X023443Y020697D01*
X023546Y020935D02*
X031969Y020935D01*
X031884Y021173D02*
X023498Y021173D01*
X022765Y021173D02*
X021604Y021173D01*
X021607Y020935D02*
X022716Y020935D01*
X022819Y020696D02*
X021438Y020696D01*
X021425Y021412D02*
X031884Y021412D01*
X029638Y020458D02*
X023546Y020458D01*
X023497Y020219D02*
X029603Y020219D01*
X029603Y019981D02*
X013576Y019981D01*
X013617Y020219D02*
X022766Y020219D01*
X022716Y020458D02*
X013541Y020458D01*
X013322Y020696D02*
X016501Y020696D01*
X016454Y020935D02*
X013577Y020935D01*
X013637Y021173D02*
X016560Y021173D01*
X013587Y021412D02*
X020980Y021412D01*
X024297Y019265D02*
X012014Y019265D01*
X012014Y019504D02*
X027595Y019504D01*
X028590Y019504D02*
X031201Y019504D01*
X031041Y019265D02*
X028590Y019265D01*
X028590Y019027D02*
X030970Y019027D01*
X030970Y018788D02*
X028534Y018788D01*
X029611Y019742D02*
X013369Y019742D01*
X013100Y019742D02*
X013100Y019742D01*
X013100Y019981D02*
X013100Y019981D01*
X012831Y019742D02*
X012416Y019742D01*
X012596Y019981D02*
X012624Y019981D01*
X011960Y019027D02*
X024138Y019027D01*
X024153Y018788D02*
X021351Y018788D01*
X021559Y018550D02*
X024363Y018550D01*
X023239Y018311D02*
X021573Y018311D01*
X021453Y018073D02*
X023186Y018073D01*
X023277Y017834D02*
X021453Y017834D01*
X021453Y017596D02*
X025075Y017596D01*
X024836Y017834D02*
X023931Y017834D01*
X025313Y017357D02*
X021431Y017357D01*
X021223Y017119D02*
X025552Y017119D01*
X025790Y016880D02*
X020985Y016880D01*
X020704Y016642D02*
X026029Y016642D01*
X026267Y016403D02*
X025157Y016403D01*
X025139Y016446D02*
X025203Y016292D01*
X025203Y016125D01*
X025139Y015972D01*
X025022Y015854D01*
X024868Y015791D01*
X024702Y015791D01*
X024548Y015854D01*
X024514Y015889D01*
X022280Y015889D01*
X022093Y015702D01*
X022093Y015653D01*
X022029Y015499D01*
X021912Y015382D01*
X021758Y015318D01*
X021592Y015318D01*
X021438Y015382D01*
X021320Y015499D01*
X021257Y015653D01*
X021257Y015819D01*
X021320Y015973D01*
X021438Y016091D01*
X021592Y016154D01*
X021640Y016154D01*
X021876Y016390D01*
X021966Y016480D01*
X022084Y016529D01*
X024514Y016529D01*
X024548Y016563D01*
X024702Y016627D01*
X024868Y016627D01*
X025022Y016563D01*
X025139Y016446D01*
X025203Y016165D02*
X026506Y016165D01*
X026660Y015926D02*
X025094Y015926D01*
X026660Y015688D02*
X022093Y015688D01*
X021979Y015449D02*
X026660Y015449D01*
X026660Y015211D02*
X004987Y015211D01*
X004987Y015449D02*
X021371Y015449D01*
X021257Y015688D02*
X004987Y015688D01*
X004987Y015926D02*
X021301Y015926D01*
X021651Y016165D02*
X004987Y016165D01*
X004987Y016403D02*
X021889Y016403D01*
X020641Y017357D02*
X020372Y017357D01*
X020398Y017596D02*
X020873Y017596D01*
X020873Y017834D02*
X020247Y017834D01*
X019717Y017834D02*
X008067Y017834D01*
X008067Y018073D02*
X020873Y018073D01*
X020753Y018311D02*
X014998Y018311D01*
X015085Y018550D02*
X020767Y018550D01*
X020975Y018788D02*
X015030Y018788D01*
X011232Y019027D02*
X009809Y019027D01*
X009876Y019165D02*
X009876Y019165D01*
X009738Y019265D02*
X009556Y019265D01*
X009597Y019367D02*
X009597Y019367D01*
X009597Y019367D01*
X009498Y019504D02*
X009442Y019504D01*
X008878Y019265D02*
X007487Y019265D01*
X007396Y019504D02*
X008800Y019504D01*
X008784Y019742D02*
X008416Y019742D01*
X008596Y019981D02*
X008604Y019981D01*
X007784Y019742D02*
X007416Y019742D01*
X007596Y019981D02*
X007604Y019981D01*
X006784Y019742D02*
X006416Y019742D01*
X006507Y019504D02*
X006741Y019504D01*
X006650Y019265D02*
X006611Y019265D01*
X006592Y019027D02*
X006704Y019027D01*
X006433Y018788D02*
X007110Y018788D01*
X007349Y018550D02*
X006466Y018550D01*
X006603Y018311D02*
X007487Y018311D01*
X007487Y018073D02*
X006605Y018073D01*
X006480Y017834D02*
X007487Y017834D01*
X007487Y017596D02*
X004918Y017596D01*
X004918Y017357D02*
X007526Y017357D01*
X006100Y017834D02*
X006100Y017834D01*
X006100Y018073D02*
X006100Y018073D01*
X006100Y018185D02*
X006100Y018185D01*
X006100Y018311D02*
X006100Y018311D01*
X006100Y018550D02*
X006100Y018550D01*
X006100Y018788D02*
X006100Y018788D01*
X006100Y019027D02*
X006100Y019027D01*
X007692Y019027D02*
X008975Y019027D01*
X009148Y018788D02*
X007931Y018788D01*
X008067Y018550D02*
X009428Y018550D01*
X009203Y018713D02*
X009203Y018713D01*
X009203Y018713D01*
X009991Y018311D02*
X008067Y018311D01*
X005720Y017834D02*
X005508Y017834D01*
X004338Y017596D02*
X003420Y017596D01*
X003420Y017357D02*
X004338Y017357D01*
X004338Y017119D02*
X003420Y017119D01*
X003420Y016880D02*
X004347Y016880D01*
X004347Y016642D02*
X003420Y016642D01*
X003420Y016403D02*
X004347Y016403D01*
X004347Y016165D02*
X003420Y016165D01*
X003398Y015926D02*
X004347Y015926D01*
X004347Y015688D02*
X003259Y015688D01*
X003328Y015757D02*
X003328Y015757D01*
X004347Y015449D02*
X000533Y015449D01*
X000533Y015211D02*
X004347Y015211D01*
X004347Y014972D02*
X000533Y014972D01*
X000533Y014734D02*
X004347Y014734D01*
X004347Y014495D02*
X000533Y014495D01*
X000533Y014257D02*
X004347Y014257D01*
X004347Y014018D02*
X000533Y014018D01*
X000533Y013780D02*
X004347Y013780D01*
X004347Y013541D02*
X000533Y013541D01*
X000533Y013303D02*
X004347Y013303D01*
X004347Y013064D02*
X000533Y013064D01*
X000533Y012826D02*
X004347Y012826D01*
X004347Y012587D02*
X001416Y012587D01*
X000973Y012587D02*
X000533Y012587D01*
X000533Y012349D02*
X000595Y012349D01*
X001794Y012349D02*
X004347Y012349D01*
X004347Y012110D02*
X001944Y012110D01*
X002005Y011872D02*
X004347Y011872D01*
X004347Y011633D02*
X002003Y011633D01*
X001904Y011395D02*
X004347Y011395D01*
X004347Y011156D02*
X001696Y011156D01*
X000693Y011156D02*
X000533Y011156D01*
X000533Y010918D02*
X004347Y010918D01*
X004347Y010679D02*
X000533Y010679D01*
X000533Y010441D02*
X004347Y010441D01*
X004347Y010202D02*
X000533Y010202D01*
X000533Y009964D02*
X004347Y009964D01*
X004347Y009725D02*
X000533Y009725D01*
X000533Y009487D02*
X004347Y009487D01*
X004347Y009248D02*
X000533Y009248D01*
X000533Y009010D02*
X004347Y009010D01*
X004347Y008771D02*
X000533Y008771D01*
X000533Y008533D02*
X004347Y008533D01*
X004347Y008294D02*
X000533Y008294D01*
X000533Y008056D02*
X004347Y008056D01*
X004347Y007817D02*
X000533Y007817D01*
X000533Y007579D02*
X004347Y007579D01*
X004347Y007340D02*
X000533Y007340D01*
X000533Y007102D02*
X004340Y007102D01*
X004323Y006863D02*
X000533Y006863D01*
X000533Y006625D02*
X004341Y006625D01*
X004320Y006824D02*
X004320Y006824D01*
X004978Y006863D02*
X009498Y006863D01*
X009507Y006842D02*
X009735Y006614D01*
X010033Y006490D01*
X010356Y006490D01*
X010654Y006614D01*
X010882Y006842D01*
X011005Y007140D01*
X011005Y007462D01*
X010882Y007760D01*
X010654Y007989D01*
X010356Y008112D01*
X010033Y008112D01*
X009735Y007989D01*
X009507Y007760D01*
X009384Y007462D01*
X009384Y007140D01*
X009507Y006842D01*
X009400Y007102D02*
X004984Y007102D01*
X004987Y007340D02*
X009384Y007340D01*
X009432Y007579D02*
X004987Y007579D01*
X004987Y007817D02*
X009564Y007817D01*
X009897Y008056D02*
X004987Y008056D01*
X004987Y008294D02*
X026660Y008294D01*
X026660Y008056D02*
X010492Y008056D01*
X010825Y007817D02*
X026660Y007817D01*
X026824Y007579D02*
X010957Y007579D01*
X011005Y007340D02*
X027062Y007340D01*
X027301Y007102D02*
X010989Y007102D01*
X010891Y006863D02*
X027539Y006863D01*
X027529Y006625D02*
X027529Y006625D01*
X027529Y006386D02*
X027529Y006386D01*
X027529Y006148D02*
X027529Y006148D01*
X027529Y006012D02*
X027529Y006012D01*
X027529Y006012D01*
X028049Y006012D01*
X028049Y005671D01*
X028036Y005590D01*
X028011Y005512D01*
X027974Y005439D01*
X027926Y005373D01*
X027868Y005315D01*
X027802Y005267D01*
X027729Y005230D01*
X027651Y005205D01*
X027570Y005192D01*
X027529Y005192D01*
X027529Y006012D01*
X027529Y005909D02*
X027529Y005909D01*
X027529Y005671D02*
X027529Y005671D01*
X027529Y005432D02*
X027529Y005432D01*
X027529Y005194D02*
X027529Y005194D01*
X027477Y005194D02*
X026689Y005194D01*
X026369Y005194D02*
X025421Y005194D01*
X025421Y005432D02*
X026061Y005432D01*
X025989Y005671D02*
X025421Y005671D01*
X025421Y005820D02*
X025454Y005854D01*
X025518Y006007D01*
X025518Y006174D01*
X025454Y006327D01*
X025337Y006445D01*
X025183Y006509D01*
X025017Y006509D01*
X024863Y006445D01*
X024746Y006327D01*
X024682Y006174D01*
X024682Y006007D01*
X024701Y005962D01*
X024701Y004070D01*
X024643Y003930D01*
X024643Y003763D01*
X006621Y003763D01*
X006307Y004001D02*
X024672Y004001D01*
X024643Y003763D02*
X024706Y003610D01*
X024824Y003492D01*
X024977Y003428D01*
X025144Y003428D01*
X025297Y003492D01*
X025415Y003610D01*
X025479Y003763D01*
X025479Y003930D01*
X025421Y004070D01*
X025421Y005820D01*
X025477Y005909D02*
X025989Y005909D01*
X025989Y006148D02*
X025518Y006148D01*
X025396Y006386D02*
X025989Y006386D01*
X026078Y006625D02*
X010665Y006625D01*
X009724Y006625D02*
X004999Y006625D01*
X005024Y006386D02*
X024804Y006386D01*
X024682Y006148D02*
X005052Y006148D01*
X005120Y005909D02*
X024701Y005909D01*
X024701Y005671D02*
X005188Y005671D01*
X005275Y005432D02*
X024701Y005432D01*
X024701Y005194D02*
X005391Y005194D01*
X005507Y004955D02*
X024701Y004955D01*
X024701Y004717D02*
X005672Y004717D01*
X005845Y004478D02*
X024701Y004478D01*
X024701Y004240D02*
X006061Y004240D01*
X005612Y003763D02*
X000533Y003763D01*
X000533Y004001D02*
X005382Y004001D01*
X005209Y004240D02*
X000533Y004240D01*
X000533Y004478D02*
X005036Y004478D01*
X004960Y004584D02*
X004960Y004584D01*
X004895Y004717D02*
X000533Y004717D01*
X000533Y004955D02*
X004779Y004955D01*
X004663Y005194D02*
X000533Y005194D01*
X000533Y005432D02*
X004576Y005432D01*
X004616Y005289D02*
X004616Y005289D01*
X004508Y005671D02*
X000533Y005671D01*
X000533Y005909D02*
X004440Y005909D01*
X004390Y006148D02*
X000533Y006148D01*
X000533Y006386D02*
X004365Y006386D01*
X004987Y008533D02*
X026660Y008533D01*
X026660Y008771D02*
X004987Y008771D01*
X004987Y009010D02*
X026660Y009010D01*
X026660Y009248D02*
X004987Y009248D01*
X004987Y009487D02*
X025672Y009487D01*
X025676Y009477D02*
X025805Y009348D01*
X025973Y009278D01*
X026156Y009278D01*
X026324Y009348D01*
X026453Y009477D01*
X026523Y009645D01*
X026523Y009827D01*
X026453Y009996D01*
X026324Y010125D01*
X026156Y010194D01*
X025973Y010194D01*
X025805Y010125D01*
X025676Y009996D01*
X025606Y009827D01*
X025606Y009645D01*
X025676Y009477D01*
X025606Y009725D02*
X004987Y009725D01*
X004987Y009964D02*
X025663Y009964D01*
X025835Y010283D02*
X025896Y010251D01*
X025962Y010230D01*
X026030Y010219D01*
X026065Y010219D01*
X026099Y010219D01*
X026167Y010230D01*
X026233Y010251D01*
X026294Y010283D01*
X026350Y010323D01*
X026399Y010372D01*
X026439Y010428D01*
X026471Y010489D01*
X026492Y010555D01*
X026503Y010623D01*
X026503Y010657D01*
X026065Y010657D01*
X026065Y010657D01*
X026065Y010219D01*
X026065Y010657D01*
X026065Y010657D01*
X026503Y010657D01*
X026503Y010692D01*
X026492Y010760D01*
X026471Y010826D01*
X026439Y010887D01*
X026399Y010943D01*
X026350Y010992D01*
X026294Y011032D01*
X026233Y011063D01*
X026167Y011085D01*
X026099Y011096D01*
X026065Y011096D01*
X026065Y010657D01*
X025626Y010657D01*
X025626Y010623D01*
X025637Y010555D01*
X025659Y010489D01*
X025690Y010428D01*
X025730Y010372D01*
X025779Y010323D01*
X025835Y010283D01*
X025683Y010441D02*
X004987Y010441D01*
X004987Y010679D02*
X025626Y010679D01*
X025626Y010692D02*
X025626Y010657D01*
X026065Y010657D01*
X026065Y010657D01*
X026065Y010657D01*
X026065Y011096D01*
X026030Y011096D01*
X025962Y011085D01*
X025896Y011063D01*
X025835Y011032D01*
X025779Y010992D01*
X025730Y010943D01*
X025690Y010887D01*
X025659Y010826D01*
X025637Y010760D01*
X025626Y010692D01*
X025712Y010918D02*
X004987Y010918D01*
X004987Y011156D02*
X025888Y011156D01*
X025805Y011190D02*
X025973Y011121D01*
X026156Y011121D01*
X026324Y011190D01*
X026453Y011319D01*
X026523Y011488D01*
X026523Y011670D01*
X026453Y011838D01*
X026324Y011967D01*
X026156Y012037D01*
X025973Y012037D01*
X025805Y011967D01*
X025676Y011838D01*
X025606Y011670D01*
X025606Y011488D01*
X025676Y011319D01*
X025805Y011190D01*
X025645Y011395D02*
X004987Y011395D01*
X004987Y011633D02*
X025606Y011633D01*
X025710Y011872D02*
X004987Y011872D01*
X004987Y012110D02*
X026660Y012110D01*
X026660Y011872D02*
X026420Y011872D01*
X026523Y011633D02*
X026660Y011633D01*
X026660Y011395D02*
X026484Y011395D01*
X026660Y011156D02*
X026241Y011156D01*
X026417Y010918D02*
X026660Y010918D01*
X026660Y010679D02*
X026503Y010679D01*
X026446Y010441D02*
X026660Y010441D01*
X026660Y010202D02*
X004987Y010202D01*
X004987Y012349D02*
X026660Y012349D01*
X026660Y012587D02*
X004987Y012587D01*
X004987Y012826D02*
X026660Y012826D01*
X026660Y013064D02*
X004987Y013064D01*
X004987Y013303D02*
X026660Y013303D01*
X026660Y013541D02*
X004987Y013541D01*
X004987Y013780D02*
X026660Y013780D01*
X026660Y014018D02*
X004987Y014018D01*
X004987Y014257D02*
X026660Y014257D01*
X026660Y014495D02*
X004987Y014495D01*
X004987Y014734D02*
X026660Y014734D01*
X026660Y014972D02*
X004987Y014972D01*
X004987Y016642D02*
X010848Y016642D01*
X010784Y016880D02*
X004987Y016880D01*
X004987Y017119D02*
X010852Y017119D01*
X006604Y019981D02*
X006596Y019981D01*
X006600Y020381D02*
X006555Y020489D01*
X006404Y020640D01*
X006296Y020685D01*
X006404Y020730D01*
X006555Y020881D01*
X006611Y021017D01*
X006621Y020987D01*
X006658Y020914D01*
X006706Y020848D01*
X006763Y020791D01*
X006829Y020743D01*
X006902Y020706D01*
X006932Y020696D01*
X006796Y020640D01*
X006645Y020489D01*
X006600Y020381D01*
X006568Y020458D02*
X006632Y020458D01*
X006931Y020696D02*
X006322Y020696D01*
X006577Y020935D02*
X006648Y020935D01*
X003904Y020685D02*
X003796Y020640D01*
X003645Y020489D01*
X003600Y020381D01*
X003555Y020489D01*
X003404Y020640D01*
X003315Y020677D01*
X003388Y020715D01*
X003458Y020766D01*
X003520Y020827D01*
X003570Y020897D01*
X003608Y020970D01*
X003645Y020881D01*
X003796Y020730D01*
X003904Y020685D01*
X003878Y020696D02*
X003352Y020696D01*
X003568Y020458D02*
X003632Y020458D01*
X003623Y020935D02*
X003590Y020935D01*
X003563Y021185D02*
X003100Y021185D01*
X003100Y021185D01*
X003563Y021185D01*
X003563Y021185D01*
X000693Y020696D02*
X000533Y020696D01*
X000533Y020458D02*
X000563Y020458D01*
X000563Y020219D02*
X000533Y020219D01*
X000533Y019981D02*
X000563Y019981D01*
X000533Y019742D02*
X000610Y019742D01*
X000533Y019504D02*
X000764Y019504D01*
X000764Y019265D02*
X000533Y019265D01*
X000533Y019027D02*
X000764Y019027D01*
X000764Y018788D02*
X000533Y018788D01*
X000533Y018550D02*
X000764Y018550D01*
X000764Y018311D02*
X000533Y018311D01*
X000533Y018073D02*
X000764Y018073D01*
X000764Y017834D02*
X000533Y017834D01*
X000533Y017596D02*
X000764Y017596D01*
X000764Y017357D02*
X000533Y017357D01*
X000533Y017119D02*
X000764Y017119D01*
X000764Y016880D02*
X000533Y016880D01*
X000533Y016642D02*
X000764Y016642D01*
X000764Y016403D02*
X000533Y016403D01*
X000533Y016165D02*
X000764Y016165D01*
X000836Y015926D02*
X000533Y015926D01*
X000533Y015688D02*
X001013Y015688D01*
X001091Y015610D02*
X001091Y015610D01*
X000879Y015821D02*
X000879Y015821D01*
X003508Y017834D02*
X003692Y017834D01*
X000587Y020935D02*
X000533Y020935D01*
X026065Y010918D02*
X026065Y010918D01*
X026065Y010679D02*
X026065Y010679D01*
X026065Y010441D02*
X026065Y010441D01*
X026466Y009964D02*
X026660Y009964D01*
X026660Y009725D02*
X026523Y009725D01*
X026457Y009487D02*
X026660Y009487D01*
X027713Y009487D02*
X027959Y009487D01*
X027979Y009535D02*
X027910Y009367D01*
X027910Y009184D01*
X027979Y009016D01*
X028108Y008887D01*
X028277Y008817D01*
X028459Y008817D01*
X028627Y008887D01*
X028756Y009016D01*
X028826Y009184D01*
X028826Y009367D01*
X028756Y009535D01*
X028627Y009664D01*
X028459Y009734D01*
X028277Y009734D01*
X028108Y009664D01*
X027979Y009535D01*
X027910Y009248D02*
X027713Y009248D01*
X027713Y009010D02*
X027986Y009010D01*
X027713Y008771D02*
X033518Y008771D01*
X033518Y008638D02*
X033555Y008550D01*
X033622Y008482D01*
X033711Y008446D01*
X035466Y008446D01*
X035554Y008482D01*
X035622Y008550D01*
X035658Y008638D01*
X035658Y010393D01*
X035622Y010482D01*
X035554Y010549D01*
X035466Y010586D01*
X033711Y010586D01*
X033622Y010549D01*
X033555Y010482D01*
X033518Y010393D01*
X033518Y008638D01*
X033572Y008533D02*
X027713Y008533D01*
X027713Y008294D02*
X038289Y008294D01*
X038289Y008056D02*
X027718Y008056D01*
X027957Y007817D02*
X028361Y007817D01*
X028197Y007579D02*
X028195Y007579D01*
X028847Y007817D02*
X031668Y007817D01*
X032154Y007817D02*
X038289Y007817D01*
X038289Y007579D02*
X032318Y007579D01*
X032310Y007340D02*
X038289Y007340D01*
X038289Y007102D02*
X032118Y007102D01*
X031704Y007102D02*
X030208Y007102D01*
X030434Y006863D02*
X038289Y006863D01*
X038289Y006625D02*
X030469Y006625D01*
X030469Y006386D02*
X038289Y006386D01*
X038289Y006148D02*
X035062Y006148D01*
X035071Y006145D02*
X034999Y006168D01*
X034925Y006180D01*
X034887Y006180D01*
X034850Y006180D01*
X034776Y006168D01*
X034704Y006145D01*
X034637Y006111D01*
X034576Y006067D01*
X034523Y006013D01*
X034479Y005953D01*
X034445Y005886D01*
X034422Y005814D01*
X034410Y005740D01*
X034410Y005445D01*
X034887Y005445D01*
X034887Y005445D01*
X034410Y005445D01*
X034410Y005150D01*
X034422Y005076D01*
X034445Y005004D01*
X034479Y004937D01*
X034523Y004876D01*
X034576Y004823D01*
X034637Y004779D01*
X034704Y004745D01*
X034776Y004722D01*
X034850Y004710D01*
X034887Y004710D01*
X034887Y005445D01*
X034887Y006180D01*
X034887Y005445D01*
X034887Y005445D01*
X034887Y005445D01*
X034887Y004710D01*
X034925Y004710D01*
X034999Y004722D01*
X035071Y004745D01*
X035138Y004779D01*
X035198Y004823D01*
X035252Y004876D01*
X035296Y004937D01*
X035330Y005004D01*
X035353Y005076D01*
X035365Y005150D01*
X035365Y005445D01*
X035365Y005740D01*
X035353Y005814D01*
X035330Y005886D01*
X035296Y005953D01*
X035252Y006013D01*
X035198Y006067D01*
X035138Y006111D01*
X035071Y006145D01*
X034887Y006148D02*
X034887Y006148D01*
X034712Y006148D02*
X033291Y006148D01*
X033299Y006145D02*
X033228Y006168D01*
X033153Y006180D01*
X033116Y006180D01*
X033116Y005445D01*
X033593Y005445D01*
X033593Y005740D01*
X033581Y005814D01*
X033558Y005886D01*
X033524Y005953D01*
X033480Y006013D01*
X033427Y006067D01*
X033366Y006111D01*
X033299Y006145D01*
X033116Y006148D02*
X033116Y006148D01*
X033116Y006180D02*
X033078Y006180D01*
X033004Y006168D01*
X032932Y006145D01*
X032865Y006111D01*
X032805Y006067D01*
X032752Y006013D01*
X032707Y005953D01*
X032673Y005886D01*
X032650Y005814D01*
X032638Y005740D01*
X032638Y005445D01*
X033116Y005445D01*
X033116Y005445D01*
X033116Y005445D01*
X033593Y005445D01*
X033593Y005150D01*
X033581Y005076D01*
X033558Y005004D01*
X033524Y004937D01*
X033480Y004876D01*
X033427Y004823D01*
X033366Y004779D01*
X033299Y004745D01*
X033228Y004722D01*
X033153Y004710D01*
X033116Y004710D01*
X033116Y005445D01*
X033116Y005445D01*
X033116Y006180D01*
X032941Y006148D02*
X030469Y006148D01*
X030469Y005909D02*
X032685Y005909D01*
X032638Y005671D02*
X030498Y005671D01*
X030657Y005432D02*
X032638Y005432D01*
X032638Y005445D02*
X032638Y005150D01*
X032650Y005076D01*
X032673Y005004D01*
X032707Y004937D01*
X032752Y004876D01*
X032805Y004823D01*
X032865Y004779D01*
X032932Y004745D01*
X033004Y004722D01*
X033078Y004710D01*
X033116Y004710D01*
X033116Y005445D01*
X033116Y005445D01*
X032638Y005445D01*
X032638Y005194D02*
X030665Y005194D01*
X030501Y004955D02*
X032698Y004955D01*
X033036Y004717D02*
X029872Y004717D01*
X029874Y004478D02*
X038289Y004478D01*
X038289Y004240D02*
X029706Y004240D01*
X029234Y004240D02*
X025421Y004240D01*
X025421Y004478D02*
X029066Y004478D01*
X028938Y004717D02*
X025421Y004717D01*
X025421Y004955D02*
X028699Y004955D01*
X028461Y005194D02*
X027581Y005194D01*
X027969Y005432D02*
X028222Y005432D01*
X028078Y005671D02*
X028049Y005671D01*
X028049Y005909D02*
X028078Y005909D01*
X028078Y006148D02*
X028049Y006148D01*
X028658Y006148D02*
X029889Y006148D01*
X029889Y006386D02*
X028658Y006386D01*
X028598Y006625D02*
X029865Y006625D01*
X029889Y005909D02*
X028658Y005909D01*
X028804Y005671D02*
X029912Y005671D01*
X029858Y005432D02*
X029043Y005432D01*
X029281Y005194D02*
X029850Y005194D01*
X029692Y004955D02*
X030014Y004955D01*
X032673Y003917D02*
X032650Y003846D01*
X032638Y003771D01*
X032638Y003476D01*
X033116Y003476D01*
X033116Y003476D01*
X033116Y003476D01*
X033116Y004211D01*
X033078Y004211D01*
X033004Y004200D01*
X032932Y004176D01*
X032865Y004142D01*
X032805Y004098D01*
X032752Y004045D01*
X032707Y003984D01*
X032673Y003917D01*
X032720Y004001D02*
X025449Y004001D01*
X025478Y003763D02*
X032638Y003763D01*
X032638Y003524D02*
X025330Y003524D01*
X025061Y003846D02*
X025061Y006051D01*
X025100Y006091D01*
X026980Y006625D02*
X027114Y006625D01*
X027090Y005432D02*
X026998Y005432D01*
X024792Y003524D02*
X006984Y003524D01*
X007518Y003286D02*
X032638Y003286D01*
X032670Y003047D02*
X031638Y003047D01*
X031800Y002946D02*
X031800Y002946D01*
X031800Y002946D01*
X031800Y002946D01*
X031503Y002332D02*
X000533Y002332D01*
X000533Y002570D02*
X007643Y002570D01*
X007350Y002643D02*
X007350Y002643D01*
X006980Y002809D02*
X000533Y002809D01*
X000533Y003047D02*
X006510Y003047D01*
X006634Y002963D02*
X006634Y002963D01*
X006157Y003286D02*
X000533Y003286D01*
X000533Y003524D02*
X005859Y003524D01*
X005984Y003403D02*
X005984Y003403D01*
X008215Y003102D02*
X008215Y003102D01*
X002005Y001378D02*
X016884Y001378D01*
X016884Y001139D02*
X002005Y001139D01*
X001906Y000901D02*
X016983Y000901D01*
X017187Y000662D02*
X001702Y000662D01*
X001942Y001616D02*
X016947Y001616D01*
X017101Y001855D02*
X001788Y001855D01*
X001402Y002093D02*
X017487Y002093D01*
X017902Y002093D02*
X032487Y002093D01*
X032902Y002093D02*
X038289Y002093D01*
X038289Y001855D02*
X033288Y001855D01*
X033442Y001616D02*
X038289Y001616D01*
X038289Y001378D02*
X033505Y001378D01*
X033505Y001139D02*
X038289Y001139D01*
X038289Y000901D02*
X033406Y000901D01*
X033202Y000662D02*
X038289Y000662D01*
X038289Y002332D02*
X034301Y002332D01*
X034575Y002421D02*
X034575Y002421D01*
X034781Y002570D02*
X038289Y002570D01*
X038289Y002809D02*
X035181Y002809D01*
X035355Y003047D02*
X038289Y003047D01*
X038289Y003286D02*
X035385Y003286D01*
X035385Y003524D02*
X038289Y003524D01*
X038289Y003763D02*
X035385Y003763D01*
X035315Y004001D02*
X038289Y004001D01*
X038289Y004717D02*
X034967Y004717D01*
X034887Y004717D02*
X034887Y004717D01*
X034808Y004717D02*
X033195Y004717D01*
X033116Y004717D02*
X033116Y004717D01*
X033116Y004955D02*
X033116Y004955D01*
X033116Y005194D02*
X033116Y005194D01*
X033116Y005432D02*
X033116Y005432D01*
X033116Y005671D02*
X033116Y005671D01*
X033116Y005909D02*
X033116Y005909D01*
X033546Y005909D02*
X034457Y005909D01*
X034410Y005671D02*
X033593Y005671D01*
X033593Y005432D02*
X034410Y005432D01*
X034410Y005194D02*
X033593Y005194D01*
X033533Y004955D02*
X034470Y004955D01*
X034887Y004955D02*
X034887Y004955D01*
X034887Y005194D02*
X034887Y005194D01*
X034887Y005432D02*
X034887Y005432D01*
X034887Y005445D02*
X034887Y005445D01*
X035365Y005445D01*
X034887Y005445D01*
X034887Y005671D02*
X034887Y005671D01*
X034887Y005909D02*
X034887Y005909D01*
X035318Y005909D02*
X038289Y005909D01*
X038289Y005671D02*
X035365Y005671D01*
X035365Y005432D02*
X038289Y005432D01*
X038289Y005194D02*
X035365Y005194D01*
X035305Y004955D02*
X038289Y004955D01*
X034460Y004001D02*
X033512Y004001D01*
X033593Y003763D02*
X034390Y003763D01*
X034390Y003524D02*
X033593Y003524D01*
X033593Y003286D02*
X034390Y003286D01*
X034337Y003047D02*
X033562Y003047D01*
X033116Y003524D02*
X033116Y003524D01*
X033116Y003763D02*
X033116Y003763D01*
X033116Y004001D02*
X033116Y004001D01*
X032101Y001855D02*
X018288Y001855D01*
X018442Y001616D02*
X031947Y001616D01*
X031884Y001378D02*
X018505Y001378D01*
X018505Y001139D02*
X031884Y001139D01*
X031983Y000901D02*
X018406Y000901D01*
X018202Y000662D02*
X032187Y000662D01*
X035604Y008533D02*
X038289Y008533D01*
X038289Y008771D02*
X035658Y008771D01*
X035658Y009010D02*
X038289Y009010D01*
X038289Y009248D02*
X035658Y009248D01*
X035658Y009487D02*
X038289Y009487D01*
X038289Y009725D02*
X035658Y009725D01*
X035658Y009964D02*
X038289Y009964D01*
X038289Y010202D02*
X035658Y010202D01*
X035639Y010441D02*
X038289Y010441D01*
X038289Y010679D02*
X028505Y010679D01*
X028459Y010660D02*
X028627Y010730D01*
X028756Y010859D01*
X028826Y011027D01*
X028826Y011209D01*
X028756Y011378D01*
X028627Y011506D01*
X028459Y011576D01*
X028277Y011576D01*
X028108Y011506D01*
X027979Y011378D01*
X027910Y011209D01*
X027910Y011027D01*
X027979Y010859D01*
X028108Y010730D01*
X028277Y010660D01*
X028459Y010660D01*
X028470Y010624D02*
X028402Y010635D01*
X028368Y010635D01*
X028368Y010197D01*
X028806Y010197D01*
X028806Y010231D01*
X028795Y010299D01*
X028774Y010365D01*
X028742Y010426D01*
X028702Y010482D01*
X028653Y010531D01*
X028597Y010572D01*
X028536Y010603D01*
X028470Y010624D01*
X028368Y010635D02*
X028333Y010635D01*
X028265Y010624D01*
X028200Y010603D01*
X028138Y010572D01*
X028082Y010531D01*
X028034Y010482D01*
X027993Y010426D01*
X027962Y010365D01*
X027940Y010299D01*
X027930Y010231D01*
X027930Y010197D01*
X028368Y010197D01*
X028368Y010197D01*
X028368Y010197D01*
X028806Y010197D01*
X028806Y010162D01*
X028795Y010094D01*
X028774Y010029D01*
X028742Y009967D01*
X028702Y009911D01*
X028653Y009863D01*
X028597Y009822D01*
X028536Y009791D01*
X028470Y009770D01*
X028402Y009759D01*
X028368Y009759D01*
X028368Y010197D01*
X028368Y010635D01*
X028231Y010679D02*
X027713Y010679D01*
X027713Y010441D02*
X028003Y010441D01*
X027930Y010202D02*
X027713Y010202D01*
X027930Y010197D02*
X027930Y010162D01*
X027940Y010094D01*
X027962Y010029D01*
X027993Y009967D01*
X028034Y009911D01*
X028082Y009863D01*
X028138Y009822D01*
X028200Y009791D01*
X028265Y009770D01*
X028333Y009759D01*
X028368Y009759D01*
X028368Y010197D01*
X028368Y010197D01*
X028368Y010197D01*
X027930Y010197D01*
X027996Y009964D02*
X027713Y009964D01*
X027713Y009725D02*
X028256Y009725D01*
X028480Y009725D02*
X033518Y009725D01*
X033518Y009487D02*
X028776Y009487D01*
X028826Y009248D02*
X033518Y009248D01*
X033518Y009010D02*
X028750Y009010D01*
X028740Y009964D02*
X033518Y009964D01*
X033518Y010202D02*
X028806Y010202D01*
X028732Y010441D02*
X033538Y010441D01*
X033154Y011114D02*
X032856Y010990D01*
X032533Y010990D01*
X032235Y011114D01*
X032007Y011342D01*
X031884Y011640D01*
X031884Y011878D01*
X031636Y011878D01*
X031330Y012005D01*
X031097Y012238D01*
X030970Y012543D01*
X030970Y012874D01*
X031097Y013179D01*
X031330Y013413D01*
X031636Y013539D01*
X031966Y013539D01*
X032271Y013413D01*
X032505Y013179D01*
X032631Y012874D01*
X032631Y012612D01*
X032856Y012612D01*
X033154Y012489D01*
X033382Y012260D01*
X033505Y011962D01*
X033505Y011640D01*
X033382Y011342D01*
X033154Y011114D01*
X033196Y011156D02*
X038289Y011156D01*
X038289Y010918D02*
X028780Y010918D01*
X028826Y011156D02*
X032193Y011156D01*
X031985Y011395D02*
X028739Y011395D01*
X027996Y011395D02*
X027713Y011395D01*
X027713Y011633D02*
X031886Y011633D01*
X031884Y011872D02*
X027713Y011872D01*
X027713Y012110D02*
X031225Y012110D01*
X031051Y012349D02*
X027713Y012349D01*
X027713Y012587D02*
X030970Y012587D01*
X030970Y012826D02*
X027713Y012826D01*
X027713Y013064D02*
X031049Y013064D01*
X031220Y013303D02*
X027713Y013303D01*
X027713Y013541D02*
X038289Y013541D01*
X038289Y013303D02*
X032381Y013303D01*
X032553Y013064D02*
X038289Y013064D01*
X038289Y012826D02*
X032631Y012826D01*
X032916Y012587D02*
X038289Y012587D01*
X038289Y012349D02*
X033294Y012349D01*
X033444Y012110D02*
X038289Y012110D01*
X038289Y011872D02*
X033505Y011872D01*
X033503Y011633D02*
X038289Y011633D01*
X038289Y011395D02*
X033404Y011395D01*
X038289Y013780D02*
X027713Y013780D01*
X027713Y014018D02*
X038289Y014018D01*
X038289Y014257D02*
X027713Y014257D01*
X027713Y014495D02*
X038289Y014495D01*
X038289Y014734D02*
X027713Y014734D01*
X027713Y014972D02*
X038289Y014972D01*
X031878Y015449D02*
X031724Y015449D01*
X031724Y015688D02*
X031878Y015688D01*
X035509Y019981D02*
X038289Y019981D01*
X038289Y020219D02*
X035540Y020219D01*
X035540Y020458D02*
X038289Y020458D01*
X038289Y020696D02*
X035540Y020696D01*
X035540Y020935D02*
X038289Y020935D01*
X038289Y021173D02*
X035540Y021173D01*
X035540Y021412D02*
X038289Y021412D01*
X027910Y011156D02*
X027713Y011156D01*
X027713Y010918D02*
X027955Y010918D01*
X028368Y010441D02*
X028368Y010441D01*
X028368Y010202D02*
X028368Y010202D01*
X028368Y009964D02*
X028368Y009964D01*
X000987Y002093D02*
X000533Y002093D01*
X000533Y001855D02*
X000601Y001855D01*
D21*
X025061Y003846D03*
X029470Y004594D03*
X030257Y005303D03*
X028604Y007469D03*
X025100Y006091D03*
X031911Y007469D03*
X036439Y007862D03*
X026320Y012823D03*
X025257Y010854D03*
X021675Y015736D03*
X019982Y017508D03*
X021163Y018413D03*
X023604Y018098D03*
X024549Y018925D03*
X023722Y019161D03*
X021202Y021051D03*
X020769Y021406D03*
X016872Y020894D03*
X015376Y019988D03*
X014667Y018571D03*
X011202Y016878D03*
X007069Y019240D03*
X002147Y016209D03*
X024785Y016209D03*
X036084Y017547D03*
X036557Y001799D03*
D22*
X034037Y002626D02*
X031635Y002626D01*
X031608Y002661D01*
X031578Y002694D01*
X031545Y002723D01*
X031509Y002750D01*
X031472Y002773D01*
X031432Y002793D01*
X031391Y002810D01*
X031349Y002823D01*
X031306Y002832D01*
X031262Y002837D01*
X031217Y002839D01*
X031173Y002837D01*
X031129Y002830D01*
X031086Y002820D01*
X031044Y002807D01*
X031003Y002789D01*
X030964Y002769D01*
X030927Y002744D01*
X008525Y002744D01*
X008397Y002756D01*
X008270Y002771D01*
X008143Y002789D01*
X008017Y002812D01*
X007891Y002839D01*
X007767Y002869D01*
X007643Y002904D01*
X007521Y002942D01*
X007399Y002984D01*
X007279Y003029D01*
X007161Y003079D01*
X007044Y003132D01*
X006929Y003188D01*
X006816Y003248D01*
X006704Y003312D01*
X006595Y003378D01*
X006488Y003449D01*
X006382Y003522D01*
X006280Y003599D01*
X006179Y003679D01*
X006081Y003761D01*
X005986Y003847D01*
X005893Y003936D01*
X005804Y004027D01*
X005717Y004122D01*
X005633Y004219D01*
X005552Y004318D01*
X005474Y004420D01*
X005399Y004524D01*
X005327Y004631D01*
X005259Y004739D01*
X005195Y004850D01*
X005133Y004963D01*
X005075Y005077D01*
X005021Y005193D01*
X004970Y005311D01*
X004923Y005430D01*
X004880Y005551D01*
X004840Y005673D01*
X004804Y005796D01*
X004772Y005920D01*
X004744Y006045D01*
X004720Y006171D01*
X004699Y006298D01*
X004683Y006425D01*
X004670Y006553D01*
X004662Y006681D01*
X004657Y006809D01*
X004656Y006937D01*
X004659Y007065D01*
X004666Y007193D01*
X004667Y007193D02*
X004667Y017114D01*
X003100Y016098D02*
X003100Y018185D01*
X002147Y016209D02*
X002147Y015815D01*
X001517Y015815D01*
X002147Y015815D02*
X002817Y015815D01*
X002849Y015817D01*
X002880Y015822D01*
X002910Y015831D01*
X002940Y015843D01*
X002968Y015858D01*
X002993Y015877D01*
X003017Y015898D01*
X003038Y015922D01*
X003057Y015947D01*
X003072Y015975D01*
X003084Y016005D01*
X003093Y016035D01*
X003098Y016066D01*
X003100Y016098D01*
X001517Y015815D02*
X001477Y015817D01*
X001437Y015822D01*
X001399Y015832D01*
X001361Y015844D01*
X001324Y015860D01*
X001289Y015880D01*
X001256Y015902D01*
X001225Y015928D01*
X001197Y015956D01*
X001171Y015987D01*
X001149Y016020D01*
X001129Y016055D01*
X001113Y016092D01*
X001101Y016130D01*
X001091Y016168D01*
X001086Y016208D01*
X001084Y016248D01*
X001084Y020169D01*
X001085Y020175D01*
X001089Y020180D01*
X001094Y020184D01*
X001100Y020185D01*
X001100Y021185D02*
X002100Y021185D01*
X010218Y018610D02*
X014628Y018610D01*
X014667Y018571D01*
X016872Y020894D02*
X021045Y020894D01*
X021067Y020896D01*
X021089Y020900D01*
X021110Y020908D01*
X021130Y020919D01*
X021148Y020932D01*
X021164Y020948D01*
X021177Y020966D01*
X021188Y020986D01*
X021196Y021007D01*
X021200Y021029D01*
X021202Y021051D01*
X020769Y021406D02*
X023565Y021406D01*
X023880Y021091D01*
X023880Y019398D01*
X024037Y019240D01*
X023801Y019240D01*
X023722Y019161D01*
X024785Y016209D02*
X022147Y016209D01*
X021675Y015736D01*
X034037Y002626D02*
X034093Y002628D01*
X034148Y002633D01*
X034203Y002642D01*
X034257Y002655D01*
X034310Y002671D01*
X034362Y002691D01*
X034413Y002714D01*
X034462Y002740D01*
X034509Y002769D01*
X034554Y002802D01*
X034597Y002837D01*
X034638Y002875D01*
X034676Y002916D01*
X034711Y002959D01*
X034744Y003004D01*
X034773Y003051D01*
X034799Y003100D01*
X034822Y003151D01*
X034842Y003203D01*
X034858Y003256D01*
X034871Y003310D01*
X034880Y003365D01*
X034885Y003420D01*
X034887Y003476D01*
D23*
X030257Y005303D02*
X030179Y005854D01*
X030179Y006720D01*
X029943Y006957D01*
X028407Y006957D01*
X027423Y007941D01*
X027423Y016130D01*
X024628Y018925D01*
X024549Y018925D01*
X024864Y018217D02*
X023604Y018098D01*
X024864Y018217D02*
X026950Y016130D01*
X026950Y007862D01*
X028368Y006445D01*
X028368Y005697D01*
X029470Y004594D01*
X028604Y007469D02*
X031911Y007469D01*
X021163Y017469D02*
X020612Y016917D01*
X011242Y016917D01*
X011202Y016878D01*
X007777Y017508D02*
X019982Y017508D01*
X021163Y017469D02*
X021163Y018413D01*
X007777Y018531D02*
X007777Y017508D01*
X007777Y018531D02*
X007069Y019240D01*
X005139Y020106D02*
X005139Y020657D01*
X004313Y020185D02*
X004100Y020185D01*
X004313Y020185D02*
X004346Y020183D01*
X004378Y020178D01*
X004410Y020170D01*
X004441Y020158D01*
X004471Y020143D01*
X004498Y020125D01*
X004524Y020104D01*
X004547Y020081D01*
X004568Y020055D01*
X004586Y020028D01*
X004601Y019998D01*
X004613Y019967D01*
X004621Y019935D01*
X004626Y019903D01*
X004628Y019870D01*
X004628Y017154D01*
X004629Y017144D01*
X004633Y017135D01*
X004639Y017126D01*
X004648Y017120D01*
X004657Y017116D01*
X004667Y017115D01*
X003643Y020697D02*
X006612Y020697D01*
X007100Y021185D01*
X003643Y020697D02*
X003155Y021185D01*
X003100Y021185D01*
D24*
X009100Y021185D02*
X009143Y021183D01*
X009185Y021178D01*
X009226Y021168D01*
X009267Y021156D01*
X009306Y021139D01*
X009344Y021120D01*
X009380Y021097D01*
X009414Y021071D01*
X009445Y021042D01*
X009474Y021011D01*
X009500Y020977D01*
X009523Y020941D01*
X009542Y020903D01*
X009559Y020864D01*
X009571Y020823D01*
X009581Y020782D01*
X009586Y020740D01*
X009588Y020697D01*
X009588Y020146D01*
X009100Y020185D02*
X009100Y019728D01*
X009102Y019663D01*
X009108Y019598D01*
X009117Y019534D01*
X009130Y019470D01*
X009147Y019407D01*
X009167Y019346D01*
X009191Y019285D01*
X009219Y019226D01*
X009250Y019169D01*
X009284Y019114D01*
X009321Y019060D01*
X009362Y019009D01*
X009405Y018961D01*
X009451Y018915D01*
X009499Y018872D01*
X009550Y018831D01*
X009604Y018794D01*
X009659Y018760D01*
X009716Y018729D01*
X009775Y018701D01*
X009836Y018677D01*
X009897Y018657D01*
X009960Y018640D01*
X010024Y018627D01*
X010088Y018618D01*
X010153Y018612D01*
X010218Y018610D01*
X010376Y019358D02*
X011596Y019358D01*
X010376Y019359D02*
X010322Y019361D01*
X010269Y019366D01*
X010216Y019375D01*
X010164Y019388D01*
X010112Y019404D01*
X010062Y019424D01*
X010014Y019447D01*
X009967Y019474D01*
X009922Y019503D01*
X009879Y019536D01*
X009839Y019571D01*
X009801Y019609D01*
X009766Y019649D01*
X009733Y019692D01*
X009704Y019737D01*
X009677Y019784D01*
X009654Y019832D01*
X009634Y019882D01*
X009618Y019934D01*
X009605Y019986D01*
X009596Y020039D01*
X009591Y020092D01*
X009589Y020146D01*
D25*
X011596Y019358D03*
D26*
X034470Y020933D03*
X034588Y009516D03*
M02*
