G75*
%MOIN*%
%OFA0B0*%
%FSLAX24Y24*%
%IPPOS*%
%LPD*%
%AMOC8*
5,1,8,0,0,1.08239X$1,22.5*
%
%ADD10C,0.0000*%
%ADD11C,0.0060*%
%ADD12C,0.0160*%
%ADD13C,0.0300*%
%ADD14C,0.0070*%
%ADD15C,0.0080*%
%ADD16C,0.0050*%
%ADD17C,0.0040*%
%ADD18C,0.0500*%
%ADD19C,0.0240*%
%ADD20C,0.0100*%
%ADD21C,0.0860*%
%ADD22R,0.0012X0.0001*%
%ADD23R,0.0015X0.0001*%
%ADD24R,0.0018X0.0001*%
%ADD25R,0.0021X0.0001*%
%ADD26R,0.0026X0.0002*%
%ADD27R,0.0030X0.0001*%
%ADD28R,0.0036X0.0001*%
%ADD29R,0.0039X0.0001*%
%ADD30R,0.0041X0.0001*%
%ADD31R,0.0042X0.0001*%
%ADD32R,0.0044X0.0001*%
%ADD33R,0.0045X0.0001*%
%ADD34R,0.0045X0.0002*%
%ADD35R,0.0007X0.0001*%
%ADD36R,0.0001X0.0001*%
%ADD37R,0.0006X0.0001*%
%ADD38R,0.0004X0.0001*%
%ADD39R,0.0006X0.0001*%
%ADD40R,0.0002X0.0001*%
%ADD41R,0.0003X0.0001*%
%ADD42R,0.0005X0.0001*%
%ADD43R,0.0049X0.0001*%
%ADD44R,0.0046X0.0001*%
%ADD45R,0.0003X0.0001*%
%ADD46R,0.0048X0.0001*%
%ADD47R,0.0022X0.0002*%
%ADD48R,0.0019X0.0002*%
%ADD49R,0.0025X0.0002*%
%ADD50R,0.0006X0.0002*%
%ADD51R,0.0009X0.0002*%
%ADD52R,0.0055X0.0002*%
%ADD53R,0.0048X0.0002*%
%ADD54R,0.0054X0.0002*%
%ADD55R,0.0056X0.0002*%
%ADD56R,0.0032X0.0001*%
%ADD57R,0.0031X0.0001*%
%ADD58R,0.0010X0.0001*%
%ADD59R,0.0059X0.0001*%
%ADD60R,0.0060X0.0001*%
%ADD61R,0.0051X0.0001*%
%ADD62R,0.0051X0.0001*%
%ADD63R,0.0014X0.0001*%
%ADD64R,0.0038X0.0001*%
%ADD65R,0.0013X0.0001*%
%ADD66R,0.0063X0.0001*%
%ADD67R,0.0016X0.0001*%
%ADD68R,0.0066X0.0001*%
%ADD69R,0.0056X0.0001*%
%ADD70R,0.0063X0.0001*%
%ADD71R,0.0066X0.0001*%
%ADD72R,0.0011X0.0001*%
%ADD73R,0.0012X0.0001*%
%ADD74R,0.0018X0.0001*%
%ADD75R,0.0065X0.0001*%
%ADD76R,0.0019X0.0001*%
%ADD77R,0.0071X0.0001*%
%ADD78R,0.0068X0.0001*%
%ADD79R,0.0062X0.0001*%
%ADD80R,0.0061X0.0001*%
%ADD81R,0.0023X0.0001*%
%ADD82R,0.0079X0.0001*%
%ADD83R,0.0064X0.0001*%
%ADD84R,0.0021X0.0001*%
%ADD85R,0.0076X0.0001*%
%ADD86R,0.0074X0.0001*%
%ADD87R,0.0123X0.0001*%
%ADD88R,0.0072X0.0001*%
%ADD89R,0.0024X0.0001*%
%ADD90R,0.0026X0.0001*%
%ADD91R,0.0025X0.0001*%
%ADD92R,0.0075X0.0001*%
%ADD93R,0.0086X0.0001*%
%ADD94R,0.0027X0.0001*%
%ADD95R,0.0081X0.0001*%
%ADD96R,0.0126X0.0001*%
%ADD97R,0.0029X0.0001*%
%ADD98R,0.0028X0.0001*%
%ADD99R,0.0033X0.0001*%
%ADD100R,0.0090X0.0001*%
%ADD101R,0.0157X0.0001*%
%ADD102R,0.0078X0.0001*%
%ADD103R,0.0091X0.0001*%
%ADD104R,0.0085X0.0001*%
%ADD105R,0.0129X0.0001*%
%ADD106R,0.0033X0.0001*%
%ADD107R,0.0081X0.0001*%
%ADD108R,0.0034X0.0001*%
%ADD109R,0.0094X0.0001*%
%ADD110R,0.0160X0.0001*%
%ADD111R,0.0088X0.0001*%
%ADD112R,0.0131X0.0001*%
%ADD113R,0.0089X0.0001*%
%ADD114R,0.0035X0.0001*%
%ADD115R,0.0083X0.0001*%
%ADD116R,0.0098X0.0001*%
%ADD117R,0.0164X0.0001*%
%ADD118R,0.0092X0.0001*%
%ADD119R,0.0132X0.0001*%
%ADD120R,0.0037X0.0001*%
%ADD121R,0.0084X0.0001*%
%ADD122R,0.0036X0.0001*%
%ADD123R,0.0101X0.0001*%
%ADD124R,0.0166X0.0001*%
%ADD125R,0.0099X0.0001*%
%ADD126R,0.0096X0.0002*%
%ADD127R,0.0134X0.0002*%
%ADD128R,0.0041X0.0002*%
%ADD129R,0.0031X0.0002*%
%ADD130R,0.0030X0.0002*%
%ADD131R,0.0084X0.0002*%
%ADD132R,0.0036X0.0002*%
%ADD133R,0.0033X0.0002*%
%ADD134R,0.0104X0.0002*%
%ADD135R,0.0170X0.0002*%
%ADD136R,0.0102X0.0001*%
%ADD137R,0.0136X0.0001*%
%ADD138R,0.0108X0.0001*%
%ADD139R,0.0173X0.0001*%
%ADD140R,0.0106X0.0001*%
%ADD141R,0.0141X0.0001*%
%ADD142R,0.0087X0.0001*%
%ADD143R,0.0111X0.0001*%
%ADD144R,0.0176X0.0001*%
%ADD145R,0.0109X0.0001*%
%ADD146R,0.0112X0.0001*%
%ADD147R,0.0142X0.0001*%
%ADD148R,0.0114X0.0001*%
%ADD149R,0.0177X0.0001*%
%ADD150R,0.0115X0.0001*%
%ADD151R,0.0144X0.0001*%
%ADD152R,0.0048X0.0001*%
%ADD153R,0.0117X0.0001*%
%ADD154R,0.0179X0.0001*%
%ADD155R,0.0118X0.0001*%
%ADD156R,0.0146X0.0001*%
%ADD157R,0.0120X0.0001*%
%ADD158R,0.0180X0.0001*%
%ADD159R,0.0119X0.0001*%
%ADD160R,0.0122X0.0001*%
%ADD161R,0.0181X0.0001*%
%ADD162R,0.0125X0.0001*%
%ADD163R,0.0147X0.0001*%
%ADD164R,0.0121X0.0001*%
%ADD165R,0.0126X0.0001*%
%ADD166R,0.0149X0.0001*%
%ADD167R,0.0093X0.0001*%
%ADD168R,0.0129X0.0001*%
%ADD169R,0.0184X0.0001*%
%ADD170R,0.0151X0.0001*%
%ADD171R,0.0128X0.0001*%
%ADD172R,0.0093X0.0001*%
%ADD173R,0.0187X0.0001*%
%ADD174R,0.0132X0.0002*%
%ADD175R,0.0153X0.0002*%
%ADD176R,0.0131X0.0002*%
%ADD177R,0.0046X0.0002*%
%ADD178R,0.0048X0.0002*%
%ADD179R,0.0094X0.0002*%
%ADD180R,0.0034X0.0002*%
%ADD181R,0.0189X0.0002*%
%ADD182R,0.0091X0.0002*%
%ADD183R,0.0134X0.0001*%
%ADD184R,0.0154X0.0001*%
%ADD185R,0.0057X0.0001*%
%ADD186R,0.0027X0.0001*%
%ADD187R,0.0190X0.0001*%
%ADD188R,0.0054X0.0001*%
%ADD189R,0.0053X0.0001*%
%ADD190R,0.0054X0.0001*%
%ADD191R,0.0139X0.0001*%
%ADD192R,0.0156X0.0001*%
%ADD193R,0.0052X0.0001*%
%ADD194R,0.0043X0.0001*%
%ADD195R,0.0039X0.0001*%
%ADD196R,0.0040X0.0001*%
%ADD197R,0.0147X0.0001*%
%ADD198R,0.0159X0.0001*%
%ADD199R,0.0145X0.0001*%
%ADD200R,0.0042X0.0001*%
%ADD201R,0.0047X0.0001*%
%ADD202R,0.0150X0.0001*%
%ADD203R,0.0161X0.0001*%
%ADD204R,0.0162X0.0001*%
%ADD205R,0.0153X0.0002*%
%ADD206R,0.0164X0.0002*%
%ADD207R,0.0151X0.0002*%
%ADD208R,0.0042X0.0002*%
%ADD209R,0.0038X0.0002*%
%ADD210R,0.0040X0.0002*%
%ADD211R,0.0069X0.0001*%
%ADD212R,0.0067X0.0001*%
%ADD213R,0.0069X0.0001*%
%ADD214R,0.0054X0.0002*%
%ADD215R,0.0051X0.0002*%
%ADD216R,0.0052X0.0002*%
%ADD217R,0.0035X0.0002*%
%ADD218R,0.0036X0.0002*%
%ADD219R,0.0032X0.0002*%
%ADD220R,0.0037X0.0002*%
%ADD221R,0.0039X0.0002*%
%ADD222R,0.0059X0.0002*%
%ADD223R,0.0042X0.0002*%
%ADD224R,0.0060X0.0002*%
%ADD225R,0.0061X0.0002*%
%ADD226R,0.0012X0.0002*%
%ADD227R,0.0008X0.0001*%
%ADD228R,0.0070X0.0001*%
%ADD229R,0.0072X0.0001*%
%ADD230R,0.0078X0.0001*%
%ADD231R,0.0082X0.0001*%
%ADD232R,0.0024X0.0001*%
%ADD233R,0.0089X0.0002*%
%ADD234R,0.0018X0.0002*%
%ADD235R,0.0079X0.0002*%
%ADD236R,0.0076X0.0002*%
%ADD237R,0.0096X0.0001*%
%ADD238R,0.0097X0.0001*%
%ADD239R,0.0087X0.0001*%
%ADD240R,0.0105X0.0001*%
%ADD241R,0.0108X0.0001*%
%ADD242R,0.0110X0.0001*%
%ADD243R,0.0113X0.0001*%
%ADD244R,0.0116X0.0001*%
%ADD245R,0.0117X0.0001*%
%ADD246R,0.0124X0.0002*%
%ADD247R,0.0114X0.0002*%
%ADD248R,0.0112X0.0002*%
%ADD249R,0.0129X0.0002*%
%ADD250R,0.0127X0.0001*%
%ADD251R,0.0084X0.0001*%
%ADD252R,0.0103X0.0001*%
%ADD253R,0.0096X0.0001*%
%ADD254R,0.0153X0.0001*%
%ADD255R,0.0156X0.0002*%
%ADD256R,0.0080X0.0002*%
%ADD257R,0.0081X0.0002*%
%ADD258R,0.0165X0.0001*%
%ADD259R,0.0055X0.0001*%
%ADD260R,0.0100X0.0001*%
%ADD261R,0.0009X0.0001*%
%ADD262R,0.0022X0.0001*%
%ADD263R,0.0044X0.0002*%
%ADD264R,0.0029X0.0002*%
%ADD265R,0.0057X0.0002*%
%ADD266R,0.0033X0.0002*%
%ADD267R,0.0049X0.0002*%
%ADD268R,0.0039X0.0002*%
%ADD269R,0.0053X0.0002*%
%ADD270R,0.0043X0.0002*%
%ADD271R,0.0058X0.0001*%
%ADD272R,0.0124X0.0001*%
%ADD273R,0.0144X0.0001*%
%ADD274R,0.0152X0.0001*%
%ADD275R,0.0155X0.0001*%
%ADD276R,0.0123X0.0001*%
%ADD277R,0.0153X0.0001*%
%ADD278R,0.0150X0.0002*%
%ADD279R,0.0139X0.0002*%
%ADD280R,0.0119X0.0002*%
%ADD281R,0.0120X0.0002*%
%ADD282R,0.0141X0.0002*%
%ADD283R,0.0118X0.0002*%
%ADD284R,0.0138X0.0001*%
%ADD285R,0.0114X0.0001*%
%ADD286R,0.0133X0.0001*%
%ADD287R,0.0132X0.0001*%
%ADD288R,0.0130X0.0001*%
%ADD289R,0.0104X0.0001*%
%ADD290R,0.0099X0.0001*%
%ADD291R,0.0135X0.0001*%
%ADD292R,0.0095X0.0001*%
%ADD293R,0.0126X0.0002*%
%ADD294R,0.0128X0.0002*%
%ADD295R,0.0082X0.0002*%
%ADD296R,0.0121X0.0002*%
%ADD297R,0.0024X0.0002*%
%ADD298R,0.0024X0.0002*%
%ADD299R,0.0081X0.0002*%
%ADD300R,0.0020X0.0001*%
%ADD301R,0.0017X0.0001*%
%ADD302R,0.0057X0.0001*%
%ADD303R,0.0090X0.0002*%
%ADD304R,0.0006X0.0002*%
%ADD305R,0.0050X0.0001*%
%ADD306R,0.0075X0.0002*%
%ADD307R,0.0158X0.0002*%
%ADD308R,0.0109X0.0002*%
%ADD309R,0.0168X0.0001*%
%ADD310R,0.0171X0.0001*%
%ADD311R,0.0172X0.0001*%
%ADD312R,0.0175X0.0001*%
%ADD313R,0.0186X0.0001*%
%ADD314R,0.0191X0.0001*%
%ADD315R,0.0194X0.0001*%
%ADD316R,0.0196X0.0002*%
%ADD317R,0.0149X0.0002*%
%ADD318R,0.0199X0.0001*%
%ADD319R,0.0204X0.0001*%
%ADD320R,0.0207X0.0001*%
%ADD321R,0.0158X0.0001*%
%ADD322R,0.0211X0.0001*%
%ADD323R,0.0216X0.0001*%
%ADD324R,0.0219X0.0001*%
%ADD325R,0.0169X0.0001*%
%ADD326R,0.0222X0.0001*%
%ADD327R,0.0224X0.0001*%
%ADD328R,0.0228X0.0001*%
%ADD329R,0.0234X0.0002*%
%ADD330R,0.0183X0.0002*%
%ADD331R,0.0239X0.0001*%
%ADD332R,0.0189X0.0001*%
%ADD333R,0.0241X0.0001*%
%ADD334R,0.0192X0.0001*%
%ADD335R,0.0243X0.0001*%
%ADD336R,0.0246X0.0001*%
%ADD337R,0.0196X0.0001*%
%ADD338R,0.0250X0.0001*%
%ADD339R,0.0201X0.0001*%
%ADD340R,0.0254X0.0001*%
%ADD341R,0.0258X0.0001*%
%ADD342R,0.0209X0.0001*%
%ADD343R,0.0263X0.0001*%
%ADD344R,0.0213X0.0001*%
%ADD345R,0.0267X0.0001*%
%ADD346R,0.0270X0.0002*%
%ADD347R,0.0066X0.0002*%
%ADD348R,0.0219X0.0002*%
%ADD349R,0.0271X0.0001*%
%ADD350R,0.0220X0.0001*%
%ADD351R,0.0274X0.0001*%
%ADD352R,0.0223X0.0001*%
%ADD353R,0.0278X0.0001*%
%ADD354R,0.0282X0.0001*%
%ADD355R,0.0231X0.0001*%
%ADD356R,0.0288X0.0001*%
%ADD357R,0.0236X0.0001*%
%ADD358R,0.0289X0.0001*%
%ADD359R,0.0292X0.0001*%
%ADD360R,0.0297X0.0001*%
%ADD361R,0.0300X0.0001*%
%ADD362R,0.0305X0.0002*%
%ADD363R,0.0101X0.0002*%
%ADD364R,0.0078X0.0002*%
%ADD365R,0.0251X0.0002*%
%ADD366R,0.0309X0.0001*%
%ADD367R,0.0255X0.0001*%
%ADD368R,0.0314X0.0001*%
%ADD369R,0.0316X0.0001*%
%ADD370R,0.0262X0.0001*%
%ADD371R,0.0319X0.0001*%
%ADD372R,0.0266X0.0001*%
%ADD373R,0.0321X0.0001*%
%ADD374R,0.0324X0.0001*%
%ADD375R,0.0270X0.0001*%
%ADD376R,0.0329X0.0001*%
%ADD377R,0.0275X0.0001*%
%ADD378R,0.0333X0.0001*%
%ADD379R,0.0279X0.0001*%
%ADD380R,0.0336X0.0001*%
%ADD381R,0.0284X0.0001*%
%ADD382R,0.0339X0.0002*%
%ADD383R,0.0286X0.0002*%
%ADD384R,0.0342X0.0001*%
%ADD385R,0.0491X0.0001*%
%ADD386R,0.0492X0.0001*%
%ADD387R,0.0294X0.0001*%
%ADD388R,0.0495X0.0001*%
%ADD389R,0.0299X0.0001*%
%ADD390R,0.0496X0.0001*%
%ADD391R,0.0301X0.0001*%
%ADD392R,0.0498X0.0001*%
%ADD393R,0.0304X0.0001*%
%ADD394R,0.0501X0.0001*%
%ADD395R,0.0308X0.0001*%
%ADD396R,0.0311X0.0001*%
%ADD397R,0.0504X0.0001*%
%ADD398R,0.0504X0.0002*%
%ADD399R,0.0318X0.0002*%
%ADD400R,0.0507X0.0001*%
%ADD401R,0.0323X0.0001*%
%ADD402R,0.0326X0.0001*%
%ADD403R,0.0508X0.0001*%
%ADD404R,0.0330X0.0001*%
%ADD405R,0.0510X0.0001*%
%ADD406R,0.0494X0.0001*%
%ADD407R,0.0512X0.0001*%
%ADD408R,0.0500X0.0001*%
%ADD409R,0.0513X0.0001*%
%ADD410R,0.0501X0.0001*%
%ADD411R,0.0513X0.0002*%
%ADD412R,0.0501X0.0002*%
%ADD413R,0.0503X0.0001*%
%ADD414R,0.0504X0.0001*%
%ADD415R,0.0506X0.0001*%
%ADD416R,0.0513X0.0001*%
%ADD417R,0.0509X0.0001*%
%ADD418R,0.0511X0.0001*%
%ADD419R,0.0514X0.0001*%
%ADD420R,0.0516X0.0001*%
%ADD421R,0.0513X0.0002*%
%ADD422R,0.0519X0.0002*%
%ADD423R,0.0519X0.0001*%
%ADD424R,0.0520X0.0001*%
%ADD425R,0.0522X0.0001*%
%ADD426R,0.0507X0.0001*%
%ADD427R,0.0509X0.0002*%
%ADD428R,0.0520X0.0002*%
%ADD429R,0.0522X0.0001*%
%ADD430R,0.0505X0.0001*%
%ADD431R,0.0502X0.0001*%
%ADD432R,0.0521X0.0001*%
%ADD433R,0.0503X0.0002*%
%ADD434R,0.0519X0.0002*%
%ADD435R,0.0519X0.0001*%
%ADD436R,0.0499X0.0001*%
%ADD437R,0.0517X0.0001*%
%ADD438R,0.0495X0.0002*%
%ADD439R,0.0514X0.0002*%
%ADD440R,0.0515X0.0001*%
%ADD441R,0.0492X0.0001*%
%ADD442R,0.0490X0.0001*%
%ADD443R,0.0490X0.0002*%
%ADD444R,0.0511X0.0002*%
%ADD445R,0.0489X0.0001*%
%ADD446R,0.0489X0.0001*%
%ADD447R,0.0488X0.0001*%
%ADD448R,0.0485X0.0001*%
%ADD449R,0.0483X0.0001*%
%ADD450R,0.0483X0.0002*%
%ADD451R,0.0507X0.0002*%
%ADD452R,0.0483X0.0001*%
%ADD453R,0.0481X0.0001*%
%ADD454R,0.0480X0.0001*%
%ADD455R,0.0480X0.0002*%
%ADD456R,0.0501X0.0002*%
%ADD457R,0.0479X0.0001*%
%ADD458R,0.0477X0.0001*%
%ADD459R,0.0477X0.0001*%
%ADD460R,0.0475X0.0001*%
%ADD461R,0.0474X0.0001*%
%ADD462R,0.0472X0.0001*%
%ADD463R,0.0472X0.0002*%
%ADD464R,0.0498X0.0002*%
%ADD465R,0.0471X0.0001*%
%ADD466R,0.0473X0.0001*%
%ADD467R,0.0471X0.0001*%
%ADD468R,0.0470X0.0001*%
%ADD469R,0.0468X0.0001*%
%ADD470R,0.0469X0.0001*%
%ADD471R,0.0468X0.0002*%
%ADD472R,0.0491X0.0002*%
%ADD473R,0.0466X0.0001*%
%ADD474R,0.0465X0.0001*%
%ADD475R,0.0464X0.0001*%
%ADD476R,0.0462X0.0001*%
%ADD477R,0.0462X0.0002*%
%ADD478R,0.0489X0.0002*%
%ADD479R,0.0461X0.0001*%
%ADD480R,0.0460X0.0001*%
%ADD481R,0.0459X0.0001*%
%ADD482R,0.0484X0.0001*%
%ADD483R,0.0457X0.0001*%
%ADD484R,0.0459X0.0001*%
%ADD485R,0.0458X0.0002*%
%ADD486R,0.0484X0.0002*%
%ADD487R,0.0456X0.0001*%
%ADD488R,0.0455X0.0001*%
%ADD489R,0.0453X0.0001*%
%ADD490R,0.0451X0.0001*%
%ADD491R,0.0453X0.0001*%
%ADD492R,0.0450X0.0001*%
%ADD493R,0.0451X0.0002*%
%ADD494R,0.0478X0.0001*%
%ADD495R,0.0449X0.0001*%
%ADD496R,0.0476X0.0001*%
%ADD497R,0.0447X0.0001*%
%ADD498R,0.0474X0.0001*%
%ADD499R,0.0449X0.0002*%
%ADD500R,0.0476X0.0002*%
%ADD501R,0.0454X0.0001*%
%ADD502R,0.0469X0.0002*%
%ADD503R,0.0468X0.0001*%
%ADD504R,0.0467X0.0001*%
%ADD505R,0.0473X0.0002*%
%ADD506R,0.0468X0.0002*%
%ADD507R,0.0486X0.0002*%
%ADD508R,0.0474X0.0002*%
%ADD509R,0.0487X0.0001*%
%ADD510R,0.0497X0.0001*%
%ADD511R,0.0486X0.0001*%
%ADD512R,0.0500X0.0002*%
%ADD513R,0.0487X0.0002*%
%ADD514R,0.0498X0.0001*%
%ADD515R,0.0524X0.0002*%
%ADD516R,0.0524X0.0001*%
%ADD517R,0.0525X0.0001*%
%ADD518R,0.0528X0.0001*%
%ADD519R,0.0529X0.0001*%
%ADD520R,0.0533X0.0001*%
%ADD521R,0.0534X0.0001*%
%ADD522R,0.0523X0.0001*%
%ADD523R,0.0536X0.0001*%
%ADD524R,0.0537X0.0002*%
%ADD525R,0.0527X0.0002*%
%ADD526R,0.0537X0.0001*%
%ADD527R,0.0528X0.0001*%
%ADD528R,0.0539X0.0001*%
%ADD529R,0.0530X0.0001*%
%ADD530R,0.0540X0.0001*%
%ADD531R,0.0541X0.0001*%
%ADD532R,0.0531X0.0001*%
%ADD533R,0.0543X0.0001*%
%ADD534R,0.0544X0.0001*%
%ADD535R,0.0546X0.0002*%
%ADD536R,0.0536X0.0002*%
%ADD537R,0.0547X0.0001*%
%ADD538R,0.0551X0.0001*%
%ADD539R,0.0552X0.0001*%
%ADD540R,0.0554X0.0001*%
%ADD541R,0.0555X0.0001*%
%ADD542R,0.0555X0.0002*%
%ADD543R,0.0547X0.0002*%
%ADD544R,0.0549X0.0001*%
%ADD545R,0.0548X0.0001*%
%ADD546R,0.0538X0.0001*%
%ADD547R,0.0537X0.0001*%
%ADD548R,0.0533X0.0002*%
%ADD549R,0.0531X0.0001*%
%ADD550R,0.0526X0.0001*%
%ADD551R,0.0518X0.0001*%
%ADD552R,0.0498X0.0002*%
%ADD553R,0.0496X0.0002*%
%ADD554R,0.0486X0.0001*%
%ADD555R,0.0485X0.0002*%
%ADD556R,0.0482X0.0001*%
%ADD557R,0.0477X0.0002*%
%ADD558R,0.0530X0.0002*%
%ADD559R,0.0464X0.0002*%
%ADD560R,0.0561X0.0001*%
%ADD561R,0.0570X0.0001*%
%ADD562R,0.0576X0.0001*%
%ADD563R,0.0581X0.0001*%
%ADD564R,0.0585X0.0001*%
%ADD565R,0.0589X0.0001*%
%ADD566R,0.0600X0.0002*%
%ADD567R,0.0614X0.0001*%
%ADD568R,0.0623X0.0001*%
%ADD569R,0.0630X0.0001*%
%ADD570R,0.0633X0.0001*%
%ADD571R,0.0638X0.0001*%
%ADD572R,0.0645X0.0001*%
%ADD573R,0.0657X0.0001*%
%ADD574R,0.0556X0.0001*%
%ADD575R,0.0669X0.0001*%
%ADD576R,0.0674X0.0001*%
%ADD577R,0.0579X0.0001*%
%ADD578R,0.0676X0.0002*%
%ADD579R,0.0585X0.0002*%
%ADD580R,0.0678X0.0001*%
%ADD581R,0.0590X0.0001*%
%ADD582R,0.0679X0.0001*%
%ADD583R,0.0596X0.0001*%
%ADD584R,0.0681X0.0001*%
%ADD585R,0.0606X0.0001*%
%ADD586R,0.0620X0.0001*%
%ADD587R,0.0682X0.0001*%
%ADD588R,0.0633X0.0001*%
%ADD589R,0.0684X0.0001*%
%ADD590R,0.0639X0.0001*%
%ADD591R,0.0649X0.0001*%
%ADD592R,0.0684X0.0001*%
%ADD593R,0.0655X0.0001*%
%ADD594R,0.0683X0.0002*%
%ADD595R,0.0664X0.0002*%
%ADD596R,0.0683X0.0001*%
%ADD597R,0.0670X0.0001*%
%ADD598R,0.0671X0.0001*%
%ADD599R,0.0681X0.0001*%
%ADD600R,0.0672X0.0001*%
%ADD601R,0.0680X0.0001*%
%ADD602R,0.0675X0.0001*%
%ADD603R,0.0676X0.0001*%
%ADD604R,0.0680X0.0002*%
%ADD605R,0.0678X0.0002*%
%ADD606R,0.0678X0.0001*%
%ADD607R,0.0675X0.0002*%
%ADD608R,0.0672X0.0002*%
%ADD609R,0.0672X0.0001*%
%ADD610R,0.0671X0.0002*%
%ADD611R,0.0670X0.0002*%
%ADD612R,0.0669X0.0001*%
%ADD613R,0.0667X0.0001*%
%ADD614R,0.0669X0.0002*%
%ADD615R,0.0667X0.0002*%
%ADD616R,0.0668X0.0001*%
%ADD617R,0.0666X0.0001*%
%ADD618R,0.0668X0.0002*%
%ADD619R,0.0666X0.0002*%
%ADD620R,0.0666X0.0001*%
%ADD621R,0.0664X0.0001*%
%ADD622R,0.0663X0.0001*%
%ADD623R,0.0666X0.0002*%
%ADD624R,0.0663X0.0002*%
%ADD625R,0.0665X0.0001*%
%ADD626R,0.0674X0.0002*%
%ADD627R,0.0677X0.0001*%
%ADD628R,0.0678X0.0002*%
%ADD629R,0.0682X0.0002*%
%ADD630R,0.0686X0.0001*%
%ADD631R,0.0686X0.0002*%
%ADD632R,0.0687X0.0001*%
%ADD633R,0.0689X0.0001*%
%ADD634R,0.0653X0.0001*%
%ADD635R,0.0641X0.0001*%
%ADD636R,0.0626X0.0001*%
%ADD637R,0.0616X0.0001*%
%ADD638R,0.0687X0.0001*%
%ADD639R,0.0612X0.0001*%
%ADD640R,0.0688X0.0001*%
%ADD641R,0.0606X0.0001*%
%ADD642R,0.0601X0.0001*%
%ADD643R,0.0591X0.0002*%
%ADD644R,0.0567X0.0001*%
%ADD645R,0.0560X0.0001*%
%ADD646R,0.0659X0.0001*%
%ADD647R,0.0516X0.0001*%
%ADD648R,0.0639X0.0001*%
%ADD649R,0.0502X0.0002*%
%ADD650R,0.0633X0.0002*%
%ADD651R,0.0608X0.0001*%
%ADD652R,0.0582X0.0001*%
%ADD653R,0.0577X0.0001*%
%ADD654R,0.0569X0.0002*%
%ADD655R,0.0546X0.0001*%
%ADD656R,0.0486X0.0002*%
%ADD657R,0.0493X0.0001*%
%ADD658R,0.0516X0.0002*%
%ADD659R,0.0532X0.0001*%
%ADD660R,0.0534X0.0002*%
%ADD661R,0.0535X0.0002*%
%ADD662R,0.0543X0.0001*%
%ADD663R,0.0553X0.0001*%
%ADD664R,0.0559X0.0001*%
%ADD665R,0.0564X0.0001*%
%ADD666R,0.0564X0.0001*%
%ADD667R,0.0567X0.0001*%
%ADD668R,0.0569X0.0001*%
%ADD669R,0.0570X0.0002*%
%ADD670R,0.0571X0.0002*%
%ADD671R,0.0571X0.0001*%
%ADD672R,0.0573X0.0001*%
%ADD673R,0.0574X0.0001*%
%ADD674R,0.0576X0.0001*%
%ADD675R,0.0600X0.0001*%
%ADD676R,0.0611X0.0001*%
%ADD677R,0.0618X0.0001*%
%ADD678R,0.0621X0.0001*%
%ADD679R,0.1269X0.0001*%
%ADD680R,0.1267X0.0001*%
%ADD681R,0.1266X0.0001*%
%ADD682R,0.1266X0.0002*%
%ADD683R,0.1264X0.0001*%
%ADD684R,0.1261X0.0001*%
%ADD685R,0.1260X0.0001*%
%ADD686R,0.1259X0.0001*%
%ADD687R,0.1256X0.0001*%
%ADD688R,0.1254X0.0001*%
%ADD689R,0.1253X0.0001*%
%ADD690R,0.1251X0.0001*%
%ADD691R,0.1251X0.0002*%
%ADD692R,0.1248X0.0001*%
%ADD693R,0.1245X0.0001*%
%ADD694R,0.1244X0.0001*%
%ADD695R,0.1242X0.0001*%
%ADD696R,0.1239X0.0001*%
%ADD697R,0.1237X0.0001*%
%ADD698R,0.1236X0.0002*%
%ADD699R,0.1233X0.0001*%
%ADD700R,0.1230X0.0001*%
%ADD701R,0.1229X0.0001*%
%ADD702R,0.1227X0.0001*%
%ADD703R,0.1226X0.0001*%
%ADD704R,0.1224X0.0001*%
%ADD705R,0.1223X0.0002*%
%ADD706R,0.1219X0.0001*%
%ADD707R,0.1216X0.0001*%
%ADD708R,0.1215X0.0001*%
%ADD709R,0.1214X0.0001*%
%ADD710R,0.1212X0.0001*%
%ADD711R,0.1209X0.0001*%
%ADD712R,0.1207X0.0002*%
%ADD713R,0.1206X0.0001*%
%ADD714R,0.1204X0.0001*%
%ADD715R,0.1201X0.0001*%
%ADD716R,0.1200X0.0001*%
%ADD717R,0.1199X0.0001*%
%ADD718R,0.1196X0.0001*%
%ADD719R,0.1194X0.0001*%
%ADD720R,0.1193X0.0001*%
%ADD721R,0.1191X0.0001*%
%ADD722R,0.1191X0.0002*%
%ADD723R,0.1188X0.0001*%
%ADD724R,0.1185X0.0001*%
%ADD725R,0.1184X0.0001*%
%ADD726R,0.1181X0.0001*%
%ADD727R,0.1177X0.0001*%
%ADD728R,0.1176X0.0001*%
%ADD729R,0.1174X0.0001*%
%ADD730R,0.1173X0.0001*%
%ADD731R,0.1170X0.0002*%
%ADD732R,0.1170X0.0001*%
%ADD733R,0.1169X0.0001*%
%ADD734R,0.1166X0.0001*%
%ADD735R,0.1164X0.0001*%
%ADD736R,0.1163X0.0001*%
%ADD737R,0.1163X0.0002*%
%ADD738R,0.1167X0.0001*%
%ADD739R,0.1171X0.0001*%
%ADD740R,0.1179X0.0001*%
%ADD741R,0.1182X0.0001*%
%ADD742R,0.1182X0.0002*%
%ADD743R,0.1188X0.0001*%
%ADD744R,0.1190X0.0001*%
%ADD745R,0.1197X0.0001*%
%ADD746R,0.1204X0.0002*%
%ADD747R,0.1207X0.0001*%
%ADD748R,0.1210X0.0001*%
%ADD749R,0.1213X0.0001*%
%ADD750R,0.1217X0.0001*%
%ADD751R,0.1218X0.0001*%
%ADD752R,0.1220X0.0001*%
%ADD753R,0.1221X0.0001*%
%ADD754R,0.1223X0.0001*%
%ADD755R,0.1226X0.0002*%
%ADD756R,0.1236X0.0001*%
%ADD757R,0.1239X0.0001*%
%ADD758R,0.1240X0.0001*%
%ADD759R,0.1243X0.0001*%
%ADD760R,0.1248X0.0002*%
%ADD761R,0.1248X0.0001*%
%ADD762R,0.1251X0.0001*%
%ADD763R,0.1257X0.0001*%
%ADD764R,0.1263X0.0001*%
%ADD765R,0.1267X0.0002*%
%ADD766R,0.1270X0.0001*%
%ADD767R,0.1274X0.0001*%
%ADD768R,0.1275X0.0001*%
%ADD769R,0.1278X0.0001*%
%ADD770R,0.1280X0.0001*%
%ADD771R,0.1281X0.0001*%
%ADD772R,0.1284X0.0001*%
%ADD773R,0.1286X0.0001*%
%ADD774R,0.1289X0.0001*%
%ADD775R,0.1290X0.0002*%
%ADD776R,0.1291X0.0001*%
%ADD777R,0.1294X0.0001*%
%ADD778R,0.1296X0.0001*%
%ADD779R,0.1299X0.0001*%
%ADD780R,0.1300X0.0001*%
%ADD781R,0.1302X0.0001*%
%ADD782R,0.1304X0.0001*%
%ADD783R,0.1306X0.0001*%
%ADD784R,0.1308X0.0001*%
%ADD785R,0.1311X0.0002*%
%ADD786R,0.1313X0.0001*%
%ADD787R,0.1316X0.0001*%
%ADD788R,0.1317X0.0001*%
%ADD789R,0.1320X0.0001*%
%ADD790R,0.1323X0.0001*%
%ADD791R,0.1326X0.0001*%
%ADD792R,0.1329X0.0001*%
%ADD793R,0.1332X0.0002*%
%ADD794R,0.1335X0.0001*%
%ADD795R,0.1336X0.0001*%
%ADD796R,0.1340X0.0001*%
%ADD797R,0.1343X0.0001*%
%ADD798R,0.1346X0.0001*%
%ADD799R,0.1347X0.0001*%
%ADD800R,0.1350X0.0001*%
%ADD801R,0.1353X0.0002*%
%ADD802R,0.1356X0.0001*%
%ADD803R,0.1357X0.0001*%
%ADD804R,0.1360X0.0001*%
%ADD805R,0.1364X0.0001*%
%ADD806R,0.1365X0.0001*%
%ADD807R,0.1368X0.0001*%
%ADD808R,0.1369X0.0001*%
%ADD809R,0.1373X0.0001*%
%ADD810R,0.1374X0.0002*%
%ADD811R,0.1377X0.0001*%
%ADD812R,0.1379X0.0001*%
%ADD813R,0.1380X0.0001*%
%ADD814R,0.1383X0.0001*%
%ADD815R,0.1386X0.0001*%
%ADD816R,0.1387X0.0001*%
%ADD817R,0.1391X0.0001*%
%ADD818R,0.1394X0.0001*%
%ADD819R,0.1395X0.0002*%
%ADD820R,0.1398X0.0001*%
%ADD821R,0.1401X0.0001*%
%ADD822R,0.1403X0.0001*%
%ADD823R,0.1406X0.0001*%
%ADD824R,0.1407X0.0001*%
%ADD825R,0.1409X0.0001*%
%ADD826R,0.1411X0.0001*%
%ADD827R,0.1414X0.0001*%
%ADD828R,0.1416X0.0002*%
%ADD829R,0.1419X0.0001*%
%ADD830R,0.1421X0.0001*%
%ADD831R,0.1422X0.0001*%
%ADD832R,0.1424X0.0001*%
%ADD833R,0.1426X0.0001*%
%ADD834R,0.1428X0.0001*%
%ADD835R,0.1429X0.0002*%
%ADD836R,0.1429X0.0001*%
%ADD837R,0.1425X0.0001*%
%ADD838R,0.1421X0.0002*%
%ADD839R,0.1418X0.0001*%
%ADD840R,0.1416X0.0001*%
%ADD841R,0.1413X0.0001*%
%ADD842R,0.1410X0.0001*%
%ADD843R,0.1404X0.0001*%
%ADD844R,0.1401X0.0001*%
%ADD845R,0.0346X0.0001*%
%ADD846R,0.1044X0.0001*%
%ADD847R,0.0342X0.0002*%
%ADD848R,0.1040X0.0002*%
%ADD849R,0.0337X0.0001*%
%ADD850R,0.1034X0.0001*%
%ADD851R,0.0357X0.0001*%
%ADD852R,0.0660X0.0001*%
%ADD853R,0.0353X0.0001*%
%ADD854R,0.0327X0.0001*%
%ADD855R,0.0349X0.0001*%
%ADD856R,0.0321X0.0001*%
%ADD857R,0.0648X0.0001*%
%ADD858R,0.0344X0.0001*%
%ADD859R,0.0317X0.0001*%
%ADD860R,0.0339X0.0001*%
%ADD861R,0.0312X0.0001*%
%ADD862R,0.0631X0.0001*%
%ADD863R,0.0334X0.0001*%
%ADD864R,0.0309X0.0001*%
%ADD865R,0.0307X0.0002*%
%ADD866R,0.0623X0.0002*%
%ADD867R,0.0327X0.0002*%
%ADD868R,0.0618X0.0001*%
%ADD869R,0.0297X0.0001*%
%ADD870R,0.0607X0.0001*%
%ADD871R,0.0320X0.0001*%
%ADD872R,0.0293X0.0001*%
%ADD873R,0.0599X0.0001*%
%ADD874R,0.0313X0.0001*%
%ADD875R,0.0285X0.0001*%
%ADD876R,0.0584X0.0001*%
%ADD877R,0.0303X0.0001*%
%ADD878R,0.0281X0.0001*%
%ADD879R,0.0273X0.0002*%
%ADD880R,0.0563X0.0002*%
%ADD881R,0.0293X0.0002*%
%ADD882R,0.0264X0.0001*%
%ADD883R,0.0259X0.0001*%
%ADD884R,0.0256X0.0001*%
%ADD885R,0.0276X0.0001*%
%ADD886R,0.0252X0.0001*%
%ADD887R,0.0273X0.0001*%
%ADD888R,0.0248X0.0001*%
%ADD889R,0.0269X0.0001*%
%ADD890R,0.0245X0.0001*%
%ADD891R,0.0240X0.0001*%
%ADD892R,0.0237X0.0002*%
%ADD893R,0.0256X0.0002*%
%ADD894R,0.0234X0.0001*%
%ADD895R,0.0232X0.0001*%
%ADD896R,0.0251X0.0001*%
%ADD897R,0.0228X0.0001*%
%ADD898R,0.0246X0.0001*%
%ADD899R,0.0456X0.0001*%
%ADD900R,0.0219X0.0001*%
%ADD901R,0.0444X0.0001*%
%ADD902R,0.0237X0.0001*%
%ADD903R,0.0214X0.0001*%
%ADD904R,0.0436X0.0001*%
%ADD905R,0.0432X0.0001*%
%ADD906R,0.0231X0.0001*%
%ADD907R,0.0210X0.0001*%
%ADD908R,0.0426X0.0001*%
%ADD909R,0.0420X0.0001*%
%ADD910R,0.0226X0.0001*%
%ADD911R,0.0204X0.0002*%
%ADD912R,0.0409X0.0002*%
%ADD913R,0.0222X0.0002*%
%ADD914R,0.0391X0.0001*%
%ADD915R,0.0217X0.0001*%
%ADD916R,0.0376X0.0001*%
%ADD917R,0.0368X0.0001*%
%ADD918R,0.0189X0.0001*%
%ADD919R,0.0361X0.0001*%
%ADD920R,0.0206X0.0001*%
%ADD921R,0.0186X0.0001*%
%ADD922R,0.0356X0.0001*%
%ADD923R,0.0345X0.0001*%
%ADD924R,0.0331X0.0001*%
%ADD925R,0.0168X0.0001*%
%ADD926R,0.0165X0.0002*%
%ADD927R,0.0162X0.0001*%
%ADD928R,0.0324X0.0001*%
%ADD929R,0.0174X0.0001*%
%ADD930R,0.0167X0.0001*%
%ADD931R,0.0163X0.0001*%
%ADD932R,0.0141X0.0001*%
%ADD933R,0.0140X0.0001*%
%ADD934R,0.0137X0.0001*%
%ADD935R,0.0129X0.0002*%
%ADD936R,0.0321X0.0002*%
%ADD937R,0.0146X0.0002*%
%ADD938R,0.0111X0.0001*%
%ADD939R,0.0318X0.0001*%
%ADD940R,0.0315X0.0001*%
%ADD941R,0.0315X0.0002*%
%ADD942R,0.0105X0.0002*%
%ADD943R,0.0311X0.0002*%
%ADD944R,0.0066X0.0002*%
%ADD945R,0.0307X0.0001*%
%ADD946R,0.0306X0.0001*%
%ADD947R,0.0300X0.0002*%
%ADD948R,0.0296X0.0001*%
%ADD949R,0.0294X0.0002*%
%ADD950R,0.0294X0.0001*%
%ADD951R,0.0291X0.0001*%
%ADD952R,0.0291X0.0002*%
%ADD953R,0.0286X0.0001*%
%ADD954R,0.0281X0.0002*%
%ADD955R,0.0277X0.0001*%
%ADD956R,0.0276X0.0001*%
%ADD957R,0.0266X0.0002*%
%ADD958R,0.0264X0.0001*%
%ADD959R,0.0261X0.0001*%
%ADD960R,0.0259X0.0002*%
%ADD961R,0.0254X0.0002*%
%ADD962R,0.0248X0.0002*%
%ADD963R,0.0218X0.0002*%
D10*
X000100Y000185D02*
X000100Y022232D01*
X039076Y022232D01*
X039076Y000185D01*
X000100Y000185D01*
X000623Y001301D02*
X000625Y001348D01*
X000631Y001395D01*
X000640Y001441D01*
X000654Y001486D01*
X000671Y001530D01*
X000692Y001573D01*
X000716Y001613D01*
X000743Y001652D01*
X000774Y001688D01*
X000807Y001721D01*
X000843Y001752D01*
X000882Y001779D01*
X000922Y001803D01*
X000965Y001824D01*
X001009Y001841D01*
X001054Y001855D01*
X001100Y001864D01*
X001147Y001870D01*
X001194Y001872D01*
X001241Y001870D01*
X001288Y001864D01*
X001334Y001855D01*
X001379Y001841D01*
X001423Y001824D01*
X001466Y001803D01*
X001506Y001779D01*
X001545Y001752D01*
X001581Y001721D01*
X001614Y001688D01*
X001645Y001652D01*
X001672Y001613D01*
X001696Y001573D01*
X001717Y001530D01*
X001734Y001486D01*
X001748Y001441D01*
X001757Y001395D01*
X001763Y001348D01*
X001765Y001301D01*
X001763Y001254D01*
X001757Y001207D01*
X001748Y001161D01*
X001734Y001116D01*
X001717Y001072D01*
X001696Y001029D01*
X001672Y000989D01*
X001645Y000950D01*
X001614Y000914D01*
X001581Y000881D01*
X001545Y000850D01*
X001506Y000823D01*
X001466Y000799D01*
X001423Y000778D01*
X001379Y000761D01*
X001334Y000747D01*
X001288Y000738D01*
X001241Y000732D01*
X001194Y000730D01*
X001147Y000732D01*
X001100Y000738D01*
X001054Y000747D01*
X001009Y000761D01*
X000965Y000778D01*
X000922Y000799D01*
X000882Y000823D01*
X000843Y000850D01*
X000807Y000881D01*
X000774Y000914D01*
X000743Y000950D01*
X000716Y000989D01*
X000692Y001029D01*
X000671Y001072D01*
X000654Y001116D01*
X000640Y001161D01*
X000631Y001207D01*
X000625Y001254D01*
X000623Y001301D01*
X009623Y007301D02*
X009625Y007348D01*
X009631Y007395D01*
X009640Y007441D01*
X009654Y007486D01*
X009671Y007530D01*
X009692Y007573D01*
X009716Y007613D01*
X009743Y007652D01*
X009774Y007688D01*
X009807Y007721D01*
X009843Y007752D01*
X009882Y007779D01*
X009922Y007803D01*
X009965Y007824D01*
X010009Y007841D01*
X010054Y007855D01*
X010100Y007864D01*
X010147Y007870D01*
X010194Y007872D01*
X010241Y007870D01*
X010288Y007864D01*
X010334Y007855D01*
X010379Y007841D01*
X010423Y007824D01*
X010466Y007803D01*
X010506Y007779D01*
X010545Y007752D01*
X010581Y007721D01*
X010614Y007688D01*
X010645Y007652D01*
X010672Y007613D01*
X010696Y007573D01*
X010717Y007530D01*
X010734Y007486D01*
X010748Y007441D01*
X010757Y007395D01*
X010763Y007348D01*
X010765Y007301D01*
X010763Y007254D01*
X010757Y007207D01*
X010748Y007161D01*
X010734Y007116D01*
X010717Y007072D01*
X010696Y007029D01*
X010672Y006989D01*
X010645Y006950D01*
X010614Y006914D01*
X010581Y006881D01*
X010545Y006850D01*
X010506Y006823D01*
X010466Y006799D01*
X010423Y006778D01*
X010379Y006761D01*
X010334Y006747D01*
X010288Y006738D01*
X010241Y006732D01*
X010194Y006730D01*
X010147Y006732D01*
X010100Y006738D01*
X010054Y006747D01*
X010009Y006761D01*
X009965Y006778D01*
X009922Y006799D01*
X009882Y006823D01*
X009843Y006850D01*
X009807Y006881D01*
X009774Y006914D01*
X009743Y006950D01*
X009716Y006989D01*
X009692Y007029D01*
X009671Y007072D01*
X009654Y007116D01*
X009640Y007161D01*
X009631Y007207D01*
X009625Y007254D01*
X009623Y007301D01*
X000623Y011801D02*
X000625Y011848D01*
X000631Y011895D01*
X000640Y011941D01*
X000654Y011986D01*
X000671Y012030D01*
X000692Y012073D01*
X000716Y012113D01*
X000743Y012152D01*
X000774Y012188D01*
X000807Y012221D01*
X000843Y012252D01*
X000882Y012279D01*
X000922Y012303D01*
X000965Y012324D01*
X001009Y012341D01*
X001054Y012355D01*
X001100Y012364D01*
X001147Y012370D01*
X001194Y012372D01*
X001241Y012370D01*
X001288Y012364D01*
X001334Y012355D01*
X001379Y012341D01*
X001423Y012324D01*
X001466Y012303D01*
X001506Y012279D01*
X001545Y012252D01*
X001581Y012221D01*
X001614Y012188D01*
X001645Y012152D01*
X001672Y012113D01*
X001696Y012073D01*
X001717Y012030D01*
X001734Y011986D01*
X001748Y011941D01*
X001757Y011895D01*
X001763Y011848D01*
X001765Y011801D01*
X001763Y011754D01*
X001757Y011707D01*
X001748Y011661D01*
X001734Y011616D01*
X001717Y011572D01*
X001696Y011529D01*
X001672Y011489D01*
X001645Y011450D01*
X001614Y011414D01*
X001581Y011381D01*
X001545Y011350D01*
X001506Y011323D01*
X001466Y011299D01*
X001423Y011278D01*
X001379Y011261D01*
X001334Y011247D01*
X001288Y011238D01*
X001241Y011232D01*
X001194Y011230D01*
X001147Y011232D01*
X001100Y011238D01*
X001054Y011247D01*
X001009Y011261D01*
X000965Y011278D01*
X000922Y011299D01*
X000882Y011323D01*
X000843Y011350D01*
X000807Y011381D01*
X000774Y011414D01*
X000743Y011450D01*
X000716Y011489D01*
X000692Y011529D01*
X000671Y011572D01*
X000654Y011616D01*
X000640Y011661D01*
X000631Y011707D01*
X000625Y011754D01*
X000623Y011801D01*
X017123Y001301D02*
X017125Y001348D01*
X017131Y001395D01*
X017140Y001441D01*
X017154Y001486D01*
X017171Y001530D01*
X017192Y001573D01*
X017216Y001613D01*
X017243Y001652D01*
X017274Y001688D01*
X017307Y001721D01*
X017343Y001752D01*
X017382Y001779D01*
X017422Y001803D01*
X017465Y001824D01*
X017509Y001841D01*
X017554Y001855D01*
X017600Y001864D01*
X017647Y001870D01*
X017694Y001872D01*
X017741Y001870D01*
X017788Y001864D01*
X017834Y001855D01*
X017879Y001841D01*
X017923Y001824D01*
X017966Y001803D01*
X018006Y001779D01*
X018045Y001752D01*
X018081Y001721D01*
X018114Y001688D01*
X018145Y001652D01*
X018172Y001613D01*
X018196Y001573D01*
X018217Y001530D01*
X018234Y001486D01*
X018248Y001441D01*
X018257Y001395D01*
X018263Y001348D01*
X018265Y001301D01*
X018263Y001254D01*
X018257Y001207D01*
X018248Y001161D01*
X018234Y001116D01*
X018217Y001072D01*
X018196Y001029D01*
X018172Y000989D01*
X018145Y000950D01*
X018114Y000914D01*
X018081Y000881D01*
X018045Y000850D01*
X018006Y000823D01*
X017966Y000799D01*
X017923Y000778D01*
X017879Y000761D01*
X017834Y000747D01*
X017788Y000738D01*
X017741Y000732D01*
X017694Y000730D01*
X017647Y000732D01*
X017600Y000738D01*
X017554Y000747D01*
X017509Y000761D01*
X017465Y000778D01*
X017422Y000799D01*
X017382Y000823D01*
X017343Y000850D01*
X017307Y000881D01*
X017274Y000914D01*
X017243Y000950D01*
X017216Y000989D01*
X017192Y001029D01*
X017171Y001072D01*
X017154Y001116D01*
X017140Y001161D01*
X017131Y001207D01*
X017125Y001254D01*
X017123Y001301D01*
X019588Y000495D02*
X019590Y000497D01*
X019590Y000495D01*
X019590Y000495D01*
X019591Y000495D01*
X019591Y000495D01*
X019591Y000497D01*
X019592Y000496D02*
X019592Y000496D01*
X019592Y000496D01*
X019593Y000496D01*
X019592Y000496D01*
X019593Y000495D02*
X019593Y000496D01*
X019593Y000495D02*
X019593Y000493D01*
X019592Y000492D01*
X019591Y000492D01*
X019591Y000493D01*
X019591Y000495D01*
X019592Y000495D02*
X019593Y000495D01*
X019593Y000495D01*
X019594Y000495D02*
X019594Y000496D01*
X019595Y000496D01*
X019595Y000496D01*
X019595Y000496D01*
X019594Y000496D01*
X019594Y000496D01*
X019594Y000495D02*
X019594Y000495D01*
X019595Y000495D01*
X019595Y000496D01*
X019596Y000496D01*
X019596Y000496D01*
X019597Y000496D02*
X019597Y000496D01*
X019597Y000496D01*
X019598Y000496D01*
X019597Y000496D01*
X019598Y000495D02*
X019598Y000496D01*
X019598Y000495D02*
X019598Y000495D01*
X019597Y000495D01*
X019597Y000494D02*
X019598Y000494D01*
X019598Y000493D01*
X019598Y000492D02*
X019597Y000492D01*
X019596Y000493D01*
X019595Y000493D01*
X019594Y000493D01*
X019594Y000494D01*
X019594Y000494D01*
X019596Y000494D01*
X019597Y000494D01*
X019596Y000493D02*
X019596Y000494D01*
X019596Y000493D02*
X019598Y000493D01*
X019598Y000494D02*
X019598Y000494D01*
X019599Y000495D02*
X019600Y000497D01*
X019601Y000496D02*
X019601Y000496D01*
X019602Y000496D01*
X019602Y000495D01*
X019601Y000495D01*
X019601Y000495D01*
X019601Y000496D01*
X019602Y000496D02*
X019603Y000496D01*
X019603Y000496D01*
X019604Y000496D01*
X019604Y000495D01*
X019605Y000495D01*
X019606Y000495D01*
X019606Y000496D01*
X019607Y000496D01*
X019607Y000496D01*
X019608Y000496D02*
X019608Y000495D01*
X019609Y000495D01*
X019609Y000496D01*
X019610Y000496D01*
X019611Y000496D01*
X019611Y000496D01*
X019611Y000496D01*
X019609Y000496D01*
X019609Y000495D01*
X019609Y000494D01*
X019608Y000494D01*
X019609Y000494D01*
X019609Y000492D01*
X019609Y000491D01*
X019608Y000491D01*
X019608Y000492D02*
X019609Y000492D01*
X019610Y000493D02*
X019610Y000494D01*
X019610Y000494D01*
X019611Y000494D01*
X019612Y000494D01*
X019612Y000493D01*
X019613Y000493D02*
X019613Y000492D01*
X019614Y000492D01*
X019615Y000493D01*
X019615Y000494D01*
X019614Y000494D01*
X019613Y000494D01*
X019613Y000494D01*
X019613Y000493D01*
X019612Y000493D02*
X019610Y000493D01*
X019610Y000492D01*
X019611Y000492D01*
X019611Y000495D02*
X019611Y000497D01*
X019611Y000496D02*
X019612Y000496D01*
X019612Y000496D01*
X019612Y000495D01*
X019613Y000495D02*
X019613Y000496D01*
X019614Y000496D01*
X019614Y000495D01*
X019613Y000495D01*
X019613Y000495D01*
X019613Y000496D02*
X019614Y000496D01*
X019614Y000496D01*
X019615Y000496D02*
X019615Y000496D01*
X019615Y000495D01*
X019615Y000495D01*
X019616Y000495D01*
X019616Y000497D01*
X019617Y000497D02*
X019617Y000497D01*
X019617Y000495D01*
X019617Y000495D01*
X019616Y000494D02*
X019617Y000494D01*
X019618Y000494D02*
X019618Y000493D01*
X019618Y000492D01*
X019620Y000492D01*
X019620Y000494D01*
X019621Y000494D01*
X019622Y000494D01*
X019622Y000493D01*
X019622Y000492D02*
X019621Y000492D01*
X019620Y000493D01*
X019620Y000494D01*
X019621Y000494D01*
X019621Y000495D01*
X019620Y000495D01*
X019620Y000495D01*
X019620Y000496D01*
X019619Y000496D02*
X019619Y000496D01*
X019619Y000496D01*
X019618Y000496D01*
X019618Y000496D01*
X019618Y000495D01*
X019618Y000495D01*
X019619Y000495D01*
X019620Y000494D02*
X019618Y000494D01*
X019618Y000494D01*
X019616Y000494D02*
X019615Y000493D01*
X019615Y000492D02*
X019615Y000494D01*
X019615Y000496D02*
X019616Y000496D01*
X019618Y000496D02*
X019619Y000496D01*
X019621Y000496D02*
X019621Y000495D01*
X019623Y000497D01*
X019624Y000497D01*
X019625Y000497D01*
X019625Y000495D01*
X019625Y000495D01*
X019625Y000496D01*
X019625Y000496D01*
X019626Y000496D01*
X019626Y000496D01*
X019626Y000495D01*
X019626Y000495D01*
X019625Y000495D01*
X019624Y000495D01*
X019623Y000495D01*
X019623Y000497D01*
X019623Y000495D02*
X019623Y000492D01*
X019622Y000493D02*
X019620Y000493D01*
X019620Y000492D02*
X019619Y000491D01*
X019619Y000491D01*
X019622Y000494D02*
X019622Y000494D01*
X019623Y000494D02*
X019624Y000494D01*
X019625Y000494D01*
X019625Y000492D01*
X019626Y000493D02*
X019626Y000493D01*
X019626Y000492D01*
X019628Y000492D01*
X019628Y000494D01*
X019627Y000494D01*
X019626Y000494D01*
X019626Y000493D02*
X019628Y000493D01*
X019629Y000493D02*
X019629Y000494D01*
X019629Y000494D01*
X019631Y000494D01*
X019631Y000495D02*
X019631Y000496D01*
X019631Y000496D01*
X019631Y000496D01*
X019630Y000496D01*
X019630Y000495D01*
X019629Y000495D01*
X019629Y000495D01*
X019629Y000496D01*
X019628Y000496D02*
X019627Y000496D01*
X019627Y000495D01*
X019628Y000495D01*
X019627Y000495D02*
X019627Y000495D01*
X019627Y000496D02*
X019627Y000496D01*
X019625Y000494D02*
X019625Y000494D01*
X019629Y000492D02*
X019629Y000493D01*
X019629Y000492D02*
X019631Y000492D01*
X019632Y000492D01*
X019632Y000495D01*
X019632Y000496D01*
X019631Y000496D01*
X019630Y000495D02*
X019630Y000496D01*
X019631Y000495D02*
X019631Y000492D01*
X019633Y000493D02*
X019633Y000494D01*
X019634Y000494D01*
X019635Y000494D01*
X019635Y000493D01*
X019633Y000493D01*
X019634Y000492D01*
X019635Y000492D01*
X019636Y000493D02*
X019636Y000492D01*
X019638Y000492D01*
X019637Y000491D01*
X019637Y000491D01*
X019638Y000492D02*
X019638Y000494D01*
X019638Y000495D02*
X019638Y000495D01*
X019637Y000495D01*
X019636Y000495D01*
X019636Y000497D01*
X019636Y000496D02*
X019637Y000496D01*
X019637Y000496D01*
X019637Y000496D01*
X019638Y000496D01*
X019637Y000496D01*
X019638Y000495D02*
X019638Y000496D01*
X019639Y000495D02*
X019640Y000497D01*
X019641Y000497D02*
X019642Y000495D01*
X019642Y000497D01*
X019643Y000497D02*
X019644Y000497D01*
X019644Y000496D01*
X019644Y000496D01*
X019644Y000495D01*
X019644Y000495D01*
X019645Y000495D01*
X019645Y000496D01*
X019644Y000496D01*
X019644Y000496D01*
X019643Y000496D01*
X019643Y000495D02*
X019641Y000495D01*
X019641Y000497D01*
X019643Y000495D02*
X019643Y000497D01*
X019644Y000497D02*
X019644Y000497D01*
X019645Y000497D02*
X019645Y000497D01*
X019646Y000496D02*
X019646Y000496D01*
X019646Y000497D02*
X019646Y000495D01*
X019646Y000495D01*
X019646Y000494D02*
X019645Y000494D01*
X019644Y000494D01*
X019644Y000493D01*
X019645Y000492D01*
X019646Y000492D01*
X019646Y000493D01*
X019646Y000494D01*
X019646Y000494D01*
X019647Y000494D02*
X019647Y000493D01*
X019647Y000492D01*
X019649Y000492D01*
X019650Y000493D02*
X019650Y000492D01*
X019652Y000492D01*
X019652Y000494D01*
X019653Y000494D01*
X019654Y000494D01*
X019654Y000492D01*
X019653Y000492D02*
X019653Y000494D01*
X019653Y000494D01*
X019652Y000494D02*
X019652Y000492D01*
X019650Y000494D02*
X019650Y000493D01*
X019649Y000494D02*
X019647Y000494D01*
X019647Y000494D01*
X019647Y000495D02*
X019647Y000496D01*
X019648Y000495D01*
X019648Y000497D01*
X019649Y000496D02*
X019649Y000496D01*
X019650Y000496D01*
X019650Y000496D01*
X019650Y000495D01*
X019650Y000495D01*
X019650Y000496D01*
X019651Y000496D01*
X019652Y000496D01*
X019653Y000496D01*
X019654Y000496D01*
X019654Y000496D01*
X019654Y000495D01*
X019654Y000495D01*
X019655Y000495D01*
X019655Y000496D02*
X019654Y000496D01*
X019655Y000496D01*
X019655Y000496D01*
X019655Y000496D01*
X019656Y000495D02*
X019656Y000496D01*
X019657Y000496D01*
X019657Y000496D01*
X019657Y000495D02*
X019659Y000497D01*
X019660Y000496D01*
X019660Y000497D01*
X019660Y000495D01*
X019659Y000494D02*
X019660Y000494D01*
X019660Y000492D01*
X019661Y000493D02*
X019662Y000492D01*
X019663Y000492D02*
X019664Y000492D01*
X019665Y000493D01*
X019664Y000493D01*
X019663Y000493D01*
X019663Y000494D01*
X019663Y000494D01*
X019665Y000494D01*
X019665Y000495D02*
X019665Y000496D01*
X019665Y000496D01*
X019664Y000496D02*
X019663Y000496D01*
X019663Y000496D01*
X019663Y000495D01*
X019663Y000495D01*
X019664Y000495D01*
X019664Y000497D01*
X019665Y000497D02*
X019665Y000497D01*
X019666Y000496D02*
X019667Y000496D01*
X019667Y000495D01*
X019666Y000495D01*
X019666Y000495D01*
X019666Y000496D01*
X019667Y000496D01*
X019667Y000496D01*
X019667Y000495D02*
X019665Y000492D01*
X019665Y000495D02*
X019665Y000495D01*
X019668Y000495D02*
X019669Y000497D01*
X019669Y000495D01*
X019671Y000495D01*
X019672Y000496D01*
X019673Y000496D01*
X019673Y000495D01*
X019673Y000494D01*
X019672Y000494D01*
X019671Y000494D01*
X019672Y000495D02*
X019671Y000495D01*
X019672Y000495D01*
X019673Y000495D01*
X019672Y000495D01*
X019673Y000496D02*
X019673Y000495D01*
X019673Y000495D01*
X019674Y000495D01*
X019674Y000496D01*
X019673Y000496D01*
X019673Y000496D01*
X019672Y000496D01*
X019672Y000496D01*
X019671Y000495D02*
X019671Y000492D01*
X019672Y000492D01*
X019673Y000493D01*
X019673Y000493D01*
X019672Y000494D01*
X019674Y000494D02*
X019674Y000494D01*
X019674Y000495D01*
X019674Y000496D01*
X019675Y000497D02*
X019675Y000497D01*
X019675Y000495D01*
X019676Y000495D01*
X019676Y000493D01*
X019676Y000492D01*
X019677Y000492D02*
X019678Y000493D01*
X019679Y000492D01*
X019679Y000495D01*
X019680Y000495D02*
X019680Y000495D01*
X019681Y000495D01*
X019681Y000495D01*
X019681Y000497D01*
X019681Y000497D01*
X019680Y000497D01*
X019680Y000497D01*
X019680Y000495D01*
X019681Y000494D02*
X019680Y000494D01*
X019680Y000493D01*
X019681Y000492D01*
X019682Y000492D01*
X019682Y000493D01*
X019682Y000494D01*
X019682Y000494D01*
X019681Y000494D01*
X019682Y000495D02*
X019682Y000495D01*
X019683Y000495D01*
X019683Y000497D01*
X019683Y000497D01*
X019682Y000497D01*
X019682Y000497D01*
X019682Y000496D01*
X019683Y000496D01*
X019685Y000496D01*
X019686Y000496D02*
X019686Y000495D01*
X019686Y000497D01*
X019685Y000497D02*
X019685Y000495D01*
X019686Y000496D01*
X019687Y000497D02*
X019687Y000495D01*
X019688Y000495D01*
X019688Y000492D01*
X019686Y000492D01*
X019686Y000493D01*
X019686Y000494D01*
X019688Y000494D01*
X019689Y000494D01*
X019690Y000494D01*
X019690Y000493D01*
X019688Y000493D01*
X019688Y000494D01*
X019688Y000493D02*
X019689Y000492D01*
X019690Y000492D01*
X019691Y000492D02*
X019691Y000494D01*
X019692Y000494D01*
X019693Y000494D01*
X019692Y000495D02*
X019693Y000495D01*
X019693Y000495D01*
X019694Y000495D01*
X019695Y000495D01*
X019696Y000495D01*
X019696Y000495D01*
X019697Y000494D01*
X019698Y000495D01*
X019698Y000496D01*
X019698Y000496D01*
X019698Y000496D01*
X019698Y000495D01*
X019698Y000492D01*
X019699Y000493D02*
X019699Y000494D01*
X019699Y000494D01*
X019699Y000496D01*
X019700Y000496D01*
X019700Y000495D01*
X019699Y000495D01*
X019699Y000494D02*
X019700Y000494D01*
X019701Y000494D01*
X019701Y000493D01*
X019699Y000493D01*
X019699Y000492D01*
X019700Y000492D01*
X019702Y000493D02*
X019702Y000494D01*
X019702Y000494D01*
X019704Y000494D01*
X019705Y000494D01*
X019705Y000492D01*
X019704Y000492D01*
X019702Y000492D01*
X019702Y000493D01*
X019704Y000495D02*
X019704Y000492D01*
X019706Y000493D02*
X019707Y000493D01*
X019708Y000493D01*
X019708Y000492D02*
X019707Y000492D01*
X019706Y000493D01*
X019707Y000494D02*
X019708Y000494D01*
X019708Y000492D01*
X019709Y000492D02*
X019711Y000495D01*
X019712Y000495D02*
X019712Y000492D01*
X019714Y000492D01*
X019715Y000492D02*
X019714Y000493D01*
X019715Y000493D01*
X019716Y000493D01*
X019716Y000492D02*
X019715Y000492D01*
X019716Y000492D02*
X019716Y000494D01*
X019716Y000494D01*
X019715Y000494D01*
X019714Y000495D02*
X019712Y000495D01*
X019712Y000494D02*
X019713Y000494D01*
X019717Y000494D02*
X019717Y000493D01*
X019718Y000492D01*
X019718Y000491D02*
X019719Y000491D01*
X019719Y000492D01*
X019719Y000494D01*
X019718Y000494D01*
X019717Y000494D01*
X019718Y000492D02*
X019719Y000492D01*
X019720Y000492D02*
X019721Y000492D01*
X019720Y000492D02*
X019720Y000495D01*
X019720Y000495D01*
X019722Y000494D02*
X019722Y000494D01*
X019722Y000493D01*
X019722Y000492D01*
X019723Y000492D01*
X019725Y000492D02*
X019727Y000495D01*
X019727Y000493D01*
X019728Y000492D01*
X019729Y000492D01*
X019729Y000493D01*
X019729Y000495D01*
X019729Y000495D01*
X019728Y000495D01*
X019727Y000495D01*
X019730Y000495D02*
X019730Y000494D01*
X019731Y000494D01*
X019732Y000494D01*
X019732Y000493D01*
X019732Y000492D01*
X019731Y000492D01*
X019730Y000493D01*
X019731Y000495D02*
X019730Y000495D01*
X019731Y000495D02*
X019732Y000495D01*
X019732Y000495D01*
X019733Y000495D02*
X019733Y000492D01*
X019732Y000493D02*
X019732Y000493D01*
X019733Y000494D02*
X019735Y000494D01*
X019735Y000495D02*
X019735Y000492D01*
X019736Y000492D02*
X019737Y000493D01*
X019738Y000492D01*
X019740Y000492D01*
X019741Y000493D02*
X019742Y000492D01*
X019743Y000492D01*
X019743Y000493D01*
X019743Y000494D01*
X019743Y000494D01*
X019742Y000494D01*
X019741Y000494D01*
X019741Y000493D01*
X019738Y000495D02*
X019738Y000492D01*
X019738Y000495D01*
X019736Y000495D02*
X019736Y000492D01*
X019744Y000493D02*
X019744Y000492D01*
X019746Y000492D01*
X019746Y000494D01*
X019744Y000494D01*
X019744Y000493D01*
X019744Y000494D02*
X019744Y000494D01*
X019747Y000494D02*
X019747Y000493D01*
X019747Y000492D01*
X019748Y000492D01*
X019749Y000493D01*
X019750Y000493D01*
X019750Y000492D01*
X019749Y000492D01*
X019749Y000493D01*
X019749Y000494D01*
X019748Y000494D01*
X019747Y000494D01*
X019747Y000494D01*
X019746Y000492D02*
X019745Y000491D01*
X019745Y000491D01*
X019751Y000492D02*
X019752Y000492D01*
X019753Y000493D01*
X019753Y000494D01*
X019752Y000494D01*
X019751Y000494D01*
X019751Y000495D02*
X019751Y000492D01*
X019753Y000492D02*
X019753Y000494D01*
X019754Y000494D01*
X019755Y000494D01*
X019755Y000492D01*
X019754Y000492D02*
X019754Y000494D01*
X019754Y000494D01*
X019755Y000494D02*
X019755Y000494D01*
X019756Y000494D02*
X019758Y000494D01*
X019758Y000493D01*
X019758Y000492D01*
X019756Y000492D01*
X019756Y000491D02*
X019756Y000494D01*
X019758Y000494D02*
X019758Y000494D01*
X019724Y000494D02*
X019724Y000493D01*
X019722Y000493D01*
X019722Y000494D02*
X019723Y000494D01*
X019724Y000494D01*
X019708Y000494D02*
X019708Y000494D01*
X019705Y000496D02*
X019705Y000495D01*
X019700Y000495D02*
X019700Y000495D01*
X019700Y000496D02*
X019700Y000496D01*
X019698Y000496D02*
X019697Y000496D01*
X019697Y000496D01*
X019697Y000495D01*
X019696Y000495D02*
X019696Y000496D01*
X019695Y000496D01*
X019695Y000495D02*
X019693Y000492D01*
X019691Y000493D02*
X019692Y000494D01*
X019692Y000495D01*
X019691Y000495D01*
X019691Y000495D01*
X019691Y000496D01*
X019691Y000496D01*
X019692Y000496D01*
X019692Y000495D01*
X019692Y000496D01*
X019693Y000496D01*
X019693Y000496D01*
X019694Y000496D01*
X019694Y000495D01*
X019694Y000495D01*
X019695Y000495D01*
X019695Y000497D01*
X019696Y000496D02*
X019696Y000496D01*
X019696Y000495D02*
X019696Y000492D01*
X019695Y000495D02*
X019695Y000495D01*
X019690Y000494D02*
X019690Y000494D01*
X019690Y000495D02*
X019690Y000495D01*
X019689Y000495D01*
X019689Y000495D01*
X019689Y000496D01*
X019689Y000496D01*
X019690Y000496D01*
X019690Y000496D01*
X019690Y000495D01*
X019686Y000494D02*
X019686Y000494D01*
X019685Y000494D02*
X019685Y000492D01*
X019684Y000494D02*
X019685Y000494D01*
X019684Y000494D02*
X019683Y000494D01*
X019683Y000492D01*
X019683Y000495D02*
X019683Y000495D01*
X019683Y000496D01*
X019683Y000496D01*
X019682Y000496D02*
X019682Y000496D01*
X019685Y000497D02*
X019685Y000495D01*
X019679Y000497D02*
X019678Y000495D01*
X019677Y000495D02*
X019677Y000492D01*
X019675Y000492D02*
X019674Y000492D01*
X019674Y000494D01*
X019674Y000494D01*
X019675Y000494D02*
X019676Y000494D01*
X019676Y000495D02*
X019676Y000495D01*
X019676Y000496D01*
X019676Y000496D01*
X019677Y000496D01*
X019677Y000496D01*
X019676Y000496D01*
X019677Y000495D02*
X019676Y000495D01*
X019677Y000496D02*
X019677Y000496D01*
X019671Y000497D02*
X019669Y000497D01*
X019669Y000496D02*
X019670Y000496D01*
X019670Y000495D02*
X019670Y000492D01*
X019668Y000495D01*
X019668Y000492D01*
X019662Y000495D02*
X019661Y000495D01*
X019661Y000493D01*
X019661Y000494D02*
X019662Y000494D01*
X019661Y000495D02*
X019661Y000495D01*
X019661Y000496D01*
X019661Y000496D01*
X019662Y000496D01*
X019662Y000496D01*
X019662Y000496D01*
X019661Y000496D01*
X019659Y000495D02*
X019659Y000497D01*
X019658Y000494D02*
X019659Y000494D01*
X019658Y000494D02*
X019658Y000492D01*
X019657Y000492D02*
X019656Y000492D01*
X019655Y000493D01*
X019655Y000494D01*
X019656Y000494D01*
X019657Y000494D01*
X019657Y000493D01*
X019655Y000493D01*
X019654Y000494D02*
X019654Y000494D01*
X019654Y000495D02*
X019653Y000495D01*
X019652Y000495D01*
X019652Y000496D01*
X019652Y000495D01*
X019654Y000497D02*
X019654Y000495D01*
X019657Y000494D02*
X019657Y000494D01*
X019650Y000495D02*
X019649Y000495D01*
X019649Y000495D01*
X019649Y000496D01*
X019647Y000497D02*
X019647Y000495D01*
X019644Y000495D02*
X019643Y000495D01*
X019643Y000495D01*
X019643Y000493D01*
X019643Y000492D01*
X019641Y000492D01*
X019641Y000495D01*
X019639Y000492D01*
X019636Y000494D02*
X019636Y000493D01*
X019635Y000494D02*
X019635Y000494D01*
X019635Y000495D02*
X019635Y000496D01*
X019635Y000496D01*
X019634Y000496D01*
X019634Y000495D01*
X019633Y000495D02*
X019633Y000495D01*
X019632Y000495D01*
X019632Y000496D01*
X019633Y000496D01*
X019634Y000496D01*
X019634Y000496D01*
X019632Y000496D01*
X019631Y000495D02*
X019632Y000495D01*
X019633Y000496D02*
X019633Y000496D01*
X019610Y000496D02*
X019610Y000496D01*
X019610Y000495D02*
X019609Y000495D01*
X019610Y000495D02*
X019610Y000495D01*
X019609Y000496D02*
X019608Y000496D01*
X019608Y000496D01*
X019608Y000495D02*
X019608Y000495D01*
X019608Y000494D02*
X019607Y000494D01*
X019607Y000493D01*
X019608Y000492D01*
X019606Y000495D02*
X019604Y000492D01*
X019603Y000493D02*
X019603Y000493D01*
X019602Y000493D01*
X019602Y000494D01*
X019603Y000494D01*
X019603Y000495D02*
X019602Y000495D01*
X019602Y000494D01*
X019602Y000494D01*
X019601Y000494D01*
X019600Y000494D01*
X019599Y000493D01*
X019599Y000492D02*
X019599Y000494D01*
X019602Y000492D02*
X019603Y000492D01*
X019603Y000493D01*
X019603Y000495D02*
X019603Y000495D01*
X019602Y000495D02*
X019602Y000496D01*
X019604Y000496D01*
X019605Y000496D01*
X019605Y000496D01*
X019606Y000496D01*
X019606Y000495D01*
X019605Y000495D02*
X019605Y000495D01*
X019604Y000496D02*
X019604Y000496D01*
X019596Y000493D02*
X019595Y000492D01*
X019594Y000492D01*
X019590Y000495D02*
X019588Y000492D01*
X032123Y001301D02*
X032125Y001348D01*
X032131Y001395D01*
X032140Y001441D01*
X032154Y001486D01*
X032171Y001530D01*
X032192Y001573D01*
X032216Y001613D01*
X032243Y001652D01*
X032274Y001688D01*
X032307Y001721D01*
X032343Y001752D01*
X032382Y001779D01*
X032422Y001803D01*
X032465Y001824D01*
X032509Y001841D01*
X032554Y001855D01*
X032600Y001864D01*
X032647Y001870D01*
X032694Y001872D01*
X032741Y001870D01*
X032788Y001864D01*
X032834Y001855D01*
X032879Y001841D01*
X032923Y001824D01*
X032966Y001803D01*
X033006Y001779D01*
X033045Y001752D01*
X033081Y001721D01*
X033114Y001688D01*
X033145Y001652D01*
X033172Y001613D01*
X033196Y001573D01*
X033217Y001530D01*
X033234Y001486D01*
X033248Y001441D01*
X033257Y001395D01*
X033263Y001348D01*
X033265Y001301D01*
X033263Y001254D01*
X033257Y001207D01*
X033248Y001161D01*
X033234Y001116D01*
X033217Y001072D01*
X033196Y001029D01*
X033172Y000989D01*
X033145Y000950D01*
X033114Y000914D01*
X033081Y000881D01*
X033045Y000850D01*
X033006Y000823D01*
X032966Y000799D01*
X032923Y000778D01*
X032879Y000761D01*
X032834Y000747D01*
X032788Y000738D01*
X032741Y000732D01*
X032694Y000730D01*
X032647Y000732D01*
X032600Y000738D01*
X032554Y000747D01*
X032509Y000761D01*
X032465Y000778D01*
X032422Y000799D01*
X032382Y000823D01*
X032343Y000850D01*
X032307Y000881D01*
X032274Y000914D01*
X032243Y000950D01*
X032216Y000989D01*
X032192Y001029D01*
X032171Y001072D01*
X032154Y001116D01*
X032140Y001161D01*
X032131Y001207D01*
X032125Y001254D01*
X032123Y001301D01*
X032123Y011801D02*
X032125Y011848D01*
X032131Y011895D01*
X032140Y011941D01*
X032154Y011986D01*
X032171Y012030D01*
X032192Y012073D01*
X032216Y012113D01*
X032243Y012152D01*
X032274Y012188D01*
X032307Y012221D01*
X032343Y012252D01*
X032382Y012279D01*
X032422Y012303D01*
X032465Y012324D01*
X032509Y012341D01*
X032554Y012355D01*
X032600Y012364D01*
X032647Y012370D01*
X032694Y012372D01*
X032741Y012370D01*
X032788Y012364D01*
X032834Y012355D01*
X032879Y012341D01*
X032923Y012324D01*
X032966Y012303D01*
X033006Y012279D01*
X033045Y012252D01*
X033081Y012221D01*
X033114Y012188D01*
X033145Y012152D01*
X033172Y012113D01*
X033196Y012073D01*
X033217Y012030D01*
X033234Y011986D01*
X033248Y011941D01*
X033257Y011895D01*
X033263Y011848D01*
X033265Y011801D01*
X033263Y011754D01*
X033257Y011707D01*
X033248Y011661D01*
X033234Y011616D01*
X033217Y011572D01*
X033196Y011529D01*
X033172Y011489D01*
X033145Y011450D01*
X033114Y011414D01*
X033081Y011381D01*
X033045Y011350D01*
X033006Y011323D01*
X032966Y011299D01*
X032923Y011278D01*
X032879Y011261D01*
X032834Y011247D01*
X032788Y011238D01*
X032741Y011232D01*
X032694Y011230D01*
X032647Y011232D01*
X032600Y011238D01*
X032554Y011247D01*
X032509Y011261D01*
X032465Y011278D01*
X032422Y011299D01*
X032382Y011323D01*
X032343Y011350D01*
X032307Y011381D01*
X032274Y011414D01*
X032243Y011450D01*
X032216Y011489D01*
X032192Y011529D01*
X032171Y011572D01*
X032154Y011616D01*
X032140Y011661D01*
X032131Y011707D01*
X032125Y011754D01*
X032123Y011801D01*
X031080Y017341D02*
X031082Y017388D01*
X031088Y017435D01*
X031097Y017481D01*
X031111Y017526D01*
X031128Y017570D01*
X031149Y017613D01*
X031173Y017653D01*
X031200Y017692D01*
X031231Y017728D01*
X031264Y017761D01*
X031300Y017792D01*
X031339Y017819D01*
X031379Y017843D01*
X031422Y017864D01*
X031466Y017881D01*
X031511Y017895D01*
X031557Y017904D01*
X031604Y017910D01*
X031651Y017912D01*
X031698Y017910D01*
X031745Y017904D01*
X031791Y017895D01*
X031836Y017881D01*
X031880Y017864D01*
X031923Y017843D01*
X031963Y017819D01*
X032002Y017792D01*
X032038Y017761D01*
X032071Y017728D01*
X032102Y017692D01*
X032129Y017653D01*
X032153Y017613D01*
X032174Y017570D01*
X032191Y017526D01*
X032205Y017481D01*
X032214Y017435D01*
X032220Y017388D01*
X032222Y017341D01*
X032220Y017294D01*
X032214Y017247D01*
X032205Y017201D01*
X032191Y017156D01*
X032174Y017112D01*
X032153Y017069D01*
X032129Y017029D01*
X032102Y016990D01*
X032071Y016954D01*
X032038Y016921D01*
X032002Y016890D01*
X031963Y016863D01*
X031923Y016839D01*
X031880Y016818D01*
X031836Y016801D01*
X031791Y016787D01*
X031745Y016778D01*
X031698Y016772D01*
X031651Y016770D01*
X031604Y016772D01*
X031557Y016778D01*
X031511Y016787D01*
X031466Y016801D01*
X031422Y016818D01*
X031379Y016839D01*
X031339Y016863D01*
X031300Y016890D01*
X031264Y016921D01*
X031231Y016954D01*
X031200Y016990D01*
X031173Y017029D01*
X031149Y017069D01*
X031128Y017112D01*
X031111Y017156D01*
X031097Y017201D01*
X031088Y017247D01*
X031082Y017294D01*
X031080Y017341D01*
X032123Y021301D02*
X032125Y021348D01*
X032131Y021395D01*
X032140Y021441D01*
X032154Y021486D01*
X032171Y021530D01*
X032192Y021573D01*
X032216Y021613D01*
X032243Y021652D01*
X032274Y021688D01*
X032307Y021721D01*
X032343Y021752D01*
X032382Y021779D01*
X032422Y021803D01*
X032465Y021824D01*
X032509Y021841D01*
X032554Y021855D01*
X032600Y021864D01*
X032647Y021870D01*
X032694Y021872D01*
X032741Y021870D01*
X032788Y021864D01*
X032834Y021855D01*
X032879Y021841D01*
X032923Y021824D01*
X032966Y021803D01*
X033006Y021779D01*
X033045Y021752D01*
X033081Y021721D01*
X033114Y021688D01*
X033145Y021652D01*
X033172Y021613D01*
X033196Y021573D01*
X033217Y021530D01*
X033234Y021486D01*
X033248Y021441D01*
X033257Y021395D01*
X033263Y021348D01*
X033265Y021301D01*
X033263Y021254D01*
X033257Y021207D01*
X033248Y021161D01*
X033234Y021116D01*
X033217Y021072D01*
X033196Y021029D01*
X033172Y020989D01*
X033145Y020950D01*
X033114Y020914D01*
X033081Y020881D01*
X033045Y020850D01*
X033006Y020823D01*
X032966Y020799D01*
X032923Y020778D01*
X032879Y020761D01*
X032834Y020747D01*
X032788Y020738D01*
X032741Y020732D01*
X032694Y020730D01*
X032647Y020732D01*
X032600Y020738D01*
X032554Y020747D01*
X032509Y020761D01*
X032465Y020778D01*
X032422Y020799D01*
X032382Y020823D01*
X032343Y020850D01*
X032307Y020881D01*
X032274Y020914D01*
X032243Y020950D01*
X032216Y020989D01*
X032192Y021029D01*
X032171Y021072D01*
X032154Y021116D01*
X032140Y021161D01*
X032131Y021207D01*
X032125Y021254D01*
X032123Y021301D01*
D11*
X022870Y019883D02*
X022763Y019989D01*
X022549Y019989D01*
X022443Y019883D01*
X022443Y019456D01*
X022549Y019349D01*
X022763Y019349D01*
X022870Y019456D01*
X022225Y019989D02*
X021798Y019989D01*
X022012Y019989D02*
X022012Y019349D01*
X021581Y019349D02*
X021367Y019562D01*
X021474Y019562D02*
X021154Y019562D01*
X021154Y019349D02*
X021154Y019989D01*
X021474Y019989D01*
X021581Y019883D01*
X021581Y019669D01*
X021474Y019562D01*
X020062Y019216D02*
X018642Y019216D01*
X018642Y021076D02*
X020062Y021076D01*
X017795Y015608D02*
X017795Y015501D01*
X017795Y015288D02*
X017795Y014861D01*
X017688Y014861D02*
X017902Y014861D01*
X018118Y014967D02*
X018224Y014861D01*
X018545Y014861D01*
X018762Y014967D02*
X018869Y014861D01*
X019083Y014861D01*
X019189Y015074D02*
X018762Y015074D01*
X018762Y014967D02*
X018762Y015181D01*
X018869Y015288D01*
X019083Y015288D01*
X019189Y015181D01*
X019189Y015074D01*
X019407Y014861D02*
X019407Y015288D01*
X019727Y015288D01*
X019834Y015181D01*
X019834Y014861D01*
X020051Y014861D02*
X020372Y014861D01*
X020478Y014967D01*
X020372Y015074D01*
X020158Y015074D01*
X020051Y015181D01*
X020158Y015288D01*
X020478Y015288D01*
X020696Y015181D02*
X020803Y015288D01*
X021016Y015288D01*
X021123Y015181D01*
X021123Y015074D01*
X020696Y015074D01*
X020696Y014967D02*
X020696Y015181D01*
X020696Y014967D02*
X020803Y014861D01*
X021016Y014861D01*
X022571Y015226D02*
X022998Y015226D01*
X022784Y015226D02*
X022784Y014585D01*
X023215Y014692D02*
X023215Y014905D01*
X023322Y015012D01*
X023536Y015012D01*
X023643Y014905D01*
X023643Y014799D01*
X023215Y014799D01*
X023215Y014692D02*
X023322Y014585D01*
X023536Y014585D01*
X023860Y014585D02*
X023860Y015012D01*
X023967Y015012D01*
X024074Y014905D01*
X024180Y015012D01*
X024287Y014905D01*
X024287Y014585D01*
X024074Y014585D02*
X024074Y014905D01*
X024505Y015012D02*
X024825Y015012D01*
X024932Y014905D01*
X024932Y014692D01*
X024825Y014585D01*
X024505Y014585D01*
X024505Y014372D02*
X024505Y015012D01*
X018545Y015288D02*
X018224Y015288D01*
X018118Y015181D01*
X018118Y014967D01*
X017795Y015288D02*
X017688Y015288D01*
X017471Y014861D02*
X017043Y014861D01*
X017043Y015501D01*
X016181Y015181D02*
X016181Y015074D01*
X015754Y015074D01*
X015754Y014967D02*
X015754Y015181D01*
X015861Y015288D01*
X016075Y015288D01*
X016181Y015181D01*
X016075Y014861D02*
X015861Y014861D01*
X015754Y014967D01*
X015538Y015288D02*
X015431Y015288D01*
X015217Y015074D01*
X015217Y014861D02*
X015217Y015288D01*
X015000Y015181D02*
X014893Y015288D01*
X014679Y015288D01*
X014679Y015074D02*
X015000Y015074D01*
X015000Y015181D02*
X015000Y014861D01*
X014679Y014861D01*
X014573Y014967D01*
X014679Y015074D01*
X014355Y014967D02*
X014355Y015288D01*
X014355Y014967D02*
X014248Y014861D01*
X014142Y014967D01*
X014035Y014861D01*
X013928Y014967D01*
X013928Y015288D01*
X013711Y015288D02*
X013390Y015288D01*
X013284Y015181D01*
X013284Y014967D01*
X013390Y014861D01*
X013711Y014861D01*
X013711Y015501D01*
X013067Y015288D02*
X012960Y015288D01*
X012746Y015074D01*
X012746Y014861D02*
X012746Y015288D01*
X012529Y015181D02*
X012529Y014861D01*
X012209Y014861D01*
X012102Y014967D01*
X012209Y015074D01*
X012529Y015074D01*
X012529Y015181D02*
X012422Y015288D01*
X012209Y015288D01*
X011884Y015181D02*
X011457Y015181D01*
X011457Y014861D02*
X011457Y015501D01*
X011884Y015501D02*
X011884Y014861D01*
X010595Y014861D02*
X010595Y015181D01*
X010489Y015288D01*
X010168Y015288D01*
X010168Y014861D01*
X009951Y015074D02*
X009524Y015074D01*
X009524Y014967D02*
X009524Y015181D01*
X009630Y015288D01*
X009844Y015288D01*
X009951Y015181D01*
X009951Y015074D01*
X009844Y014861D02*
X009630Y014861D01*
X009524Y014967D01*
X009306Y014967D02*
X009199Y014861D01*
X008879Y014861D01*
X008879Y014647D02*
X008879Y015288D01*
X009199Y015288D01*
X009306Y015181D01*
X009306Y014967D01*
X008662Y014967D02*
X008555Y014861D01*
X008341Y014861D01*
X008235Y014967D01*
X008235Y015394D01*
X008341Y015501D01*
X008555Y015501D01*
X008662Y015394D01*
X008662Y014967D01*
X007373Y014861D02*
X007159Y015074D01*
X007266Y015074D02*
X006946Y015074D01*
X006946Y014861D02*
X006946Y015501D01*
X007266Y015501D01*
X007373Y015394D01*
X007373Y015181D01*
X007266Y015074D01*
X006728Y015181D02*
X006728Y015394D01*
X006621Y015501D01*
X006301Y015501D01*
X006301Y014861D01*
X006301Y015074D02*
X006621Y015074D01*
X006728Y015181D01*
X006083Y015181D02*
X005656Y015181D01*
X005656Y015288D02*
X005656Y014861D01*
X006083Y014861D02*
X006083Y015288D01*
X005870Y015501D01*
X005656Y015288D01*
X005439Y015501D02*
X005012Y015501D01*
X005225Y015501D02*
X005225Y014861D01*
X003127Y015361D02*
X003021Y015254D01*
X002807Y015254D01*
X002700Y015361D01*
X002700Y015788D01*
X002807Y015895D01*
X003021Y015895D01*
X003127Y015788D01*
X002115Y015727D02*
X001941Y015727D01*
X002115Y015900D01*
X002115Y015944D01*
X002071Y015987D01*
X001984Y015987D01*
X001941Y015944D01*
X001840Y015895D02*
X001626Y015895D01*
X001733Y015895D02*
X001733Y015254D01*
X001626Y015254D02*
X001840Y015254D01*
X002600Y017685D02*
X006600Y017685D01*
X006600Y019685D01*
X002600Y019685D01*
X002600Y017685D01*
X026029Y006262D02*
X026029Y005762D01*
X026279Y005512D01*
X026779Y005512D01*
X027029Y005762D01*
X027279Y005512D01*
X027779Y005512D01*
X028029Y005762D01*
X028029Y006262D01*
X027779Y006512D01*
X027279Y006512D01*
X027029Y006262D01*
X027029Y005762D01*
X027029Y006262D02*
X026779Y006512D01*
X026279Y006512D01*
X026029Y006262D01*
X026092Y005394D02*
X026092Y004967D01*
X026305Y005181D02*
X025878Y005181D01*
X032099Y006475D02*
X032099Y006902D01*
X032312Y007115D01*
X032526Y006902D01*
X032526Y006475D01*
X032743Y006475D02*
X033063Y006475D01*
X033170Y006582D01*
X033170Y007009D01*
X033063Y007115D01*
X032743Y007115D01*
X032743Y006475D01*
X032526Y006795D02*
X032099Y006795D01*
X033388Y006582D02*
X033494Y006475D01*
X033708Y006475D01*
X033815Y006582D01*
X033388Y006582D02*
X033388Y007009D01*
X033494Y007115D01*
X033708Y007115D01*
X033815Y007009D01*
X020398Y001744D02*
X020077Y001531D01*
X020398Y001317D01*
X020077Y001317D02*
X020077Y001958D01*
X019860Y001744D02*
X019539Y001744D01*
X019433Y001638D01*
X019433Y001424D01*
X019539Y001317D01*
X019860Y001317D01*
X019215Y001317D02*
X019215Y001744D01*
X018788Y001744D02*
X018788Y001424D01*
X018895Y001317D01*
X019215Y001317D01*
X018571Y001744D02*
X018465Y001744D01*
X018251Y001531D01*
X018251Y001744D02*
X018251Y001317D01*
X018035Y001317D02*
X017928Y001424D01*
X017928Y001851D01*
X017821Y001744D02*
X018035Y001744D01*
X017604Y001638D02*
X017177Y001638D01*
X016959Y001744D02*
X016959Y001317D01*
X016639Y001317D01*
X016532Y001424D01*
X016532Y001744D01*
X016315Y001744D02*
X016209Y001744D01*
X015995Y001531D01*
X015995Y001744D02*
X015995Y001317D01*
X015778Y001317D02*
X015778Y001638D01*
X015671Y001744D01*
X015564Y001638D01*
X015564Y001317D01*
X015351Y001317D02*
X015351Y001744D01*
X015457Y001744D01*
X015564Y001638D01*
X015133Y001638D02*
X015133Y001317D01*
X014813Y001317D01*
X014706Y001424D01*
X014813Y001531D01*
X015133Y001531D01*
X015133Y001638D02*
X015026Y001744D01*
X014813Y001744D01*
X014489Y001638D02*
X014382Y001744D01*
X014061Y001744D01*
X014061Y001958D02*
X014061Y001317D01*
X014382Y001317D01*
X014489Y001424D01*
X014489Y001638D01*
X013844Y001958D02*
X013417Y001317D01*
X013199Y001317D02*
X013199Y001638D01*
X013093Y001744D01*
X012986Y001638D01*
X012986Y001317D01*
X012772Y001317D02*
X012772Y001744D01*
X012879Y001744D01*
X012986Y001638D01*
X012555Y001638D02*
X012555Y001424D01*
X012448Y001317D01*
X012235Y001317D01*
X012128Y001424D01*
X012128Y001638D01*
X012235Y001744D01*
X012448Y001744D01*
X012555Y001638D01*
X011910Y001744D02*
X011590Y001744D01*
X011483Y001638D01*
X011483Y001424D01*
X011590Y001317D01*
X011910Y001317D01*
X011268Y001317D02*
X011161Y001317D01*
X011161Y001424D01*
X011268Y001424D01*
X011268Y001317D01*
X010943Y001424D02*
X010943Y001638D01*
X010837Y001744D01*
X010516Y001744D01*
X010516Y001958D02*
X010516Y001317D01*
X010837Y001317D01*
X010943Y001424D01*
X010299Y001317D02*
X010299Y001744D01*
X009872Y001744D02*
X009872Y001424D01*
X009979Y001317D01*
X010299Y001317D01*
X009654Y001317D02*
X009654Y001638D01*
X009548Y001744D01*
X009334Y001744D01*
X009227Y001638D01*
X009011Y001744D02*
X008798Y001744D01*
X008904Y001851D02*
X008904Y001424D01*
X009011Y001317D01*
X009227Y001317D02*
X009227Y001958D01*
X008475Y001958D02*
X008475Y002065D01*
X008475Y001744D02*
X008475Y001317D01*
X008581Y001317D02*
X008368Y001317D01*
X008150Y001317D02*
X007830Y001317D01*
X007723Y001424D01*
X007723Y001638D01*
X007830Y001744D01*
X008150Y001744D01*
X008150Y001211D01*
X008044Y001104D01*
X007937Y001104D01*
X007079Y001317D02*
X007506Y001958D01*
X007393Y002538D02*
X007286Y002645D01*
X007286Y002965D01*
X007069Y002965D02*
X006962Y002965D01*
X006749Y002751D01*
X006749Y002538D02*
X006749Y002965D01*
X006531Y002858D02*
X006531Y002538D01*
X006318Y002538D02*
X006318Y002858D01*
X006424Y002965D01*
X006531Y002858D01*
X006318Y002858D02*
X006211Y002965D01*
X006104Y002965D01*
X006104Y002538D01*
X005887Y002538D02*
X005887Y002858D01*
X005780Y002965D01*
X005566Y002965D01*
X005566Y002751D02*
X005887Y002751D01*
X005887Y002538D02*
X005566Y002538D01*
X005460Y002645D01*
X005566Y002751D01*
X005242Y002751D02*
X005242Y002645D01*
X005135Y002538D01*
X004815Y002538D01*
X004815Y003178D01*
X005135Y003178D01*
X005242Y003072D01*
X005242Y002965D01*
X005135Y002858D01*
X004815Y002858D01*
X005135Y002858D02*
X005242Y002751D01*
X006861Y001958D02*
X006434Y001317D01*
X006219Y001317D02*
X006112Y001317D01*
X006112Y001424D01*
X006219Y001424D01*
X006219Y001317D01*
X006219Y001638D02*
X006112Y001638D01*
X006112Y001744D01*
X006219Y001744D01*
X006219Y001638D01*
X005895Y001744D02*
X005574Y001744D01*
X005467Y001638D01*
X005574Y001531D01*
X005788Y001531D01*
X005895Y001424D01*
X005788Y001317D01*
X005467Y001317D01*
X005250Y001424D02*
X005143Y001317D01*
X004823Y001317D01*
X004823Y001104D02*
X004823Y001744D01*
X005143Y001744D01*
X005250Y001638D01*
X005250Y001424D01*
X004607Y001317D02*
X004500Y001424D01*
X004500Y001851D01*
X004393Y001744D02*
X004607Y001744D01*
X004177Y001744D02*
X003964Y001744D01*
X004070Y001851D02*
X004070Y001424D01*
X004177Y001317D01*
X003746Y001317D02*
X003746Y001638D01*
X003639Y001744D01*
X003426Y001744D01*
X003319Y001638D01*
X003319Y001958D02*
X003319Y001317D01*
X007393Y002538D02*
X007713Y002538D01*
X007713Y002965D01*
X008575Y003178D02*
X009002Y003178D01*
X008788Y003178D02*
X008788Y002538D01*
X009219Y002538D02*
X009219Y002965D01*
X009219Y002751D02*
X009433Y002965D01*
X009540Y002965D01*
X009757Y002965D02*
X009757Y002645D01*
X009863Y002538D01*
X010184Y002538D01*
X010184Y002965D01*
X010401Y002858D02*
X010508Y002965D01*
X010828Y002965D01*
X011046Y003178D02*
X011046Y002538D01*
X011046Y002751D02*
X011366Y002965D01*
X011046Y002751D02*
X011366Y002538D01*
X010828Y002538D02*
X010508Y002538D01*
X010401Y002645D01*
X010401Y002858D01*
X012227Y002751D02*
X012548Y002751D01*
X012654Y002858D01*
X012654Y003072D01*
X012548Y003178D01*
X012227Y003178D01*
X012227Y002538D01*
X012872Y002645D02*
X012872Y002858D01*
X012979Y002965D01*
X013192Y002965D01*
X013299Y002858D01*
X013299Y002645D01*
X013192Y002538D01*
X012979Y002538D01*
X012872Y002645D01*
X013516Y002645D02*
X013516Y002965D01*
X013943Y002965D02*
X013943Y002645D01*
X013837Y002538D01*
X013730Y002645D01*
X013623Y002538D01*
X013516Y002645D01*
X014161Y002645D02*
X014161Y002858D01*
X014268Y002965D01*
X014481Y002965D01*
X014588Y002858D01*
X014588Y002751D01*
X014161Y002751D01*
X014161Y002645D02*
X014268Y002538D01*
X014481Y002538D01*
X014806Y002538D02*
X014806Y002965D01*
X015019Y002965D02*
X015126Y002965D01*
X015019Y002965D02*
X014806Y002751D01*
X008475Y001744D02*
X008368Y001744D01*
D12*
X020021Y014280D02*
X020021Y014870D01*
X018250Y018059D02*
X018250Y018728D01*
X033722Y011917D02*
X033722Y010461D01*
D13*
X030493Y017897D02*
X030493Y018698D01*
X030093Y018298D02*
X030893Y018298D01*
D14*
X031156Y019959D02*
X031156Y020379D01*
X030946Y020169D02*
X031366Y020169D01*
X030866Y016169D02*
X030446Y016169D01*
X027042Y002520D02*
X027042Y002389D01*
X027042Y002125D02*
X027042Y001598D01*
X026911Y001598D02*
X027174Y001598D01*
X027439Y001730D02*
X027570Y001598D01*
X027834Y001598D01*
X027966Y001730D01*
X027966Y001993D01*
X027834Y002125D01*
X027570Y002125D01*
X027439Y001993D01*
X027439Y001730D01*
X027042Y002125D02*
X026911Y002125D01*
X026646Y002125D02*
X026251Y002125D01*
X026119Y001993D01*
X026251Y001862D01*
X026514Y001862D01*
X026646Y001730D01*
X026514Y001598D01*
X026119Y001598D01*
X025722Y002125D02*
X025459Y001862D01*
X025459Y002125D02*
X025459Y001598D01*
X025194Y001862D02*
X024667Y001862D01*
X024667Y001993D02*
X024667Y001730D01*
X024799Y001598D01*
X025062Y001598D01*
X025194Y001862D02*
X025194Y001993D01*
X025062Y002125D01*
X024799Y002125D01*
X024667Y001993D01*
X024402Y001862D02*
X024402Y002389D01*
X023875Y002389D02*
X023875Y001862D01*
X024139Y001598D01*
X024402Y001862D01*
X025722Y002125D02*
X025854Y002125D01*
X028230Y002125D02*
X028230Y001598D01*
X028758Y001598D02*
X028758Y001993D01*
X028626Y002125D01*
X028230Y002125D01*
X029022Y002125D02*
X029022Y001993D01*
X029154Y001993D01*
X029154Y002125D01*
X029022Y002125D01*
X029022Y001730D02*
X029022Y001598D01*
X029154Y001598D01*
X029154Y001730D01*
X029022Y001730D01*
X030210Y001598D02*
X030737Y001598D01*
X030474Y001598D02*
X030474Y002389D01*
X030210Y002125D01*
X031002Y001730D02*
X031002Y001598D01*
X031134Y001598D01*
X031134Y001730D01*
X031002Y001730D01*
X031398Y001730D02*
X031530Y001598D01*
X031793Y001598D01*
X031925Y001730D01*
X031925Y002257D01*
X031398Y001730D01*
X031398Y002257D01*
X031530Y002389D01*
X031793Y002389D01*
X031925Y002257D01*
D15*
X035416Y002351D02*
X035416Y002671D01*
X035576Y002671D01*
X035629Y002618D01*
X035629Y002511D01*
X035576Y002458D01*
X035416Y002458D01*
X035522Y002458D02*
X035629Y002351D01*
X035784Y002404D02*
X035837Y002351D01*
X035944Y002351D01*
X035997Y002404D01*
X035997Y002458D01*
X035944Y002511D01*
X035784Y002511D01*
X035784Y002404D01*
X035784Y002511D02*
X035891Y002618D01*
X035997Y002671D01*
X036076Y001648D02*
X035863Y001648D01*
X035863Y001488D01*
X035969Y001541D01*
X036023Y001541D01*
X036076Y001488D01*
X036076Y001381D01*
X036023Y001327D01*
X035916Y001327D01*
X035863Y001381D01*
X035708Y001381D02*
X035654Y001327D01*
X035548Y001327D01*
X035494Y001381D01*
X035494Y001594D01*
X035548Y001648D01*
X035654Y001648D01*
X035708Y001594D01*
X020459Y010383D02*
X020459Y010996D01*
X020459Y010689D02*
X020766Y010996D01*
X020920Y010996D01*
X020152Y010843D02*
X020152Y010689D01*
X019538Y010689D01*
X019538Y010536D02*
X019538Y010843D01*
X019692Y010996D01*
X019999Y010996D01*
X020152Y010843D01*
X019999Y010383D02*
X019692Y010383D01*
X019538Y010536D01*
X019231Y010383D02*
X019078Y010536D01*
X019078Y011150D01*
X018924Y010996D02*
X019231Y010996D01*
X018618Y010996D02*
X018464Y010996D01*
X018157Y010689D01*
X018157Y010383D02*
X018157Y010996D01*
X017850Y010843D02*
X017850Y010689D01*
X017236Y010689D01*
X017236Y010536D02*
X017236Y010843D01*
X017390Y010996D01*
X017697Y010996D01*
X017850Y010843D01*
X017697Y010383D02*
X017390Y010383D01*
X017236Y010536D01*
X016929Y010996D02*
X016623Y010383D01*
X016316Y010996D01*
X016009Y010843D02*
X016009Y010383D01*
X016009Y010843D02*
X015855Y010996D01*
X015395Y010996D01*
X015395Y010383D01*
X015088Y010536D02*
X015088Y010843D01*
X014934Y010996D01*
X014627Y010996D01*
X014474Y010843D01*
X014474Y010536D01*
X014627Y010383D01*
X014934Y010383D01*
X015088Y010536D01*
X014167Y010383D02*
X013707Y010383D01*
X013553Y010536D01*
X013553Y010843D01*
X013707Y010996D01*
X014167Y010996D01*
X012326Y010996D02*
X012019Y010383D01*
X011712Y010996D01*
X010484Y010843D02*
X010484Y010536D01*
X010330Y010383D01*
X010024Y010383D01*
X009870Y010536D01*
X009870Y010843D02*
X010177Y010996D01*
X010330Y010996D01*
X010484Y010843D01*
X009870Y010843D02*
X009870Y011303D01*
X010484Y011303D01*
X008642Y010843D02*
X008642Y010536D01*
X008489Y010383D01*
X008182Y010383D01*
X008029Y010536D01*
X008029Y010843D01*
X008182Y010996D01*
X008489Y010996D01*
X008642Y010843D01*
X007722Y010996D02*
X007415Y010996D01*
X007568Y011150D02*
X007568Y010536D01*
X007722Y010383D01*
X006187Y010843D02*
X005573Y010843D01*
X006033Y011303D01*
X006033Y010383D01*
X018762Y013822D02*
X018815Y013768D01*
X018922Y013768D01*
X018976Y013822D01*
X019130Y013768D02*
X019344Y013982D01*
X019344Y014035D01*
X019290Y014089D01*
X019184Y014089D01*
X019130Y014035D01*
X018976Y014035D02*
X018922Y014089D01*
X018815Y014089D01*
X018762Y014035D01*
X018762Y013822D01*
X019130Y013768D02*
X019344Y013768D01*
X026872Y013563D02*
X026872Y013349D01*
X026926Y013296D01*
X027032Y013296D01*
X027086Y013349D01*
X027241Y013456D02*
X027454Y013456D01*
X027609Y013296D02*
X027716Y013296D01*
X027662Y013296D02*
X027662Y013616D01*
X027609Y013616D02*
X027716Y013616D01*
X027854Y013616D02*
X028068Y013296D01*
X028068Y013616D01*
X027854Y013616D02*
X027854Y013296D01*
X027086Y013563D02*
X027032Y013616D01*
X026926Y013616D01*
X026872Y013563D01*
X017651Y018965D02*
X017437Y018965D01*
X017544Y018965D02*
X017544Y019285D01*
X017437Y019179D01*
X017283Y019232D02*
X017229Y019285D01*
X017123Y019285D01*
X017069Y019232D01*
X017069Y019019D01*
X017123Y018965D01*
X017229Y018965D01*
X017283Y019019D01*
X019685Y019436D02*
X019687Y019451D01*
X019693Y019464D01*
X019702Y019476D01*
X019713Y019485D01*
X019727Y019491D01*
X019742Y019493D01*
X019757Y019491D01*
X019770Y019485D01*
X019782Y019476D01*
X019791Y019465D01*
X019797Y019451D01*
X019799Y019436D01*
X019797Y019421D01*
X019791Y019408D01*
X019782Y019396D01*
X019771Y019387D01*
X019757Y019381D01*
X019742Y019379D01*
X019727Y019381D01*
X019714Y019387D01*
X019702Y019396D01*
X019693Y019407D01*
X019687Y019421D01*
X019685Y019436D01*
X016785Y020737D02*
X016571Y020737D01*
X016678Y020737D02*
X016678Y021057D01*
X016571Y020950D01*
X016417Y020950D02*
X016363Y020897D01*
X016203Y020897D01*
X016203Y020737D02*
X016203Y021057D01*
X016363Y021057D01*
X016417Y021004D01*
X016417Y020950D01*
X016363Y020897D02*
X016417Y020844D01*
X016417Y020790D01*
X016363Y020737D01*
X016203Y020737D01*
X025888Y020152D02*
X026102Y019831D01*
X025888Y019831D02*
X026102Y020152D01*
X026256Y020152D02*
X026470Y020152D01*
X026363Y020152D02*
X026363Y019831D01*
X026625Y019831D02*
X026625Y020045D01*
X026731Y020152D01*
X026838Y020045D01*
X026838Y019831D01*
X026993Y019831D02*
X027206Y019831D01*
X026993Y019831D02*
X026993Y020152D01*
X026838Y019991D02*
X026625Y019991D01*
X027361Y019991D02*
X027575Y019991D01*
X027730Y020045D02*
X027836Y020152D01*
X027836Y019831D01*
X027730Y019831D02*
X027943Y019831D01*
D16*
X001464Y019821D02*
X001461Y020185D01*
X001464Y020549D01*
X000736Y020549D01*
X000736Y019821D01*
X001464Y019821D01*
X000549Y019703D02*
X000549Y021671D01*
X013620Y021671D01*
X013620Y019703D01*
X000549Y019703D01*
X000155Y022262D02*
X000155Y000215D01*
X033620Y000215D01*
X033620Y022262D01*
X000155Y022262D01*
X014313Y020343D02*
X014313Y019949D01*
X014312Y020342D02*
X014321Y020400D01*
X014333Y020457D01*
X014349Y020513D01*
X014368Y020568D01*
X014391Y020622D01*
X014418Y020674D01*
X014447Y020724D01*
X014480Y020772D01*
X014516Y020818D01*
X014555Y020861D01*
X014597Y020902D01*
X014641Y020940D01*
X014688Y020975D01*
X014737Y021006D01*
X014788Y021035D01*
X014840Y021060D01*
X014895Y021082D01*
X014950Y021100D01*
X015007Y021114D01*
X015064Y021125D01*
X015122Y021132D01*
X015180Y021135D01*
X015238Y021134D01*
X015296Y021130D01*
X015297Y021130D02*
X015351Y021128D01*
X015404Y021123D01*
X015457Y021114D01*
X015509Y021101D01*
X015561Y021085D01*
X015611Y021065D01*
X015659Y021042D01*
X015706Y021015D01*
X015751Y020986D01*
X015794Y020953D01*
X015834Y020918D01*
X015872Y020880D01*
X015907Y020840D01*
X015940Y020797D01*
X015969Y020752D01*
X015996Y020705D01*
X016019Y020657D01*
X016039Y020607D01*
X016055Y020555D01*
X016068Y020503D01*
X016077Y020450D01*
X016082Y020397D01*
X016084Y020343D01*
X016281Y020343D01*
X015297Y018965D02*
X015235Y018967D01*
X015174Y018973D01*
X015113Y018982D01*
X015052Y018996D01*
X014993Y019013D01*
X014935Y019034D01*
X014878Y019059D01*
X014823Y019087D01*
X014770Y019118D01*
X014719Y019153D01*
X014670Y019191D01*
X014623Y019232D01*
X014580Y019275D01*
X014539Y019322D01*
X014501Y019371D01*
X014466Y019422D01*
X014435Y019475D01*
X014407Y019530D01*
X014382Y019587D01*
X014361Y019645D01*
X014344Y019704D01*
X014330Y019765D01*
X014321Y019826D01*
X014315Y019887D01*
X014313Y019949D01*
X015494Y018964D02*
X015540Y018966D01*
X015586Y018971D01*
X015632Y018980D01*
X015677Y018993D01*
X015720Y019009D01*
X015762Y019028D01*
X015803Y019051D01*
X015841Y019077D01*
X015878Y019106D01*
X015912Y019137D01*
X015943Y019171D01*
X015972Y019208D01*
X015998Y019246D01*
X016021Y019287D01*
X016040Y019329D01*
X016056Y019372D01*
X016069Y019417D01*
X016078Y019463D01*
X016083Y019509D01*
X016085Y019555D01*
X016084Y019555D02*
X016281Y019555D01*
X015494Y018965D02*
X015297Y018965D01*
X022777Y017075D02*
X022777Y015854D01*
X022935Y015854D01*
X024076Y015894D02*
X024234Y015894D01*
X024234Y017114D01*
X024076Y017114D01*
X023926Y016681D02*
X023928Y016701D01*
X023933Y016721D01*
X023943Y016739D01*
X023955Y016756D01*
X023970Y016770D01*
X023988Y016780D01*
X024007Y016788D01*
X024027Y016792D01*
X024047Y016792D01*
X024067Y016788D01*
X024086Y016780D01*
X024104Y016770D01*
X024119Y016756D01*
X024131Y016739D01*
X024141Y016721D01*
X024146Y016701D01*
X024148Y016681D01*
X024146Y016661D01*
X024141Y016641D01*
X024131Y016623D01*
X024119Y016606D01*
X024104Y016592D01*
X024086Y016582D01*
X024067Y016574D01*
X024047Y016570D01*
X024027Y016570D01*
X024007Y016574D01*
X023988Y016582D01*
X023970Y016592D01*
X023955Y016606D01*
X023943Y016623D01*
X023933Y016641D01*
X023928Y016661D01*
X023926Y016681D01*
X022935Y017075D02*
X022777Y017075D01*
X028013Y014240D02*
X028643Y014870D01*
X028958Y014870D01*
X029667Y014870D02*
X030021Y014870D01*
X030612Y014280D01*
X030612Y014240D02*
X030612Y012272D01*
X029667Y012272D01*
X028998Y012272D02*
X028013Y012272D01*
X028013Y014240D01*
X027907Y012039D02*
X027907Y011579D01*
X026525Y011579D01*
X027907Y012039D02*
X028828Y012039D01*
X028828Y008354D01*
X027907Y008354D01*
X027907Y008815D01*
X026525Y008815D01*
X026387Y008709D02*
X026387Y008664D01*
X026207Y008483D01*
X026207Y008438D01*
X026093Y008438D02*
X026002Y008528D01*
X026048Y008528D02*
X025912Y008528D01*
X025912Y008438D02*
X025912Y008709D01*
X026048Y008709D01*
X026093Y008664D01*
X026093Y008574D01*
X026048Y008528D01*
X026207Y008709D02*
X026387Y008709D01*
X027408Y008748D02*
X027408Y008478D01*
X027408Y008568D02*
X027544Y008568D01*
X027589Y008613D01*
X027589Y008703D01*
X027544Y008748D01*
X027408Y008748D01*
X027499Y008568D02*
X027589Y008478D01*
X027703Y008523D02*
X027703Y008568D01*
X027748Y008613D01*
X027838Y008613D01*
X027883Y008568D01*
X027883Y008523D01*
X027838Y008478D01*
X027748Y008478D01*
X027703Y008523D01*
X027748Y008613D02*
X027703Y008658D01*
X027703Y008703D01*
X027748Y008748D01*
X027838Y008748D01*
X027883Y008703D01*
X027883Y008658D01*
X027838Y008613D01*
X029298Y008528D02*
X029433Y008528D01*
X029478Y008574D01*
X029478Y008664D01*
X029433Y008709D01*
X029298Y008709D01*
X029298Y008438D01*
X029388Y008528D02*
X029478Y008438D01*
X029593Y008483D02*
X029638Y008438D01*
X029728Y008438D01*
X029773Y008483D01*
X029773Y008664D01*
X029728Y008709D01*
X029638Y008709D01*
X029593Y008664D01*
X029593Y008619D01*
X029638Y008574D01*
X029773Y008574D01*
X031345Y008315D02*
X031345Y008045D01*
X031345Y008135D02*
X031481Y008135D01*
X031526Y008180D01*
X031526Y008270D01*
X031481Y008315D01*
X031345Y008315D01*
X031436Y008135D02*
X031526Y008045D01*
X031640Y008045D02*
X031820Y008045D01*
X031730Y008045D02*
X031730Y008315D01*
X031640Y008225D01*
X031935Y008270D02*
X031980Y008315D01*
X032070Y008315D01*
X032115Y008270D01*
X032115Y008225D01*
X032070Y008180D01*
X032115Y008135D01*
X032115Y008090D01*
X032070Y008045D01*
X031980Y008045D01*
X031935Y008090D01*
X032025Y008180D02*
X032070Y008180D01*
X031124Y006681D02*
X029549Y006681D01*
X029549Y006484D01*
X031124Y006484D02*
X031124Y006681D01*
X032250Y005524D02*
X032250Y003319D01*
X032722Y003319D01*
X032722Y003398D01*
X033509Y003398D02*
X034612Y003398D01*
X035242Y003476D02*
X035793Y003476D01*
X035793Y005524D01*
X035242Y005524D01*
X035242Y005602D01*
X034454Y005602D02*
X034454Y005681D01*
X034454Y005602D02*
X033509Y005602D01*
X032801Y005524D02*
X032250Y005524D01*
X031124Y005303D02*
X031124Y005106D01*
X029549Y005106D01*
X029549Y005303D01*
X030776Y005224D02*
X030778Y005244D01*
X030783Y005264D01*
X030793Y005282D01*
X030805Y005299D01*
X030820Y005313D01*
X030838Y005323D01*
X030857Y005331D01*
X030877Y005335D01*
X030897Y005335D01*
X030917Y005331D01*
X030936Y005323D01*
X030954Y005313D01*
X030969Y005299D01*
X030981Y005282D01*
X030991Y005264D01*
X030996Y005244D01*
X030998Y005224D01*
X030996Y005204D01*
X030991Y005184D01*
X030981Y005166D01*
X030969Y005149D01*
X030954Y005135D01*
X030936Y005125D01*
X030917Y005117D01*
X030897Y005113D01*
X030877Y005113D01*
X030857Y005117D01*
X030838Y005125D01*
X030820Y005135D01*
X030805Y005149D01*
X030793Y005166D01*
X030783Y005184D01*
X030778Y005204D01*
X030776Y005224D01*
X028650Y004383D02*
X028470Y004383D01*
X028560Y004383D02*
X028560Y004653D01*
X028470Y004563D01*
X028356Y004383D02*
X028176Y004383D01*
X028266Y004383D02*
X028266Y004653D01*
X028176Y004563D01*
X028061Y004608D02*
X028061Y004518D01*
X028016Y004473D01*
X027881Y004473D01*
X027881Y004383D02*
X027881Y004653D01*
X028016Y004653D01*
X028061Y004608D01*
X027971Y004473D02*
X028061Y004383D01*
X026997Y004507D02*
X026952Y004462D01*
X026862Y004462D01*
X026817Y004507D01*
X026997Y004687D01*
X026997Y004507D01*
X026997Y004687D02*
X026952Y004732D01*
X026862Y004732D01*
X026817Y004687D01*
X026817Y004507D01*
X026702Y004462D02*
X026522Y004462D01*
X026612Y004462D02*
X026612Y004732D01*
X026522Y004642D01*
X026408Y004597D02*
X026362Y004552D01*
X026227Y004552D01*
X026227Y004462D02*
X026227Y004732D01*
X026362Y004732D01*
X026408Y004687D01*
X026408Y004597D01*
X026317Y004552D02*
X026408Y004462D01*
X021360Y003610D02*
X021360Y013846D01*
X002462Y013846D01*
X002462Y003610D01*
X021360Y003610D01*
X031385Y009659D02*
X031385Y009929D01*
X031520Y009929D01*
X031565Y009884D01*
X031565Y009794D01*
X031520Y009749D01*
X031385Y009749D01*
X031475Y009749D02*
X031565Y009659D01*
X031679Y009659D02*
X031860Y009659D01*
X031770Y009659D02*
X031770Y009929D01*
X031679Y009839D01*
X031974Y009884D02*
X032019Y009929D01*
X032109Y009929D01*
X032154Y009884D01*
X032154Y009839D01*
X031974Y009659D01*
X032154Y009659D01*
X029931Y010728D02*
X029885Y010682D01*
X029795Y010682D01*
X029750Y010728D01*
X029750Y010818D02*
X029840Y010863D01*
X029885Y010863D01*
X029931Y010818D01*
X029931Y010728D01*
X029750Y010818D02*
X029750Y010953D01*
X029931Y010953D01*
X029636Y010908D02*
X029636Y010818D01*
X029591Y010773D01*
X029456Y010773D01*
X029546Y010773D02*
X029636Y010682D01*
X029456Y010682D02*
X029456Y010953D01*
X029591Y010953D01*
X029636Y010908D01*
D17*
X025214Y009406D02*
X025214Y008945D01*
X025061Y008945D02*
X025368Y008945D01*
X025061Y009252D02*
X025214Y009406D01*
X022037Y009341D02*
X021960Y009417D01*
X021807Y009417D01*
X021730Y009341D01*
X022037Y009341D02*
X022037Y009264D01*
X021730Y008957D01*
X022037Y008957D01*
X022000Y007370D02*
X021846Y007370D01*
X021770Y007293D01*
X022000Y007370D02*
X022077Y007293D01*
X022077Y007217D01*
X021770Y006910D01*
X022077Y006910D01*
X025100Y006898D02*
X025407Y006898D01*
X025254Y006898D02*
X025254Y007358D01*
X025100Y007205D01*
X028227Y019666D02*
X028227Y020126D01*
X028457Y020126D01*
X028534Y020049D01*
X028534Y019896D01*
X028457Y019819D01*
X028227Y019819D01*
X028687Y020126D02*
X028994Y020126D01*
X028841Y020126D02*
X028841Y019666D01*
X029148Y019742D02*
X029225Y019666D01*
X029378Y019666D01*
X029455Y019742D01*
X029148Y019742D02*
X029148Y020049D01*
X029225Y020126D01*
X029378Y020126D01*
X029455Y020049D01*
X017199Y020593D02*
X016892Y020593D01*
X017045Y020746D02*
X017045Y020439D01*
D18*
X032549Y018969D02*
X045147Y018969D01*
X045147Y015819D02*
X032549Y015819D01*
X032549Y012819D02*
X045147Y012819D01*
D19*
X045935Y011244D02*
X045935Y020543D01*
X031761Y020543D01*
X031761Y011244D02*
X045935Y011244D01*
D20*
X035766Y012056D02*
X035392Y012056D01*
X035392Y012149D02*
X035392Y011962D01*
X035485Y011869D01*
X035672Y011869D01*
X035766Y012056D02*
X035766Y012149D01*
X035672Y012243D01*
X035485Y012243D01*
X035392Y012149D01*
X035158Y012243D02*
X034878Y012243D01*
X034784Y012149D01*
X034878Y012056D01*
X035064Y012056D01*
X035158Y011962D01*
X035064Y011869D01*
X034784Y011869D01*
X034550Y011869D02*
X034550Y012149D01*
X034457Y012243D01*
X034176Y012243D01*
X034176Y011869D01*
X033942Y012056D02*
X033942Y012149D01*
X033849Y012243D01*
X033662Y012243D01*
X033569Y012149D01*
X033569Y011962D01*
X033662Y011869D01*
X033849Y011869D01*
X033942Y012056D02*
X033569Y012056D01*
X033335Y012056D02*
X033335Y011962D01*
X033241Y011869D01*
X033054Y011869D01*
X032961Y011962D01*
X033054Y012149D02*
X033241Y012149D01*
X033335Y012056D01*
X033054Y012149D02*
X032961Y012243D01*
X032961Y012336D01*
X033054Y012429D01*
X033241Y012429D01*
X033335Y012336D01*
D21*
X025549Y014984D02*
X025549Y017984D01*
D22*
X020543Y002904D03*
X021353Y001546D03*
X021215Y000989D03*
X021128Y000989D03*
X020915Y000989D03*
X020349Y001094D03*
X019971Y000906D03*
D23*
X019971Y000908D03*
X021077Y001223D03*
X021216Y000991D03*
X021575Y001301D03*
X021642Y001216D03*
X021726Y001217D03*
X021809Y001217D03*
X021858Y001131D03*
X021986Y000991D03*
X022073Y000991D03*
X022146Y001223D03*
X022358Y001223D03*
X021672Y001475D03*
X021353Y001547D03*
D24*
X021641Y001214D03*
X021860Y001133D03*
X021938Y001021D03*
X022431Y001074D03*
X021218Y000992D03*
X021003Y001133D03*
X019971Y000909D03*
X021636Y002911D03*
D25*
X021354Y001550D03*
X021573Y001299D03*
X021219Y000994D03*
X020919Y000994D03*
X019973Y000911D03*
X022430Y001073D03*
D26*
X019974Y000913D03*
D27*
X019976Y000914D03*
X020342Y001088D03*
X020796Y000998D03*
X020924Y000999D03*
X020924Y001001D03*
X020924Y001004D03*
X020924Y001006D03*
X020924Y001007D03*
X021135Y000995D03*
X021224Y000998D03*
X021351Y001144D03*
X021569Y001294D03*
X021635Y001209D03*
X021719Y001209D03*
X021801Y001208D03*
X021866Y001141D03*
X021866Y001139D03*
X021993Y001001D03*
X021993Y000999D03*
X021993Y000998D03*
X022080Y000998D03*
X022080Y000996D03*
X022425Y001070D03*
X021672Y001481D03*
X020846Y001544D03*
X020799Y001292D03*
X021635Y002906D03*
D28*
X021566Y001286D03*
X021566Y001284D03*
X021566Y001283D03*
X021566Y001281D03*
X021566Y001280D03*
X021566Y001279D03*
X021566Y001269D03*
X021566Y001266D03*
X021566Y001261D03*
X021566Y001254D03*
X021566Y001250D03*
X021566Y001249D03*
X021566Y001246D03*
X021566Y001241D03*
X021566Y001236D03*
X021566Y001229D03*
X021566Y001226D03*
X021566Y001224D03*
X021566Y001223D03*
X021566Y001221D03*
X021566Y001220D03*
X021566Y001219D03*
X021566Y001160D03*
X021566Y001159D03*
X021566Y001157D03*
X021566Y001156D03*
X021566Y001154D03*
X021566Y001151D03*
X021566Y001149D03*
X021566Y001148D03*
X021566Y001146D03*
X021566Y001139D03*
X021566Y001130D03*
X021566Y001119D03*
X021566Y001116D03*
X021566Y001112D03*
X021566Y001109D03*
X021566Y001101D03*
X021566Y001091D03*
X021566Y001088D03*
X021566Y001081D03*
X021566Y001079D03*
X021566Y001076D03*
X021566Y001073D03*
X021566Y001069D03*
X021566Y001059D03*
X021566Y001058D03*
X021566Y001056D03*
X021566Y001055D03*
X021566Y001054D03*
X021566Y001052D03*
X021566Y001051D03*
X021564Y001046D03*
X021444Y001043D03*
X021444Y001163D03*
X021227Y001157D03*
X021227Y001156D03*
X021227Y001154D03*
X021227Y001151D03*
X021227Y001149D03*
X021137Y001156D03*
X021137Y001157D03*
X021137Y001159D03*
X021015Y001161D03*
X021015Y001163D03*
X020921Y001161D03*
X020919Y001164D03*
X020799Y001161D03*
X020799Y001160D03*
X020799Y001159D03*
X020799Y001216D03*
X021012Y001056D03*
X021012Y001055D03*
X021012Y001041D03*
X021012Y001040D03*
X020429Y000999D03*
X020339Y001084D03*
X019979Y000916D03*
X021716Y001046D03*
X021716Y001058D03*
X021716Y001059D03*
X021716Y001064D03*
X021716Y001070D03*
X021716Y001073D03*
X021716Y001074D03*
X021716Y001082D03*
X021716Y001088D03*
X021716Y001089D03*
X021716Y001094D03*
X021716Y001096D03*
X021869Y001154D03*
X021869Y001156D03*
X021990Y001163D03*
X021990Y001164D03*
X021992Y001161D03*
X021992Y001141D03*
X021992Y001101D03*
X022419Y001046D03*
X022422Y001146D03*
X022419Y001160D03*
X022419Y001161D03*
D29*
X022421Y001144D03*
X022305Y001174D03*
X022304Y001172D03*
X022302Y001171D03*
X022200Y001172D03*
X022301Y001040D03*
X021987Y001171D03*
X021987Y001172D03*
X021869Y001061D03*
X021869Y001059D03*
X021869Y001037D03*
X021870Y001034D03*
X021717Y001036D03*
X021717Y001037D03*
X021717Y001039D03*
X021447Y001037D03*
X021447Y001036D03*
X021446Y001039D03*
X021446Y001040D03*
X021447Y001171D03*
X021447Y001172D03*
X021345Y001172D03*
X021132Y001169D03*
X021131Y001171D03*
X021015Y001034D03*
X020801Y001166D03*
X019980Y000917D03*
D30*
X019981Y000919D03*
X020047Y000991D03*
X019821Y000991D03*
X020272Y001236D03*
X020916Y001174D03*
X021019Y001172D03*
X021021Y001174D03*
X021129Y001174D03*
X021130Y001172D03*
X021136Y001141D03*
X021234Y001172D03*
X021235Y001174D03*
X021346Y001171D03*
X021564Y001166D03*
X021564Y001214D03*
X021558Y001034D03*
X021640Y001024D03*
X021759Y000986D03*
X021796Y001026D03*
X021879Y001175D03*
X022089Y001172D03*
X022306Y001175D03*
X022308Y001176D03*
X022359Y001221D03*
X022416Y001172D03*
X022411Y001031D03*
X022299Y001067D03*
X022299Y001069D03*
X021018Y001029D03*
X021018Y001028D03*
X021016Y001031D03*
X021016Y001064D03*
X020844Y001549D03*
D31*
X020861Y001221D03*
X020915Y001175D03*
X021021Y001175D03*
X021023Y001176D03*
X021024Y001178D03*
X021126Y001176D03*
X021128Y001175D03*
X021135Y001139D03*
X021135Y001100D03*
X021018Y001069D03*
X021018Y001067D03*
X021017Y001066D03*
X021018Y001026D03*
X021236Y001175D03*
X021288Y001221D03*
X021450Y001175D03*
X021450Y001031D03*
X021555Y001031D03*
X021675Y000986D03*
X021872Y001031D03*
X021873Y001029D03*
X021873Y001028D03*
X021875Y001026D03*
X021876Y001025D03*
X021872Y001064D03*
X021879Y001176D03*
X021984Y001175D03*
X022091Y001174D03*
X022196Y001178D03*
X022308Y001178D03*
X022299Y001109D03*
X022307Y001031D03*
X022410Y001029D03*
X022415Y001174D03*
X020336Y001076D03*
X020336Y001074D03*
X020336Y001073D03*
X020336Y001071D03*
X020336Y001070D03*
X020208Y001136D03*
X020208Y001139D03*
X020208Y001141D03*
X020208Y001142D03*
X020208Y001144D03*
X020208Y001145D03*
X020208Y001146D03*
X020208Y001148D03*
X019982Y000920D03*
X020543Y002896D03*
D32*
X020842Y001550D03*
X021075Y001221D03*
X021027Y001181D03*
X021025Y001179D03*
X021126Y001178D03*
X021019Y001070D03*
X021019Y001025D03*
X021021Y001024D03*
X020914Y001176D03*
X020913Y001178D03*
X020560Y001004D03*
X020433Y001004D03*
X020335Y001067D03*
X020335Y001069D03*
X020209Y001131D03*
X020209Y001133D03*
X020209Y001134D03*
X020209Y001149D03*
X020209Y001151D03*
X020209Y001154D03*
X020047Y001236D03*
X019821Y001236D03*
X019983Y000923D03*
X019983Y000921D03*
X020499Y001236D03*
X021337Y001181D03*
X021339Y001179D03*
X021340Y001178D03*
X021342Y001176D03*
X021451Y001176D03*
X021562Y001169D03*
X021555Y001029D03*
X021717Y001029D03*
X021873Y001066D03*
X021874Y001067D03*
X021876Y001070D03*
X021877Y001071D03*
X021880Y001178D03*
X021882Y001179D03*
X021931Y001221D03*
X021984Y001176D03*
X022092Y001175D03*
X022195Y001179D03*
X022309Y001179D03*
X022311Y001181D03*
X022300Y001070D03*
X022309Y001029D03*
X022405Y001024D03*
X022407Y001025D03*
X022419Y001142D03*
X021672Y001484D03*
X021361Y001556D03*
D33*
X021503Y001221D03*
X021453Y001179D03*
X021452Y001178D03*
X021561Y001172D03*
X021561Y001171D03*
X021552Y001026D03*
X021642Y001022D03*
X021452Y001029D03*
X021240Y001181D03*
X021239Y001179D03*
X021134Y001136D03*
X021125Y001179D03*
X021123Y001181D03*
X021030Y001184D03*
X020912Y001179D03*
X020910Y001181D03*
X020804Y001174D03*
X020435Y001161D03*
X020334Y001066D03*
X020334Y001064D03*
X020433Y001007D03*
X020433Y001006D03*
X020210Y001130D03*
X020210Y001156D03*
X020210Y001157D03*
X020111Y001156D03*
X020111Y001154D03*
X020111Y001151D03*
X020111Y001149D03*
X020111Y001148D03*
X020111Y001146D03*
X020111Y001145D03*
X020111Y001144D03*
X020111Y001142D03*
X020111Y001141D03*
X020111Y001139D03*
X020111Y001136D03*
X020111Y001134D03*
X020111Y001133D03*
X020111Y001131D03*
X020111Y001130D03*
X020111Y001129D03*
X020111Y001127D03*
X020111Y001126D03*
X020111Y001124D03*
X020111Y001121D03*
X020111Y001119D03*
X020111Y001118D03*
X020111Y001116D03*
X020111Y001115D03*
X020111Y001114D03*
X020111Y001112D03*
X020111Y001111D03*
X020111Y001109D03*
X020111Y001106D03*
X020111Y001104D03*
X020111Y001103D03*
X020111Y001101D03*
X020111Y001100D03*
X020111Y001099D03*
X020111Y001097D03*
X020111Y001096D03*
X020111Y001094D03*
X020111Y001091D03*
X020111Y001089D03*
X020111Y001088D03*
X020111Y001086D03*
X020111Y001085D03*
X020111Y001084D03*
X020111Y001082D03*
X020111Y001081D03*
X020111Y001079D03*
X020111Y001076D03*
X020111Y001074D03*
X020111Y001073D03*
X020111Y001071D03*
X020111Y001070D03*
X019983Y001070D03*
X019983Y001071D03*
X019983Y001073D03*
X019983Y001074D03*
X019983Y001076D03*
X019983Y001079D03*
X019983Y001081D03*
X019983Y001082D03*
X019983Y001084D03*
X019983Y001085D03*
X019983Y001086D03*
X019983Y001088D03*
X019983Y001089D03*
X019983Y001091D03*
X019983Y001094D03*
X019983Y001096D03*
X019983Y001097D03*
X019983Y001099D03*
X019983Y001100D03*
X019983Y001101D03*
X019983Y001103D03*
X019983Y001104D03*
X019983Y001106D03*
X019983Y001109D03*
X019983Y001111D03*
X019983Y001112D03*
X019983Y001114D03*
X019983Y001115D03*
X019983Y001116D03*
X019983Y001118D03*
X019983Y001119D03*
X019983Y001121D03*
X019983Y001124D03*
X019983Y001126D03*
X019983Y001127D03*
X019983Y001129D03*
X019983Y001130D03*
X019983Y001131D03*
X019983Y001133D03*
X019983Y001134D03*
X019983Y001136D03*
X019983Y001139D03*
X019983Y001141D03*
X019983Y001142D03*
X019983Y001144D03*
X019983Y001145D03*
X019983Y001146D03*
X019983Y001148D03*
X019983Y001149D03*
X019983Y001151D03*
X019983Y001154D03*
X019983Y001156D03*
X019983Y001157D03*
X019983Y001159D03*
X019983Y001160D03*
X019983Y001069D03*
X019983Y001067D03*
X019983Y000986D03*
X019983Y000984D03*
X019983Y000983D03*
X019983Y000981D03*
X019983Y000980D03*
X019983Y000979D03*
X019983Y000977D03*
X019983Y000976D03*
X019983Y000974D03*
X019983Y000971D03*
X019983Y000969D03*
X019983Y000968D03*
X019983Y000966D03*
X019983Y000965D03*
X019983Y000964D03*
X019983Y000962D03*
X019983Y000961D03*
X019983Y000959D03*
X019983Y000956D03*
X019983Y000954D03*
X019983Y000953D03*
X019983Y000951D03*
X019983Y000950D03*
X019983Y000949D03*
X019983Y000947D03*
X019983Y000946D03*
X019983Y000944D03*
X019983Y000941D03*
X019983Y000939D03*
X019983Y000938D03*
X019983Y000936D03*
X019983Y000935D03*
X019983Y000934D03*
X019983Y000932D03*
X019983Y000931D03*
X019983Y000929D03*
X019983Y000926D03*
X019983Y000924D03*
X019758Y001066D03*
X019758Y001067D03*
X019757Y001069D03*
X019757Y001070D03*
X019757Y001071D03*
X019757Y001073D03*
X019757Y001074D03*
X019757Y001076D03*
X019757Y001079D03*
X019757Y001081D03*
X019757Y001082D03*
X019757Y001084D03*
X019757Y001085D03*
X019757Y001086D03*
X019757Y001088D03*
X019757Y001089D03*
X019757Y001091D03*
X019757Y001094D03*
X019757Y001096D03*
X019757Y001097D03*
X019757Y001099D03*
X019757Y001100D03*
X019757Y001101D03*
X019757Y001103D03*
X019757Y001104D03*
X019757Y001106D03*
X019757Y001109D03*
X019757Y001111D03*
X019757Y001112D03*
X019757Y001114D03*
X019757Y001115D03*
X019757Y001116D03*
X019757Y001118D03*
X019757Y001119D03*
X019757Y001121D03*
X019757Y001124D03*
X019757Y001126D03*
X019757Y001127D03*
X019757Y001129D03*
X019757Y001130D03*
X019757Y001131D03*
X019757Y001133D03*
X019757Y001134D03*
X019757Y001136D03*
X019757Y001139D03*
X019757Y001141D03*
X019757Y001142D03*
X019757Y001144D03*
X019757Y001145D03*
X019757Y001146D03*
X019757Y001148D03*
X019757Y001149D03*
X019757Y001151D03*
X019757Y001154D03*
X019757Y001156D03*
X019757Y001157D03*
X019757Y001159D03*
X019758Y001160D03*
X019758Y001161D03*
X021875Y001069D03*
X021878Y001024D03*
X021987Y001134D03*
X021983Y001178D03*
X021981Y001179D03*
X021882Y001181D03*
X022094Y001178D03*
X022095Y001179D03*
X022097Y001181D03*
X022145Y001221D03*
X022194Y001181D03*
X022301Y001071D03*
X022310Y001028D03*
X022413Y001175D03*
X022412Y001176D03*
X022409Y001181D03*
X021635Y002901D03*
D34*
X021362Y001558D03*
X021336Y001183D03*
X020909Y001183D03*
X020111Y001153D03*
X020111Y001138D03*
X020111Y001123D03*
X020111Y001108D03*
X020111Y001093D03*
X020111Y001078D03*
X019983Y001078D03*
X019983Y001093D03*
X019983Y001108D03*
X019983Y001123D03*
X019983Y001138D03*
X019983Y001153D03*
X019983Y000988D03*
X019983Y000973D03*
X019983Y000958D03*
X019983Y000943D03*
X019983Y000928D03*
X019757Y001078D03*
X019757Y001093D03*
X019757Y001108D03*
X019757Y001123D03*
X019757Y001138D03*
X019757Y001153D03*
X021884Y001183D03*
X022098Y001183D03*
X022193Y001183D03*
D35*
X021643Y001220D03*
X021057Y000984D03*
X021001Y001129D03*
X020851Y001536D03*
D36*
X021064Y000984D03*
X021496Y000984D03*
X021502Y000984D03*
D37*
X021767Y000984D03*
X021855Y001129D03*
X021941Y001022D03*
X021984Y000986D03*
X022347Y000984D03*
X021084Y001022D03*
X021071Y000984D03*
D38*
X021078Y000984D03*
X021510Y000984D03*
X021918Y000984D03*
X022360Y000984D03*
X022368Y000984D03*
X021672Y001474D03*
X021354Y001544D03*
X020533Y001457D03*
X020350Y001096D03*
D39*
X020423Y000991D03*
X021668Y000984D03*
X021728Y001220D03*
D40*
X021681Y000984D03*
X022356Y000984D03*
D41*
X021929Y000984D03*
X021923Y000984D03*
D42*
X021214Y000986D03*
X020914Y000986D03*
D43*
X021067Y000986D03*
X020806Y001178D03*
X020560Y001171D03*
X020559Y001172D03*
X020440Y001174D03*
X020439Y001171D03*
X020332Y001171D03*
X020332Y001172D03*
X020332Y001169D03*
X020332Y001159D03*
X020332Y001157D03*
X020272Y001235D03*
X020214Y001175D03*
X020214Y001174D03*
X020212Y001171D03*
X020212Y001169D03*
X020212Y001073D03*
X020212Y001056D03*
X020214Y001054D03*
X020214Y001052D03*
X020109Y001058D03*
X020107Y001055D03*
X020106Y001054D03*
X020109Y001169D03*
X020107Y001172D03*
X020106Y001174D03*
X020104Y001176D03*
X020047Y001235D03*
X019987Y001172D03*
X019986Y001171D03*
X019881Y001174D03*
X019762Y001175D03*
X019762Y001176D03*
X019762Y001055D03*
X019762Y001054D03*
X019821Y000992D03*
X019881Y001054D03*
X019986Y001056D03*
X020331Y001051D03*
X020332Y001054D03*
X021457Y001024D03*
X021502Y000986D03*
X021559Y001176D03*
X021789Y001021D03*
X021880Y001022D03*
X021985Y001133D03*
X021976Y001184D03*
X022101Y001184D03*
X022314Y001184D03*
X022416Y001139D03*
X022314Y001024D03*
X021634Y002899D03*
D44*
X020544Y002894D03*
X021672Y001486D03*
X021561Y001174D03*
X021454Y001181D03*
X021453Y001028D03*
X021454Y001026D03*
X021645Y001021D03*
X021717Y001028D03*
X021792Y001022D03*
X021879Y001073D03*
X021924Y000986D03*
X021981Y001181D03*
X022311Y001026D03*
X022312Y001025D03*
X022417Y001141D03*
X022411Y001178D03*
X022410Y001179D03*
X021021Y001071D03*
X020805Y001175D03*
X020562Y001164D03*
X020562Y001163D03*
X020436Y001163D03*
X020436Y001164D03*
X020436Y001166D03*
X020434Y001160D03*
X020434Y001159D03*
X020434Y001157D03*
X020434Y001156D03*
X020434Y001154D03*
X020434Y001151D03*
X020434Y001149D03*
X020434Y001148D03*
X020434Y001146D03*
X020434Y001145D03*
X020434Y001144D03*
X020434Y001142D03*
X020434Y001141D03*
X020434Y001139D03*
X020434Y001136D03*
X020434Y001134D03*
X020434Y001133D03*
X020434Y001131D03*
X020434Y001130D03*
X020434Y001129D03*
X020434Y001127D03*
X020434Y001126D03*
X020434Y001124D03*
X020434Y001121D03*
X020434Y001119D03*
X020434Y001118D03*
X020434Y001116D03*
X020434Y001115D03*
X020434Y001114D03*
X020434Y001112D03*
X020434Y001111D03*
X020434Y001109D03*
X020434Y001106D03*
X020434Y001104D03*
X020434Y001103D03*
X020434Y001101D03*
X020434Y001100D03*
X020434Y001099D03*
X020434Y001097D03*
X020434Y001096D03*
X020434Y001094D03*
X020434Y001091D03*
X020434Y001089D03*
X020434Y001088D03*
X020434Y001086D03*
X020434Y001085D03*
X020434Y001084D03*
X020434Y001082D03*
X020434Y001081D03*
X020434Y001079D03*
X020434Y001076D03*
X020434Y001074D03*
X020434Y001073D03*
X020434Y001071D03*
X020434Y001070D03*
X020434Y001069D03*
X020434Y001067D03*
X020434Y001066D03*
X020434Y001064D03*
X020434Y001061D03*
X020434Y001059D03*
X020434Y001058D03*
X020434Y001056D03*
X020434Y001055D03*
X020434Y001054D03*
X020434Y001052D03*
X020434Y001051D03*
X020434Y001049D03*
X020434Y001046D03*
X020434Y001044D03*
X020434Y001043D03*
X020434Y001041D03*
X020434Y001040D03*
X020434Y001039D03*
X020434Y001037D03*
X020434Y001036D03*
X020434Y001034D03*
X020434Y001031D03*
X020434Y001029D03*
X020434Y001028D03*
X020434Y001026D03*
X020434Y001025D03*
X020434Y001024D03*
X020434Y001022D03*
X020434Y001021D03*
X020434Y001019D03*
X020434Y001016D03*
X020434Y001014D03*
X020434Y001013D03*
X020434Y001011D03*
X020434Y001010D03*
X020434Y001009D03*
X020334Y001059D03*
X020334Y001061D03*
X020211Y001064D03*
X020211Y001066D03*
X020211Y001067D03*
X020211Y001069D03*
X020211Y001129D03*
X020211Y001159D03*
X020211Y001160D03*
X020211Y001161D03*
X020110Y001161D03*
X020110Y001160D03*
X020110Y001159D03*
X020110Y001157D03*
X020110Y001163D03*
X020110Y001164D03*
X020110Y001069D03*
X020110Y001067D03*
X020110Y001066D03*
X020110Y001064D03*
X019984Y001064D03*
X019984Y001066D03*
X019984Y001061D03*
X019984Y000991D03*
X019984Y000989D03*
X019884Y001064D03*
X019884Y001066D03*
X019884Y001067D03*
X019884Y001069D03*
X019884Y001070D03*
X019884Y001071D03*
X019884Y001073D03*
X019884Y001074D03*
X019884Y001076D03*
X019884Y001079D03*
X019884Y001081D03*
X019884Y001082D03*
X019884Y001084D03*
X019884Y001085D03*
X019884Y001086D03*
X019884Y001088D03*
X019884Y001089D03*
X019884Y001091D03*
X019884Y001094D03*
X019884Y001096D03*
X019884Y001097D03*
X019884Y001099D03*
X019884Y001100D03*
X019884Y001101D03*
X019884Y001103D03*
X019884Y001104D03*
X019884Y001106D03*
X019884Y001109D03*
X019884Y001111D03*
X019884Y001112D03*
X019884Y001114D03*
X019884Y001115D03*
X019884Y001116D03*
X019884Y001118D03*
X019884Y001119D03*
X019884Y001121D03*
X019884Y001124D03*
X019884Y001126D03*
X019884Y001127D03*
X019884Y001129D03*
X019884Y001130D03*
X019884Y001131D03*
X019884Y001133D03*
X019884Y001134D03*
X019884Y001136D03*
X019884Y001139D03*
X019884Y001141D03*
X019884Y001142D03*
X019884Y001144D03*
X019884Y001145D03*
X019884Y001146D03*
X019884Y001148D03*
X019884Y001149D03*
X019884Y001151D03*
X019884Y001154D03*
X019884Y001156D03*
X019884Y001157D03*
X019884Y001159D03*
X019884Y001160D03*
X019884Y001161D03*
X019984Y001161D03*
X019984Y001163D03*
X019984Y001164D03*
X019984Y001166D03*
X019759Y001166D03*
X019759Y001164D03*
X019759Y001163D03*
X019759Y001064D03*
X020562Y001007D03*
X020562Y001006D03*
D45*
X022071Y000986D03*
D46*
X022191Y001184D03*
X022404Y001184D03*
X022403Y001022D03*
X022361Y000986D03*
X021887Y001184D03*
X021716Y001026D03*
X021551Y001025D03*
X021549Y001024D03*
X021455Y001025D03*
X021458Y001184D03*
X021560Y001175D03*
X021333Y001184D03*
X021243Y001184D03*
X021023Y001073D03*
X021023Y001022D03*
X020906Y001184D03*
X020805Y001176D03*
X020561Y001169D03*
X020561Y001166D03*
X020439Y001172D03*
X020438Y001169D03*
X020333Y001166D03*
X020333Y001164D03*
X020333Y001163D03*
X020333Y001161D03*
X020333Y001160D03*
X020333Y001058D03*
X020333Y001056D03*
X020333Y001055D03*
X020273Y000992D03*
X020213Y001055D03*
X020211Y001058D03*
X020211Y001059D03*
X020211Y001061D03*
X020211Y001070D03*
X020211Y001071D03*
X020211Y001163D03*
X020211Y001164D03*
X020211Y001166D03*
X020213Y001172D03*
X020109Y001166D03*
X020108Y001171D03*
X020109Y001061D03*
X020109Y001059D03*
X020108Y001056D03*
X019985Y001058D03*
X019985Y001059D03*
X019985Y000992D03*
X019881Y001055D03*
X019881Y001056D03*
X019881Y001058D03*
X019883Y001059D03*
X019883Y001061D03*
X019883Y001163D03*
X019883Y001164D03*
X019883Y001166D03*
X019881Y001169D03*
X019881Y001171D03*
X019881Y001172D03*
X019985Y001169D03*
X019761Y001171D03*
X019761Y001172D03*
X019761Y001174D03*
X019760Y001169D03*
X019760Y001061D03*
X019761Y001059D03*
X019761Y001058D03*
X019761Y001056D03*
X020841Y001551D03*
X021362Y001559D03*
X021635Y002900D03*
D47*
X021349Y001138D03*
X019821Y000988D03*
D48*
X020047Y000988D03*
D49*
X020272Y000988D03*
X022204Y001138D03*
X021636Y002908D03*
D50*
X020807Y001303D03*
X020786Y000988D03*
D51*
X020915Y000988D03*
X021126Y000988D03*
X021215Y000988D03*
X021984Y000988D03*
X022071Y000988D03*
D52*
X021502Y000988D03*
X021067Y000988D03*
X020809Y001183D03*
D53*
X020561Y001168D03*
X020211Y001168D03*
X020109Y001168D03*
X019985Y001168D03*
X019883Y001168D03*
X019883Y001063D03*
X019760Y001063D03*
X019760Y001168D03*
X020211Y001063D03*
X021675Y000988D03*
X021758Y000988D03*
D54*
X021923Y000988D03*
D55*
X022360Y000988D03*
X020445Y001183D03*
X020218Y001183D03*
X019989Y001048D03*
X019876Y001183D03*
D56*
X019821Y000989D03*
X021801Y001049D03*
X021801Y001051D03*
X021801Y001052D03*
X021801Y001054D03*
X021801Y001055D03*
X021801Y001056D03*
X021801Y001058D03*
X021801Y001059D03*
X021801Y001061D03*
X021801Y001064D03*
X021801Y001066D03*
X021801Y001067D03*
X021801Y001069D03*
X021801Y001070D03*
X021801Y001071D03*
X021801Y001073D03*
X021801Y001074D03*
X021801Y001076D03*
X021801Y001079D03*
X021801Y001081D03*
X021801Y001082D03*
X021801Y001084D03*
X021801Y001085D03*
X021801Y001086D03*
X021801Y001088D03*
X021801Y001089D03*
X021801Y001091D03*
X021801Y001094D03*
X021801Y001096D03*
X021801Y001097D03*
X021801Y001099D03*
X021801Y001100D03*
X021801Y001101D03*
X021801Y001103D03*
X021801Y001104D03*
X021801Y001106D03*
X021801Y001109D03*
X021801Y001111D03*
X021801Y001112D03*
X021801Y001114D03*
X021801Y001115D03*
X021801Y001116D03*
X021801Y001118D03*
X021801Y001119D03*
X021801Y001121D03*
X021801Y001124D03*
X021801Y001126D03*
X021801Y001127D03*
X021801Y001129D03*
X021801Y001130D03*
X021801Y001131D03*
X021801Y001133D03*
X021801Y001134D03*
X021801Y001136D03*
X021801Y001139D03*
X021801Y001141D03*
X021801Y001142D03*
X021801Y001144D03*
X021801Y001145D03*
X021801Y001146D03*
X021801Y001148D03*
X021801Y001149D03*
X021801Y001151D03*
X021801Y001154D03*
X021801Y001156D03*
X021801Y001157D03*
X021801Y001159D03*
X021801Y001160D03*
X021801Y001161D03*
X021801Y001163D03*
X021801Y001164D03*
X021801Y001166D03*
X021801Y001169D03*
X021801Y001171D03*
X021801Y001172D03*
X021801Y001174D03*
X021801Y001175D03*
X021801Y001176D03*
X021801Y001178D03*
X021801Y001179D03*
X021801Y001181D03*
X021801Y001184D03*
X021801Y001186D03*
X021801Y001187D03*
X021801Y001189D03*
X021801Y001190D03*
X021801Y001191D03*
X021801Y001193D03*
X021801Y001194D03*
X021801Y001196D03*
X021801Y001199D03*
X021801Y001201D03*
X021801Y001202D03*
X021801Y001204D03*
X021801Y001205D03*
X021801Y001206D03*
D57*
X021718Y001208D03*
X021634Y001208D03*
X021634Y001206D03*
X021634Y001205D03*
X021867Y001142D03*
X021994Y001146D03*
X021994Y001148D03*
X021994Y001149D03*
X021994Y001151D03*
X021994Y001094D03*
X021994Y001091D03*
X021994Y001089D03*
X021994Y001088D03*
X021994Y001086D03*
X021994Y001085D03*
X021994Y001084D03*
X021994Y001082D03*
X021994Y001081D03*
X021994Y001079D03*
X021994Y001076D03*
X021994Y001074D03*
X021994Y001073D03*
X021994Y001071D03*
X021994Y001070D03*
X021994Y001069D03*
X021994Y001067D03*
X021994Y001066D03*
X021994Y001064D03*
X021994Y001061D03*
X021994Y001059D03*
X021994Y001058D03*
X021994Y001056D03*
X021994Y001055D03*
X021994Y001054D03*
X021994Y001052D03*
X021994Y001051D03*
X021994Y001049D03*
X021994Y001046D03*
X021994Y001044D03*
X021994Y001043D03*
X021994Y001041D03*
X021994Y001040D03*
X021994Y001039D03*
X021994Y001037D03*
X021994Y001036D03*
X021994Y001034D03*
X021994Y001031D03*
X021994Y001029D03*
X021994Y001028D03*
X021994Y001026D03*
X021994Y001025D03*
X021994Y001024D03*
X021994Y001022D03*
X021994Y001021D03*
X021994Y001019D03*
X021994Y001016D03*
X021994Y001014D03*
X021994Y001013D03*
X021994Y001011D03*
X021994Y001010D03*
X021994Y001009D03*
X021994Y001007D03*
X021994Y001006D03*
X021994Y001004D03*
X022081Y001004D03*
X022081Y001006D03*
X022081Y001007D03*
X022081Y001009D03*
X022081Y001010D03*
X022081Y001011D03*
X022081Y001013D03*
X022081Y001014D03*
X022081Y001016D03*
X022081Y001019D03*
X022081Y001021D03*
X022081Y001022D03*
X022081Y001024D03*
X022081Y001025D03*
X022081Y001026D03*
X022081Y001028D03*
X022081Y001029D03*
X022081Y001031D03*
X022081Y001034D03*
X022081Y001036D03*
X022081Y001037D03*
X022081Y001039D03*
X022081Y001040D03*
X022081Y001041D03*
X022081Y001043D03*
X022081Y001044D03*
X022081Y001046D03*
X022081Y001049D03*
X022081Y001051D03*
X022081Y001052D03*
X022081Y001054D03*
X022081Y001055D03*
X022081Y001056D03*
X022081Y001058D03*
X022081Y001059D03*
X022081Y001061D03*
X022081Y001064D03*
X022081Y001066D03*
X022081Y001067D03*
X022081Y001069D03*
X022081Y001070D03*
X022081Y001071D03*
X022081Y001073D03*
X022081Y001074D03*
X022081Y001076D03*
X022081Y001079D03*
X022081Y001081D03*
X022081Y001082D03*
X022081Y001084D03*
X022081Y001085D03*
X022081Y001086D03*
X022081Y001088D03*
X022081Y001089D03*
X022081Y001091D03*
X022081Y001094D03*
X022081Y001096D03*
X022081Y001097D03*
X022081Y001099D03*
X022081Y001100D03*
X022081Y001101D03*
X022081Y001103D03*
X022081Y001104D03*
X022081Y001106D03*
X022081Y001109D03*
X022081Y001111D03*
X022081Y001112D03*
X022081Y001114D03*
X022081Y001115D03*
X022081Y001116D03*
X022081Y001118D03*
X022081Y001119D03*
X022081Y001121D03*
X022081Y001124D03*
X022081Y001126D03*
X022081Y001127D03*
X022081Y001129D03*
X022081Y001130D03*
X022081Y001131D03*
X022081Y001133D03*
X022081Y001134D03*
X022081Y001136D03*
X022081Y001139D03*
X022081Y001141D03*
X022081Y001142D03*
X022081Y001144D03*
X022081Y001145D03*
X022081Y001146D03*
X022081Y001148D03*
X022083Y001154D03*
X022207Y001142D03*
X022081Y001001D03*
X022081Y000999D03*
X022425Y001067D03*
X022425Y001069D03*
X021352Y001145D03*
X021352Y001146D03*
X021352Y001148D03*
X021225Y000999D03*
X021010Y001139D03*
X021010Y001141D03*
X021010Y001142D03*
X021012Y001149D03*
X021012Y001151D03*
X020925Y001142D03*
X020925Y001141D03*
X020925Y001139D03*
X020925Y001136D03*
X020925Y001134D03*
X020925Y001133D03*
X020925Y001131D03*
X020925Y001130D03*
X020925Y001129D03*
X020925Y001127D03*
X020925Y001126D03*
X020925Y001124D03*
X020925Y001121D03*
X020925Y001119D03*
X020925Y001118D03*
X020925Y001116D03*
X020925Y001115D03*
X020925Y001114D03*
X020925Y001112D03*
X020925Y001111D03*
X020925Y001109D03*
X020925Y001106D03*
X020925Y001104D03*
X020925Y001103D03*
X020925Y001101D03*
X020925Y001100D03*
X020925Y001099D03*
X020925Y001097D03*
X020925Y001096D03*
X020925Y001094D03*
X020925Y001091D03*
X020925Y001089D03*
X020925Y001088D03*
X020925Y001086D03*
X020925Y001085D03*
X020925Y001084D03*
X020925Y001082D03*
X020925Y001081D03*
X020925Y001079D03*
X020925Y001076D03*
X020925Y001074D03*
X020925Y001073D03*
X020925Y001071D03*
X020925Y001070D03*
X020925Y001069D03*
X020925Y001067D03*
X020925Y001066D03*
X020925Y001064D03*
X020925Y001061D03*
X020925Y001059D03*
X020925Y001058D03*
X020925Y001056D03*
X020925Y001055D03*
X020925Y001054D03*
X020925Y001052D03*
X020925Y001051D03*
X020925Y001049D03*
X020925Y001046D03*
X020925Y001044D03*
X020925Y001043D03*
X020925Y001041D03*
X020925Y001040D03*
X020925Y001039D03*
X020925Y001037D03*
X020925Y001036D03*
X020925Y001034D03*
X020925Y001031D03*
X020925Y001029D03*
X020925Y001028D03*
X020925Y001026D03*
X020925Y001025D03*
X020925Y001024D03*
X020925Y001022D03*
X020925Y001021D03*
X020925Y001019D03*
X020925Y001016D03*
X020925Y001014D03*
X020925Y001013D03*
X020925Y001011D03*
X020925Y001010D03*
X020925Y001009D03*
X020797Y001006D03*
X020797Y001004D03*
X020797Y001001D03*
X020797Y000999D03*
X020799Y001291D03*
X020341Y001086D03*
X020272Y000989D03*
X020047Y000989D03*
D58*
X020533Y001459D03*
X020787Y000989D03*
X021643Y001219D03*
D59*
X021466Y001189D03*
X021327Y001189D03*
X021127Y001131D03*
X021115Y001187D03*
X021067Y000989D03*
X020862Y001219D03*
X020550Y001186D03*
X020548Y001187D03*
X020448Y001186D03*
X020326Y001184D03*
X020325Y001186D03*
X020221Y001186D03*
X020322Y001040D03*
X020320Y001039D03*
X020098Y001041D03*
X019990Y001044D03*
X019770Y001041D03*
X019768Y001043D03*
X019768Y001186D03*
X020535Y001474D03*
X020836Y001554D03*
X021367Y001564D03*
X021888Y001079D03*
X021924Y000989D03*
X022308Y001076D03*
X022320Y001021D03*
X022396Y001019D03*
X022321Y001189D03*
X022359Y001219D03*
D60*
X022323Y001190D03*
X022397Y001189D03*
X022359Y000989D03*
X022107Y001189D03*
X021968Y001189D03*
X021932Y001219D03*
X021897Y001190D03*
X021980Y001130D03*
X021888Y001081D03*
X021758Y000992D03*
X021675Y000992D03*
X021503Y000989D03*
X021554Y001184D03*
X021503Y001219D03*
X021468Y001190D03*
X021113Y001189D03*
X021075Y001219D03*
X021030Y001079D03*
X020547Y001189D03*
X020498Y001234D03*
X020448Y001187D03*
X020217Y001079D03*
X020220Y001041D03*
X020273Y000994D03*
X020097Y001040D03*
X020097Y001187D03*
X020096Y001189D03*
X020048Y001234D03*
X019998Y001189D03*
X019997Y001187D03*
X019871Y001187D03*
X019770Y001187D03*
X019872Y001041D03*
X021671Y001491D03*
X020544Y002889D03*
D61*
X020442Y001179D03*
X020442Y001178D03*
X020441Y001176D03*
X020441Y001175D03*
X021120Y001184D03*
X021461Y001186D03*
X021675Y000989D03*
X021881Y001074D03*
X022316Y001022D03*
D62*
X021890Y001186D03*
X021758Y000989D03*
X021558Y001178D03*
X021033Y001186D03*
X020903Y001186D03*
X020807Y001179D03*
X020558Y001174D03*
X020556Y001176D03*
X020498Y001235D03*
X020331Y001174D03*
X020331Y001156D03*
X020331Y001052D03*
X020330Y001049D03*
X020214Y001051D03*
X020105Y001051D03*
X020105Y001052D03*
X020103Y001049D03*
X020046Y000992D03*
X019986Y000994D03*
X019986Y001055D03*
X019880Y001052D03*
X019763Y001052D03*
X019763Y001178D03*
X019764Y001179D03*
X019880Y001175D03*
X019988Y001174D03*
X019989Y001176D03*
X020103Y001178D03*
X020103Y001179D03*
X020105Y001175D03*
X020214Y001176D03*
X021363Y001561D03*
D63*
X021288Y001223D03*
X021346Y001134D03*
X021502Y001223D03*
X021727Y001219D03*
X021985Y000989D03*
X022072Y000989D03*
X022432Y001076D03*
X021003Y001131D03*
X020916Y000991D03*
X020851Y001539D03*
D64*
X020844Y001547D03*
X020499Y001238D03*
X020557Y001001D03*
X020272Y000991D03*
X020917Y001171D03*
X020919Y001166D03*
X021018Y001169D03*
X021138Y001154D03*
X021138Y001144D03*
X021138Y001096D03*
X021138Y001094D03*
X021228Y001159D03*
X021228Y001160D03*
X021228Y001161D03*
X021229Y001164D03*
X021229Y001166D03*
X021348Y001166D03*
X021348Y001164D03*
X021561Y001040D03*
X021562Y001041D03*
X021637Y001034D03*
X021637Y001031D03*
X021637Y001029D03*
X021798Y001034D03*
X021798Y001036D03*
X021798Y001037D03*
X021876Y001171D03*
X022087Y001166D03*
X022206Y001166D03*
X022206Y001164D03*
X022206Y001163D03*
X022207Y001160D03*
X022207Y001159D03*
X022207Y001157D03*
X022297Y001157D03*
X022297Y001156D03*
X022299Y001163D03*
X022299Y001164D03*
X022297Y001114D03*
X022297Y001112D03*
X022297Y001064D03*
X022297Y001052D03*
X022297Y001051D03*
X022297Y001049D03*
X022299Y001046D03*
X022299Y001044D03*
X022416Y001036D03*
X022417Y001039D03*
X022417Y001040D03*
X022417Y001041D03*
X022419Y001044D03*
X022419Y001163D03*
X022419Y001164D03*
D65*
X021643Y001217D03*
X020788Y000991D03*
D66*
X021035Y001082D03*
X021066Y000991D03*
X021125Y001130D03*
X021110Y001190D03*
X020451Y001190D03*
X020450Y001189D03*
X020225Y001039D03*
X020000Y001191D03*
X019866Y001036D03*
X019775Y001191D03*
X022145Y001219D03*
D67*
X022201Y001134D03*
X022074Y000992D03*
X021726Y001216D03*
X021129Y000991D03*
X020917Y000992D03*
X020805Y001301D03*
X020424Y000994D03*
D68*
X020453Y001191D03*
X020318Y001191D03*
X020093Y001191D03*
X020093Y001036D03*
X019776Y001036D03*
X021038Y001084D03*
X021123Y001129D03*
X021503Y001216D03*
X021503Y000991D03*
X021758Y000994D03*
X021893Y001084D03*
X022145Y001217D03*
X022311Y001081D03*
D69*
X021885Y001076D03*
X021895Y001189D03*
X021759Y000991D03*
X021717Y001024D03*
X021675Y000991D03*
X021672Y001490D03*
X020551Y001184D03*
X020446Y001184D03*
X020328Y001181D03*
X020326Y001043D03*
X020218Y001044D03*
X020217Y001046D03*
X020215Y001076D03*
X019989Y001049D03*
X019876Y001046D03*
X019767Y001046D03*
X019875Y001184D03*
X019995Y001184D03*
D70*
X020094Y001190D03*
X020094Y001037D03*
X020219Y001081D03*
X020321Y001189D03*
X020544Y001191D03*
X020813Y001186D03*
X021503Y001217D03*
X021932Y001217D03*
X021978Y001129D03*
X021923Y000991D03*
X020835Y001556D03*
X019868Y001190D03*
X019773Y001190D03*
X019868Y001037D03*
X020544Y002888D03*
D71*
X020544Y002886D03*
X021369Y001566D03*
X021075Y001217D03*
X021977Y001127D03*
X022359Y000991D03*
X022407Y001131D03*
D72*
X021931Y001223D03*
X021856Y001130D03*
X021001Y001130D03*
X020860Y001223D03*
X020851Y001538D03*
X020422Y000992D03*
D73*
X020549Y000992D03*
X021809Y001219D03*
X022199Y001133D03*
D74*
X021987Y000992D03*
X020789Y000992D03*
X020849Y001541D03*
D75*
X021289Y001217D03*
X021066Y000992D03*
X020316Y001034D03*
X020227Y001036D03*
X020226Y001037D03*
X020227Y001191D03*
X019866Y001191D03*
X019774Y001037D03*
X022311Y001079D03*
X022324Y001019D03*
D76*
X021724Y001214D03*
X021348Y001136D03*
X021130Y000992D03*
X021082Y001021D03*
X020551Y000994D03*
X021354Y001549D03*
D77*
X022144Y001216D03*
X022405Y001130D03*
X022359Y000992D03*
X021921Y000994D03*
X021504Y000992D03*
X021549Y001187D03*
X021121Y001126D03*
X021064Y000994D03*
X020089Y001193D03*
X019996Y001037D03*
D78*
X019864Y001034D03*
X020004Y001193D03*
X021922Y000992D03*
X022359Y001216D03*
D79*
X021966Y001190D03*
X021891Y001082D03*
X020226Y001190D03*
X019821Y001234D03*
X019821Y000994D03*
D80*
X019869Y001039D03*
X019870Y001040D03*
X019771Y001040D03*
X019771Y001189D03*
X019869Y001189D03*
X019999Y001190D03*
X019992Y001043D03*
X020047Y000994D03*
X020095Y001039D03*
X020223Y001040D03*
X020317Y001036D03*
X020319Y001037D03*
X020323Y001187D03*
X020272Y001234D03*
X020224Y001189D03*
X020223Y001187D03*
X020547Y001190D03*
X020896Y001190D03*
X021040Y001190D03*
X021033Y001081D03*
X021252Y001189D03*
X021289Y001219D03*
X021325Y001190D03*
X021468Y001019D03*
X021540Y001019D03*
X021717Y001022D03*
X022110Y001190D03*
X022183Y001189D03*
X022395Y001190D03*
X022410Y001133D03*
X021634Y002894D03*
D81*
X020533Y001461D03*
X020803Y001298D03*
X020791Y000994D03*
X021132Y000994D03*
X021990Y000994D03*
D82*
X021918Y000998D03*
X021504Y000994D03*
X021061Y000996D03*
X020227Y001086D03*
X020545Y002882D03*
D83*
X020535Y001475D03*
X020862Y001217D03*
X021255Y001190D03*
X021552Y001186D03*
X021675Y000994D03*
X021670Y001493D03*
X021369Y001565D03*
X022180Y001190D03*
X022359Y001217D03*
X020325Y001151D03*
X020320Y001190D03*
X020220Y001082D03*
X019993Y001041D03*
X019773Y001039D03*
D84*
X022076Y000994D03*
D85*
X021906Y001091D03*
X021904Y001089D03*
X021756Y000995D03*
X022359Y000994D03*
X022399Y001124D03*
X021049Y001091D03*
X021048Y001089D03*
X020319Y001144D03*
X020535Y001481D03*
X020830Y001562D03*
D86*
X020535Y001479D03*
X020497Y001232D03*
X020320Y001145D03*
X020272Y001232D03*
X020047Y001232D03*
X019998Y001036D03*
X019821Y000995D03*
X019821Y001232D03*
X021289Y001214D03*
X021502Y001214D03*
X021547Y001189D03*
X021676Y000995D03*
X021717Y001021D03*
X021931Y001214D03*
X022359Y001214D03*
X022402Y001127D03*
X022401Y001126D03*
D87*
X021503Y001011D03*
X020843Y001211D03*
X020498Y001214D03*
X020538Y001499D03*
X020022Y000995D03*
X020547Y002864D03*
X021630Y002871D03*
D88*
X021633Y002891D03*
X021669Y001496D03*
X022314Y001084D03*
X022403Y001129D03*
X020273Y000995D03*
X019862Y001193D03*
D89*
X020426Y000995D03*
X021672Y001478D03*
D90*
X021571Y001296D03*
X021864Y001136D03*
X021991Y000995D03*
X021222Y000995D03*
X020922Y000995D03*
X020802Y001296D03*
X020500Y001239D03*
X020553Y000995D03*
D91*
X020794Y000995D03*
X021351Y001141D03*
D92*
X021119Y001124D03*
X021045Y001088D03*
X021063Y000995D03*
X021075Y001214D03*
X020819Y001190D03*
X020225Y001085D03*
X021372Y001571D03*
X022145Y001214D03*
X021902Y001088D03*
X021900Y001086D03*
X021918Y000995D03*
X021633Y002889D03*
X020544Y002884D03*
D93*
X020536Y001484D03*
X020499Y001229D03*
X020230Y001091D03*
X021055Y001004D03*
X021063Y001097D03*
X021504Y000995D03*
X021913Y001004D03*
X022359Y000995D03*
X022368Y001109D03*
X021669Y001502D03*
D94*
X021672Y001479D03*
X021570Y001295D03*
X021720Y001211D03*
X021803Y001211D03*
X022079Y000995D03*
X022427Y001071D03*
X021356Y001551D03*
X020801Y001295D03*
X020922Y000996D03*
X020343Y001089D03*
D95*
X020228Y001088D03*
X020273Y000996D03*
X020498Y001231D03*
X020046Y001231D03*
X019821Y000996D03*
X020828Y001564D03*
X021669Y001501D03*
X021969Y001121D03*
X021917Y000999D03*
X021633Y002886D03*
D96*
X021630Y002870D03*
X020844Y001209D03*
X020024Y000996D03*
X021932Y001193D03*
X022359Y001014D03*
D97*
X021993Y000996D03*
X021802Y001209D03*
X021223Y000996D03*
X021009Y001136D03*
X020923Y000998D03*
X020800Y001294D03*
X020533Y001463D03*
X020554Y000996D03*
X020427Y000996D03*
X020542Y002901D03*
D98*
X021636Y001211D03*
X021351Y001142D03*
X020796Y000996D03*
X022206Y001141D03*
D99*
X022208Y001144D03*
X022208Y001145D03*
X022083Y001156D03*
X022083Y001157D03*
X022082Y001151D03*
X022082Y001149D03*
X021993Y001145D03*
X021993Y001144D03*
X021993Y001154D03*
X021993Y001156D03*
X021993Y001157D03*
X021993Y001099D03*
X021993Y001097D03*
X021993Y001096D03*
X021867Y001144D03*
X021867Y001145D03*
X021717Y001145D03*
X021717Y001146D03*
X021717Y001148D03*
X021717Y001149D03*
X021717Y001151D03*
X021717Y001154D03*
X021717Y001156D03*
X021717Y001157D03*
X021717Y001159D03*
X021717Y001160D03*
X021717Y001161D03*
X021717Y001163D03*
X021717Y001164D03*
X021717Y001166D03*
X021717Y001169D03*
X021717Y001171D03*
X021717Y001172D03*
X021717Y001174D03*
X021717Y001175D03*
X021717Y001176D03*
X021717Y001178D03*
X021717Y001179D03*
X021717Y001181D03*
X021717Y001184D03*
X021717Y001186D03*
X021717Y001187D03*
X021717Y001189D03*
X021717Y001190D03*
X021717Y001191D03*
X021717Y001193D03*
X021717Y001194D03*
X021717Y001196D03*
X021717Y001199D03*
X021717Y001201D03*
X021717Y001202D03*
X021717Y001204D03*
X021717Y001205D03*
X021717Y001206D03*
X021717Y001144D03*
X021717Y001142D03*
X021717Y001141D03*
X021717Y001139D03*
X021717Y001136D03*
X021717Y001134D03*
X021717Y001133D03*
X021717Y001131D03*
X021717Y001130D03*
X021717Y001129D03*
X021717Y001127D03*
X021717Y001126D03*
X021717Y001124D03*
X021717Y001121D03*
X021717Y001119D03*
X021717Y001118D03*
X021717Y001116D03*
X021717Y001115D03*
X021717Y001114D03*
X021633Y001114D03*
X021633Y001115D03*
X021633Y001116D03*
X021633Y001118D03*
X021633Y001119D03*
X021633Y001121D03*
X021633Y001124D03*
X021633Y001126D03*
X021633Y001127D03*
X021633Y001129D03*
X021633Y001130D03*
X021633Y001131D03*
X021633Y001133D03*
X021633Y001134D03*
X021633Y001136D03*
X021633Y001139D03*
X021633Y001141D03*
X021633Y001142D03*
X021633Y001144D03*
X021633Y001145D03*
X021633Y001146D03*
X021633Y001148D03*
X021633Y001149D03*
X021633Y001151D03*
X021633Y001154D03*
X021633Y001156D03*
X021633Y001157D03*
X021633Y001159D03*
X021633Y001160D03*
X021633Y001161D03*
X021633Y001163D03*
X021633Y001164D03*
X021633Y001166D03*
X021633Y001169D03*
X021633Y001171D03*
X021633Y001172D03*
X021633Y001174D03*
X021633Y001175D03*
X021633Y001176D03*
X021633Y001178D03*
X021633Y001179D03*
X021633Y001181D03*
X021633Y001184D03*
X021633Y001186D03*
X021633Y001187D03*
X021633Y001189D03*
X021633Y001190D03*
X021633Y001191D03*
X021633Y001193D03*
X021633Y001194D03*
X021633Y001196D03*
X021633Y001199D03*
X021633Y001201D03*
X021633Y001202D03*
X021633Y001204D03*
X021633Y001112D03*
X021633Y001111D03*
X021633Y001109D03*
X021633Y001106D03*
X021633Y001104D03*
X021633Y001103D03*
X021633Y001101D03*
X021633Y001100D03*
X021633Y001099D03*
X021633Y001097D03*
X021633Y001096D03*
X021633Y001094D03*
X021633Y001091D03*
X021633Y001089D03*
X021633Y001088D03*
X021633Y001086D03*
X021633Y001085D03*
X021633Y001084D03*
X021633Y001082D03*
X021633Y001081D03*
X021633Y001079D03*
X021633Y001076D03*
X021633Y001074D03*
X021633Y001073D03*
X021633Y001071D03*
X021633Y001070D03*
X021633Y001069D03*
X021633Y001067D03*
X021633Y001066D03*
X021633Y001064D03*
X021633Y001061D03*
X021633Y001059D03*
X021633Y001058D03*
X021633Y001056D03*
X021633Y001055D03*
X021633Y001054D03*
X021633Y001052D03*
X021633Y001051D03*
X021633Y001049D03*
X021633Y001046D03*
X021567Y001292D03*
X021353Y001151D03*
X021353Y001149D03*
X021225Y001004D03*
X021225Y001001D03*
X021137Y000996D03*
X021011Y001046D03*
X021011Y001049D03*
X021011Y001051D03*
X021011Y001144D03*
X021011Y001145D03*
X021011Y001146D03*
X021011Y001148D03*
X021012Y001154D03*
X021012Y001156D03*
X021014Y001157D03*
X021014Y001159D03*
X020924Y001154D03*
X020924Y001151D03*
X020924Y001149D03*
X020924Y001148D03*
X020924Y001146D03*
X020924Y001145D03*
X020924Y001144D03*
X020922Y001159D03*
X020798Y001146D03*
X020798Y001145D03*
X020798Y001144D03*
X020798Y001142D03*
X020798Y001141D03*
X020798Y001139D03*
X020798Y001136D03*
X020798Y001134D03*
X020798Y001133D03*
X020798Y001131D03*
X020798Y001130D03*
X020798Y001129D03*
X020798Y001127D03*
X020798Y001126D03*
X020798Y001124D03*
X020798Y001121D03*
X020798Y001119D03*
X020798Y001118D03*
X020798Y001116D03*
X020798Y001115D03*
X020798Y001114D03*
X020798Y001112D03*
X020798Y001111D03*
X020798Y001109D03*
X020798Y001106D03*
X020798Y001104D03*
X020798Y001103D03*
X020798Y001101D03*
X020798Y001100D03*
X020798Y001099D03*
X020798Y001097D03*
X020798Y001096D03*
X020798Y001094D03*
X020798Y001091D03*
X020798Y001089D03*
X020798Y001088D03*
X020798Y001086D03*
X020798Y001085D03*
X020798Y001084D03*
X020798Y001082D03*
X020798Y001081D03*
X020798Y001079D03*
X020798Y001076D03*
X020798Y001074D03*
X020798Y001073D03*
X020798Y001071D03*
X020798Y001070D03*
X020798Y001069D03*
X020798Y001067D03*
X020798Y001066D03*
X020798Y001064D03*
X020798Y001061D03*
X020798Y001059D03*
X020798Y001058D03*
X020798Y001056D03*
X020798Y001055D03*
X020798Y001054D03*
X020798Y001052D03*
X020798Y001051D03*
X020798Y001049D03*
X020798Y001046D03*
X020798Y001044D03*
X020798Y001043D03*
X020798Y001041D03*
X020798Y001040D03*
X020798Y001039D03*
X020798Y001037D03*
X020798Y001036D03*
X020798Y001034D03*
X020798Y001031D03*
X020798Y001029D03*
X020798Y001028D03*
X020798Y001026D03*
X020798Y001025D03*
X020798Y001024D03*
X020798Y001022D03*
X020798Y001021D03*
X020798Y001019D03*
X020798Y001016D03*
X020798Y001014D03*
X020798Y001013D03*
X020798Y001011D03*
X020798Y001010D03*
X020798Y001009D03*
X020798Y001007D03*
X020798Y001219D03*
X020798Y001220D03*
X020798Y001221D03*
X020798Y001223D03*
X020798Y001224D03*
X020798Y001226D03*
X020798Y001229D03*
X020798Y001231D03*
X020798Y001232D03*
X020798Y001234D03*
X020798Y001235D03*
X020798Y001236D03*
X020798Y001238D03*
X020798Y001239D03*
X020798Y001241D03*
X020798Y001244D03*
X020798Y001246D03*
X020798Y001247D03*
X020798Y001249D03*
X020798Y001250D03*
X020798Y001251D03*
X020798Y001253D03*
X020798Y001254D03*
X020798Y001256D03*
X020798Y001259D03*
X020798Y001261D03*
X020798Y001262D03*
X020798Y001264D03*
X020798Y001265D03*
X020798Y001266D03*
X020798Y001268D03*
X020798Y001269D03*
X020798Y001271D03*
X020798Y001274D03*
X020798Y001276D03*
X020798Y001277D03*
X020798Y001279D03*
X020798Y001280D03*
X020798Y001281D03*
X020798Y001284D03*
X020798Y001286D03*
X020798Y001289D03*
X020844Y001546D03*
X020273Y001238D03*
X020340Y001085D03*
X020427Y000998D03*
X022421Y001051D03*
X022422Y001054D03*
X022422Y001055D03*
X022422Y001056D03*
X022424Y001058D03*
X022424Y001059D03*
X022424Y001061D03*
X022424Y001064D03*
X022424Y001066D03*
X022422Y001149D03*
X022422Y001151D03*
X022421Y001156D03*
X020543Y002900D03*
D100*
X020825Y001568D03*
X021075Y001211D03*
X021111Y001118D03*
X021051Y001011D03*
X021288Y001211D03*
X021503Y000996D03*
X021909Y001010D03*
X021965Y001116D03*
X022359Y001211D03*
X021668Y001504D03*
X020312Y001139D03*
D101*
X020040Y001025D03*
X021717Y000996D03*
X021085Y003092D03*
D102*
X021633Y002888D03*
X021669Y001499D03*
X021545Y001190D03*
X021918Y000996D03*
X020000Y001034D03*
D103*
X020233Y001094D03*
X020272Y001001D03*
X020536Y001486D03*
X020824Y001569D03*
X021378Y001577D03*
X021903Y001019D03*
X021904Y001016D03*
X021907Y001013D03*
X021909Y001011D03*
X022359Y000996D03*
X020545Y002876D03*
D104*
X020826Y001565D03*
X020272Y000998D03*
X020047Y001229D03*
X019821Y000998D03*
X021967Y001119D03*
D105*
X021075Y001191D03*
X020846Y001206D03*
X020025Y000998D03*
X021630Y002869D03*
D106*
X021441Y001159D03*
X021441Y001157D03*
X021351Y001154D03*
X021440Y001055D03*
X021440Y001054D03*
X021441Y001051D03*
X021441Y001049D03*
X021635Y001044D03*
X021635Y001043D03*
X021800Y001046D03*
X020555Y000998D03*
D107*
X021060Y000998D03*
X021056Y001094D03*
X021912Y001094D03*
X022319Y001086D03*
D108*
X022420Y001049D03*
X022422Y001052D03*
X022423Y001148D03*
X022422Y001154D03*
X022420Y001157D03*
X022420Y001159D03*
X022209Y001148D03*
X022209Y001146D03*
X021993Y001142D03*
X021993Y001159D03*
X021993Y001160D03*
X021993Y001100D03*
X021868Y001146D03*
X021868Y001148D03*
X021868Y001149D03*
X021868Y001151D03*
X021870Y001157D03*
X021870Y001159D03*
X021870Y001160D03*
X021871Y001161D03*
X021871Y001163D03*
X021873Y001164D03*
X021717Y001112D03*
X021717Y001111D03*
X021717Y001109D03*
X021717Y001106D03*
X021717Y001104D03*
X021717Y001103D03*
X021717Y001101D03*
X021717Y001100D03*
X021717Y001099D03*
X021717Y001097D03*
X021717Y001091D03*
X021717Y001086D03*
X021717Y001085D03*
X021717Y001084D03*
X021717Y001081D03*
X021717Y001079D03*
X021717Y001076D03*
X021717Y001071D03*
X021717Y001069D03*
X021717Y001067D03*
X021717Y001066D03*
X021717Y001061D03*
X021717Y001056D03*
X021717Y001055D03*
X021717Y001054D03*
X021717Y001052D03*
X021717Y001051D03*
X021717Y001049D03*
X021567Y001061D03*
X021567Y001064D03*
X021567Y001066D03*
X021567Y001067D03*
X021567Y001070D03*
X021567Y001071D03*
X021567Y001074D03*
X021567Y001082D03*
X021567Y001084D03*
X021567Y001085D03*
X021567Y001086D03*
X021567Y001089D03*
X021567Y001094D03*
X021567Y001096D03*
X021567Y001097D03*
X021567Y001099D03*
X021567Y001100D03*
X021567Y001103D03*
X021567Y001104D03*
X021567Y001106D03*
X021567Y001111D03*
X021567Y001114D03*
X021567Y001115D03*
X021567Y001118D03*
X021567Y001121D03*
X021567Y001124D03*
X021567Y001126D03*
X021567Y001127D03*
X021567Y001129D03*
X021567Y001131D03*
X021567Y001133D03*
X021567Y001134D03*
X021567Y001136D03*
X021567Y001141D03*
X021567Y001142D03*
X021567Y001144D03*
X021567Y001145D03*
X021567Y001231D03*
X021567Y001232D03*
X021567Y001234D03*
X021567Y001235D03*
X021567Y001238D03*
X021567Y001239D03*
X021567Y001244D03*
X021567Y001247D03*
X021567Y001251D03*
X021567Y001253D03*
X021567Y001256D03*
X021567Y001259D03*
X021567Y001262D03*
X021567Y001264D03*
X021567Y001265D03*
X021567Y001268D03*
X021567Y001271D03*
X021567Y001274D03*
X021567Y001276D03*
X021567Y001277D03*
X021567Y001289D03*
X021567Y001291D03*
X021444Y001161D03*
X021444Y001044D03*
X021565Y001049D03*
X021226Y001049D03*
X021226Y001051D03*
X021226Y001052D03*
X021226Y001054D03*
X021226Y001055D03*
X021226Y001056D03*
X021226Y001058D03*
X021226Y001059D03*
X021226Y001061D03*
X021226Y001064D03*
X021226Y001066D03*
X021226Y001067D03*
X021226Y001069D03*
X021226Y001070D03*
X021226Y001071D03*
X021226Y001073D03*
X021226Y001074D03*
X021226Y001076D03*
X021226Y001079D03*
X021226Y001081D03*
X021226Y001082D03*
X021226Y001084D03*
X021226Y001085D03*
X021226Y001086D03*
X021226Y001088D03*
X021226Y001089D03*
X021226Y001091D03*
X021226Y001094D03*
X021226Y001096D03*
X021226Y001097D03*
X021226Y001099D03*
X021226Y001100D03*
X021226Y001101D03*
X021226Y001103D03*
X021226Y001104D03*
X021226Y001106D03*
X021226Y001109D03*
X021226Y001111D03*
X021226Y001112D03*
X021226Y001114D03*
X021226Y001115D03*
X021226Y001116D03*
X021226Y001118D03*
X021226Y001119D03*
X021226Y001121D03*
X021226Y001124D03*
X021226Y001126D03*
X021226Y001127D03*
X021226Y001129D03*
X021226Y001130D03*
X021226Y001131D03*
X021226Y001133D03*
X021226Y001134D03*
X021226Y001136D03*
X021226Y001139D03*
X021226Y001141D03*
X021226Y001142D03*
X021226Y001144D03*
X021226Y001145D03*
X021226Y001146D03*
X021226Y001148D03*
X021226Y001046D03*
X021226Y001044D03*
X021226Y001043D03*
X021226Y001041D03*
X021226Y001040D03*
X021226Y001039D03*
X021226Y001037D03*
X021226Y001036D03*
X021226Y001034D03*
X021226Y001031D03*
X021226Y001029D03*
X021226Y001028D03*
X021226Y001026D03*
X021226Y001025D03*
X021226Y001024D03*
X021226Y001022D03*
X021226Y001021D03*
X021226Y001019D03*
X021226Y001016D03*
X021226Y001014D03*
X021226Y001013D03*
X021226Y001011D03*
X021226Y001010D03*
X021226Y001009D03*
X021226Y001007D03*
X021226Y001006D03*
X021138Y000999D03*
X021138Y000998D03*
X021012Y001043D03*
X021012Y001044D03*
X021012Y001052D03*
X021012Y001054D03*
X021015Y001160D03*
X020923Y001157D03*
X020923Y001156D03*
X020922Y001160D03*
X020799Y001157D03*
X020799Y001156D03*
X020799Y001154D03*
X020799Y001151D03*
X020799Y001149D03*
X020799Y001148D03*
X020799Y001217D03*
X020533Y001464D03*
X021358Y001553D03*
D109*
X021669Y001505D03*
X020823Y001571D03*
X020536Y001487D03*
X020310Y001136D03*
X021504Y000998D03*
X022359Y000998D03*
X022359Y001209D03*
X021633Y002882D03*
X021075Y003094D03*
D110*
X021717Y000998D03*
D111*
X019821Y000999D03*
D112*
X020026Y000999D03*
X020046Y001211D03*
X020499Y001211D03*
X020539Y001502D03*
X021289Y001191D03*
X021519Y001206D03*
X021391Y001596D03*
X022360Y001191D03*
D113*
X022323Y001091D03*
X021927Y001101D03*
X021910Y001009D03*
X021912Y001007D03*
X021112Y001119D03*
X021067Y001100D03*
X021052Y001010D03*
X021052Y001009D03*
X021054Y001007D03*
X020272Y000999D03*
X021633Y002884D03*
D114*
X021636Y002904D03*
X020797Y001283D03*
X020556Y000999D03*
X021351Y001156D03*
X021351Y001157D03*
X021439Y001151D03*
X021439Y001149D03*
X021439Y001148D03*
X021439Y001146D03*
X021439Y001145D03*
X021439Y001144D03*
X021441Y001154D03*
X021441Y001156D03*
X021442Y001160D03*
X021439Y001064D03*
X021439Y001061D03*
X021439Y001059D03*
X021439Y001058D03*
X021439Y001056D03*
X021441Y001052D03*
X021442Y001046D03*
X021636Y001041D03*
X021636Y001040D03*
X021799Y001043D03*
X021799Y001044D03*
X022084Y001159D03*
X022084Y001160D03*
X022086Y001161D03*
D115*
X021916Y001001D03*
X022377Y001114D03*
X021376Y001574D03*
X021060Y000999D03*
X020545Y002881D03*
D116*
X020499Y001224D03*
X019821Y001224D03*
X021289Y001208D03*
X021504Y000999D03*
X022146Y001208D03*
X022359Y001208D03*
X022359Y000999D03*
D117*
X021717Y000999D03*
X020541Y001514D03*
D118*
X021051Y001013D03*
X021906Y001014D03*
X022146Y001211D03*
X019821Y001001D03*
D119*
X020027Y001001D03*
X020271Y001019D03*
X020253Y001112D03*
X020273Y001209D03*
X020811Y001586D03*
X021665Y001521D03*
X021518Y001205D03*
X021630Y002867D03*
D120*
X021565Y001217D03*
X021565Y001216D03*
X021565Y001161D03*
X021447Y001169D03*
X021445Y001166D03*
X021445Y001164D03*
X021445Y001041D03*
X021717Y001041D03*
X021717Y001040D03*
X021717Y001043D03*
X021717Y001044D03*
X021868Y001044D03*
X021868Y001043D03*
X021868Y001041D03*
X021868Y001040D03*
X021868Y001039D03*
X021870Y001036D03*
X021868Y001046D03*
X021868Y001049D03*
X021868Y001051D03*
X021868Y001052D03*
X021868Y001054D03*
X021868Y001055D03*
X021868Y001056D03*
X021868Y001058D03*
X021991Y001139D03*
X021990Y001166D03*
X021988Y001169D03*
X022300Y001166D03*
X022302Y001169D03*
X022422Y001145D03*
X021136Y001160D03*
X021136Y001161D03*
X021136Y001163D03*
X021135Y001164D03*
X021135Y001166D03*
X021016Y001166D03*
X021016Y001164D03*
X020920Y001163D03*
X020800Y001163D03*
X020800Y001164D03*
X021013Y001058D03*
X021015Y001059D03*
X021015Y001061D03*
X021013Y001039D03*
X021015Y001037D03*
X021015Y001036D03*
X020430Y001001D03*
X020338Y001082D03*
D121*
X021060Y001096D03*
X021114Y001121D03*
X021059Y001001D03*
X021917Y001096D03*
X022320Y001088D03*
X022382Y001115D03*
X022392Y001121D03*
D122*
X022418Y001043D03*
X022296Y001054D03*
X022296Y001055D03*
X022296Y001056D03*
X022296Y001058D03*
X022296Y001059D03*
X022296Y001061D03*
X022296Y001115D03*
X022296Y001116D03*
X022296Y001118D03*
X022296Y001119D03*
X022296Y001121D03*
X022296Y001124D03*
X022296Y001126D03*
X022296Y001127D03*
X022296Y001129D03*
X022296Y001130D03*
X022296Y001131D03*
X022296Y001133D03*
X022296Y001134D03*
X022296Y001136D03*
X022296Y001139D03*
X022296Y001141D03*
X022296Y001142D03*
X022296Y001144D03*
X022296Y001145D03*
X022296Y001146D03*
X022296Y001148D03*
X022296Y001149D03*
X022296Y001151D03*
X022296Y001154D03*
X022298Y001159D03*
X022298Y001160D03*
X022298Y001161D03*
X022208Y001156D03*
X022208Y001154D03*
X022208Y001151D03*
X022208Y001149D03*
X022206Y001161D03*
X022086Y001163D03*
X022086Y001164D03*
X021875Y001169D03*
X021873Y001166D03*
X021798Y001041D03*
X021798Y001040D03*
X021798Y001039D03*
X021636Y001039D03*
X021636Y001037D03*
X021636Y001036D03*
X021563Y001043D03*
X021563Y001044D03*
X021438Y001066D03*
X021438Y001067D03*
X021438Y001069D03*
X021438Y001070D03*
X021438Y001071D03*
X021438Y001073D03*
X021438Y001074D03*
X021438Y001076D03*
X021438Y001079D03*
X021438Y001081D03*
X021438Y001082D03*
X021438Y001084D03*
X021438Y001085D03*
X021438Y001086D03*
X021438Y001088D03*
X021438Y001089D03*
X021438Y001091D03*
X021438Y001094D03*
X021438Y001096D03*
X021438Y001097D03*
X021438Y001099D03*
X021438Y001100D03*
X021438Y001101D03*
X021438Y001103D03*
X021438Y001104D03*
X021438Y001106D03*
X021438Y001109D03*
X021438Y001111D03*
X021438Y001112D03*
X021438Y001114D03*
X021438Y001115D03*
X021438Y001116D03*
X021438Y001118D03*
X021438Y001119D03*
X021438Y001121D03*
X021438Y001124D03*
X021438Y001126D03*
X021438Y001127D03*
X021438Y001129D03*
X021438Y001130D03*
X021438Y001131D03*
X021438Y001133D03*
X021438Y001134D03*
X021438Y001136D03*
X021438Y001139D03*
X021438Y001141D03*
X021438Y001142D03*
X021350Y001159D03*
X021350Y001160D03*
X021348Y001161D03*
X021348Y001163D03*
X021228Y001163D03*
X021138Y001151D03*
X021138Y001149D03*
X021138Y001148D03*
X021138Y001146D03*
X021138Y001145D03*
X021138Y001091D03*
X021138Y001089D03*
X021138Y001088D03*
X021138Y001086D03*
X021138Y001085D03*
X021138Y001084D03*
X021138Y001082D03*
X021138Y001081D03*
X021138Y001079D03*
X021138Y001076D03*
X021138Y001074D03*
X021138Y001073D03*
X021138Y001071D03*
X021138Y001070D03*
X021138Y001069D03*
X021138Y001067D03*
X021138Y001066D03*
X021138Y001064D03*
X021138Y001061D03*
X021138Y001059D03*
X021138Y001058D03*
X021138Y001056D03*
X021138Y001055D03*
X021138Y001054D03*
X021138Y001052D03*
X021138Y001051D03*
X021138Y001049D03*
X021138Y001046D03*
X021138Y001044D03*
X021138Y001043D03*
X021138Y001041D03*
X021138Y001040D03*
X021138Y001039D03*
X021138Y001037D03*
X021138Y001036D03*
X021138Y001034D03*
X021138Y001031D03*
X021138Y001029D03*
X021138Y001028D03*
X021138Y001026D03*
X021138Y001025D03*
X021138Y001024D03*
X021138Y001022D03*
X021138Y001021D03*
X021138Y001019D03*
X021138Y001016D03*
X021138Y001014D03*
X021138Y001013D03*
X021138Y001011D03*
X021138Y001010D03*
X021138Y001009D03*
X021138Y001007D03*
X021138Y001006D03*
X021138Y001004D03*
X021138Y001001D03*
X020046Y001238D03*
X019821Y001238D03*
X020543Y002899D03*
D123*
X021667Y001508D03*
X021289Y001206D03*
X021504Y001001D03*
X022146Y001206D03*
X022359Y001206D03*
X020272Y001004D03*
X020047Y001223D03*
D124*
X020271Y001127D03*
X021663Y001535D03*
X021717Y001001D03*
D125*
X021932Y001206D03*
X022358Y001001D03*
X021668Y001506D03*
X021380Y001581D03*
X021107Y001114D03*
X020537Y001490D03*
X021632Y002881D03*
D126*
X020271Y001003D03*
X019821Y001003D03*
D127*
X020028Y001003D03*
X020811Y001588D03*
D128*
X021016Y001033D03*
X020559Y001003D03*
X020431Y001003D03*
X021556Y001033D03*
X021871Y001033D03*
X022306Y001033D03*
X022413Y001033D03*
D129*
X022081Y001033D03*
X022081Y001048D03*
X022081Y001063D03*
X022081Y001078D03*
X022081Y001093D03*
X022081Y001108D03*
X022081Y001123D03*
X022081Y001138D03*
X021994Y001153D03*
X021994Y001093D03*
X021994Y001078D03*
X021994Y001063D03*
X021994Y001048D03*
X021994Y001033D03*
X021994Y001018D03*
X021994Y001003D03*
X022081Y001003D03*
X022081Y001018D03*
X020925Y001018D03*
X020925Y001033D03*
X020925Y001048D03*
X020925Y001063D03*
X020925Y001078D03*
X020925Y001093D03*
X020925Y001108D03*
X020925Y001123D03*
X020925Y001138D03*
X020797Y001003D03*
D130*
X020924Y001003D03*
X021009Y001138D03*
D131*
X021057Y001003D03*
X021914Y001003D03*
D132*
X022208Y001153D03*
X022296Y001153D03*
X022296Y001138D03*
X022296Y001123D03*
X022298Y001048D03*
X021438Y001078D03*
X021438Y001093D03*
X021438Y001108D03*
X021438Y001123D03*
X021438Y001138D03*
X021138Y001153D03*
X021138Y001093D03*
X021138Y001078D03*
X021138Y001063D03*
X021138Y001048D03*
X021138Y001033D03*
X021138Y001018D03*
X021138Y001003D03*
D133*
X021225Y001003D03*
X021011Y001048D03*
X021012Y001153D03*
X020924Y001153D03*
X020798Y001138D03*
X020798Y001123D03*
X020798Y001108D03*
X020798Y001093D03*
X020798Y001078D03*
X020798Y001063D03*
X020798Y001048D03*
X020798Y001033D03*
X020798Y001018D03*
X020798Y001228D03*
X020798Y001243D03*
X020798Y001258D03*
X020798Y001273D03*
X020798Y001288D03*
X021633Y001198D03*
X021633Y001183D03*
X021633Y001168D03*
X021633Y001153D03*
X021633Y001138D03*
X021633Y001123D03*
X021633Y001108D03*
X021633Y001093D03*
X021633Y001078D03*
X021633Y001063D03*
X021633Y001048D03*
X021717Y001123D03*
X021717Y001138D03*
X021717Y001153D03*
X021717Y001168D03*
X021717Y001183D03*
X021717Y001198D03*
X022082Y001153D03*
X022424Y001063D03*
D134*
X022359Y001003D03*
X021504Y001003D03*
D135*
X021717Y001003D03*
D136*
X021932Y001205D03*
X022329Y001096D03*
X022359Y001205D03*
X021668Y001509D03*
X021075Y001205D03*
X020498Y001223D03*
X020273Y001223D03*
X020238Y001097D03*
X019821Y001004D03*
X019821Y001223D03*
X020546Y002873D03*
X021632Y002879D03*
D137*
X021666Y001523D03*
X020809Y001589D03*
X020539Y001504D03*
X020499Y001208D03*
X020274Y001206D03*
X020256Y001114D03*
X020272Y001022D03*
X020029Y001004D03*
X020047Y001206D03*
X020047Y001208D03*
X019821Y001021D03*
X020850Y001201D03*
X021516Y001202D03*
D138*
X021503Y001004D03*
X021288Y001204D03*
X021075Y001202D03*
X020498Y001221D03*
X020537Y001493D03*
X020241Y001101D03*
X019821Y001006D03*
X019821Y001221D03*
X021383Y001584D03*
X021956Y001111D03*
X022145Y001204D03*
X021632Y002876D03*
D139*
X020550Y002844D03*
X021717Y001004D03*
D140*
X022332Y001097D03*
X022359Y001004D03*
X021667Y001511D03*
X020304Y001131D03*
X020241Y001100D03*
X020272Y001006D03*
X020274Y001221D03*
X020047Y001221D03*
D141*
X020031Y001006D03*
X020258Y001115D03*
X020498Y001204D03*
X020852Y001196D03*
X021665Y001524D03*
D142*
X021377Y001576D03*
X021932Y001211D03*
X021923Y001100D03*
X021912Y001006D03*
X022322Y001089D03*
X022388Y001118D03*
X022389Y001119D03*
X021054Y001006D03*
X020313Y001141D03*
X020273Y001229D03*
X020544Y002879D03*
D143*
X021384Y001586D03*
X021503Y001006D03*
X021954Y001109D03*
X022145Y001202D03*
X020301Y001130D03*
X020243Y001103D03*
X020273Y001220D03*
X019821Y001220D03*
D144*
X021663Y001539D03*
X021717Y001006D03*
D145*
X021933Y001202D03*
X022360Y001202D03*
X022359Y001006D03*
X020272Y001007D03*
D146*
X020272Y001009D03*
X020299Y001129D03*
X020274Y001219D03*
X020499Y001220D03*
X020538Y001494D03*
X020047Y001220D03*
X019821Y001007D03*
X021289Y001202D03*
X021933Y001201D03*
D147*
X021513Y001196D03*
X020853Y001194D03*
X020853Y001193D03*
X020499Y001202D03*
X020274Y001204D03*
X020272Y001025D03*
X020032Y001007D03*
X020047Y001202D03*
X019821Y001204D03*
X019821Y001024D03*
D148*
X021503Y001007D03*
X021953Y001106D03*
X022145Y001201D03*
X022358Y001007D03*
D149*
X021717Y001007D03*
X021627Y002851D03*
D150*
X021667Y001514D03*
X021289Y001201D03*
X020272Y001010D03*
X020047Y001219D03*
X019821Y001219D03*
X019821Y001009D03*
D151*
X019821Y001025D03*
X019821Y001202D03*
X020046Y001201D03*
X020033Y001009D03*
X020273Y001202D03*
X020540Y001506D03*
X020853Y001191D03*
D152*
X021132Y001134D03*
X020562Y001134D03*
X020562Y001133D03*
X020562Y001131D03*
X020562Y001130D03*
X020562Y001129D03*
X020562Y001127D03*
X020562Y001126D03*
X020562Y001124D03*
X020562Y001121D03*
X020562Y001119D03*
X020562Y001118D03*
X020562Y001116D03*
X020562Y001115D03*
X020562Y001114D03*
X020562Y001112D03*
X020562Y001111D03*
X020562Y001109D03*
X020562Y001106D03*
X020562Y001104D03*
X020562Y001103D03*
X020562Y001101D03*
X020562Y001100D03*
X020562Y001099D03*
X020562Y001097D03*
X020562Y001096D03*
X020562Y001094D03*
X020562Y001091D03*
X020562Y001089D03*
X020562Y001088D03*
X020562Y001086D03*
X020562Y001085D03*
X020562Y001084D03*
X020562Y001082D03*
X020562Y001081D03*
X020562Y001079D03*
X020562Y001076D03*
X020562Y001074D03*
X020562Y001073D03*
X020562Y001071D03*
X020562Y001070D03*
X020562Y001069D03*
X020562Y001067D03*
X020562Y001066D03*
X020562Y001064D03*
X020562Y001061D03*
X020562Y001059D03*
X020562Y001058D03*
X020562Y001056D03*
X020562Y001055D03*
X020562Y001054D03*
X020562Y001052D03*
X020562Y001051D03*
X020562Y001049D03*
X020562Y001046D03*
X020562Y001044D03*
X020562Y001043D03*
X020562Y001041D03*
X020562Y001040D03*
X020562Y001039D03*
X020562Y001037D03*
X020562Y001036D03*
X020562Y001034D03*
X020562Y001031D03*
X020562Y001029D03*
X020562Y001028D03*
X020562Y001026D03*
X020562Y001025D03*
X020562Y001024D03*
X020562Y001022D03*
X020562Y001021D03*
X020562Y001019D03*
X020562Y001016D03*
X020562Y001014D03*
X020562Y001013D03*
X020562Y001011D03*
X020562Y001010D03*
X020562Y001009D03*
X020562Y001136D03*
X020562Y001139D03*
X020562Y001141D03*
X020562Y001142D03*
X020562Y001144D03*
X020562Y001145D03*
X020562Y001146D03*
X020562Y001148D03*
X020562Y001149D03*
X020562Y001151D03*
X020562Y001154D03*
X020562Y001156D03*
X020562Y001157D03*
X020562Y001159D03*
X020562Y001160D03*
X020562Y001161D03*
X022302Y001073D03*
D153*
X022358Y001009D03*
X022359Y001199D03*
X021932Y001199D03*
X021503Y001009D03*
X021098Y001106D03*
X020816Y001580D03*
X020538Y001496D03*
X020246Y001104D03*
X021386Y001591D03*
X021630Y002873D03*
D154*
X020550Y002843D03*
X021663Y001541D03*
X021717Y001009D03*
D155*
X019821Y001010D03*
X019821Y001217D03*
D156*
X020034Y001011D03*
X020034Y001010D03*
X020260Y001116D03*
X020499Y001201D03*
X021511Y001191D03*
X020548Y002855D03*
D157*
X020816Y001581D03*
X020498Y001216D03*
X020046Y001216D03*
X021096Y001104D03*
X021503Y001010D03*
X021666Y001516D03*
X021387Y001592D03*
X022338Y001104D03*
X022358Y001011D03*
D158*
X021717Y001010D03*
X020541Y001521D03*
X021627Y002849D03*
D159*
X020547Y002866D03*
X020499Y001217D03*
X020274Y001216D03*
X020272Y001011D03*
X021076Y001196D03*
X021289Y001199D03*
X022359Y001010D03*
D160*
X022146Y001196D03*
X019821Y001216D03*
X019821Y001011D03*
D161*
X021717Y001013D03*
X021717Y001011D03*
X020550Y002841D03*
D162*
X021666Y001519D03*
X021289Y001194D03*
X021094Y001103D03*
X020272Y001014D03*
X019821Y001013D03*
D163*
X020034Y001013D03*
X020273Y001199D03*
X020273Y001201D03*
X020499Y001199D03*
D164*
X020274Y001214D03*
X020248Y001106D03*
X020272Y001013D03*
X021076Y001194D03*
X021289Y001196D03*
X021933Y001196D03*
X021949Y001103D03*
X022359Y001013D03*
X022360Y001196D03*
D165*
X022341Y001106D03*
X022145Y001193D03*
X021503Y001013D03*
X020538Y001501D03*
X019821Y001014D03*
D166*
X019822Y001028D03*
X020035Y001014D03*
X020272Y001029D03*
X020272Y001031D03*
X020262Y001118D03*
D167*
X020046Y001226D03*
X021050Y001014D03*
X021110Y001116D03*
D168*
X021092Y001101D03*
X021503Y001016D03*
X021503Y001014D03*
X021519Y001208D03*
X022145Y001191D03*
X022359Y001016D03*
X020273Y001211D03*
X020252Y001111D03*
X019821Y001016D03*
X019821Y001211D03*
D169*
X021717Y001014D03*
D170*
X021664Y001529D03*
X020499Y001196D03*
X020274Y001194D03*
X020037Y001016D03*
D171*
X020272Y001016D03*
X020812Y001584D03*
X021666Y001520D03*
X021933Y001191D03*
X021289Y001193D03*
D172*
X021075Y001209D03*
X021048Y001016D03*
X020498Y001226D03*
X020273Y001226D03*
X021378Y001579D03*
X021932Y001209D03*
X021963Y001115D03*
D173*
X021717Y001016D03*
D174*
X021503Y001018D03*
X022359Y001018D03*
X019821Y001018D03*
D175*
X020037Y001018D03*
D176*
X020272Y001018D03*
D177*
X020334Y001063D03*
X020434Y001063D03*
X020434Y001078D03*
X020434Y001093D03*
X020434Y001108D03*
X020434Y001123D03*
X020434Y001138D03*
X020434Y001153D03*
X020437Y001168D03*
X020434Y001048D03*
X020434Y001033D03*
X020434Y001018D03*
X020110Y001063D03*
X019984Y001063D03*
X019884Y001078D03*
X019884Y001093D03*
X019884Y001108D03*
X019884Y001123D03*
X019884Y001138D03*
X019884Y001153D03*
X021123Y001183D03*
X021241Y001183D03*
X021456Y001183D03*
X021979Y001183D03*
X022312Y001183D03*
X022407Y001183D03*
D178*
X020562Y001153D03*
X020562Y001138D03*
X020562Y001123D03*
X020562Y001108D03*
X020562Y001093D03*
X020562Y001078D03*
X020562Y001063D03*
X020562Y001048D03*
X020562Y001033D03*
X020562Y001018D03*
D179*
X021048Y001018D03*
D180*
X021226Y001018D03*
X021226Y001033D03*
X021226Y001048D03*
X021226Y001063D03*
X021226Y001078D03*
X021226Y001093D03*
X021226Y001108D03*
X021226Y001123D03*
X021226Y001138D03*
X021567Y001138D03*
X021567Y001123D03*
X021567Y001108D03*
X021567Y001093D03*
X021567Y001078D03*
X021567Y001063D03*
X021717Y001063D03*
X021717Y001108D03*
X021567Y001243D03*
X021567Y001258D03*
X021567Y001273D03*
X021567Y001288D03*
X020799Y001153D03*
X022422Y001153D03*
X022420Y001048D03*
D181*
X021717Y001018D03*
D182*
X021904Y001018D03*
X022324Y001093D03*
X020499Y001228D03*
X020311Y001138D03*
D183*
X020274Y001208D03*
X020272Y001021D03*
X020047Y001209D03*
X019821Y001209D03*
X019821Y001019D03*
X020499Y001209D03*
X021391Y001598D03*
X021517Y001204D03*
D184*
X020499Y001194D03*
X020038Y001021D03*
X020038Y001019D03*
D185*
X019989Y001046D03*
X019875Y001044D03*
X019874Y001043D03*
X019767Y001044D03*
X019767Y001184D03*
X019872Y001186D03*
X019995Y001186D03*
X020099Y001186D03*
X020219Y001184D03*
X020219Y001043D03*
X020324Y001041D03*
X020898Y001189D03*
X021038Y001189D03*
X021075Y001220D03*
X021027Y001076D03*
X021029Y001019D03*
X021249Y001187D03*
X021329Y001187D03*
X021464Y001021D03*
X021543Y001021D03*
X021969Y001187D03*
X022106Y001187D03*
X022185Y001187D03*
X022319Y001187D03*
X022398Y001187D03*
X022412Y001134D03*
X020544Y002891D03*
D186*
X021080Y001019D03*
X022205Y001139D03*
D187*
X021717Y001019D03*
X021627Y002844D03*
D188*
X020534Y001472D03*
X020217Y001181D03*
X020216Y001179D03*
X020100Y001184D03*
X020100Y001043D03*
X020327Y001044D03*
X019877Y001181D03*
X019764Y001049D03*
X021026Y001021D03*
X021117Y001186D03*
X021464Y001187D03*
X021557Y001181D03*
X021932Y001220D03*
D189*
X021973Y001186D03*
X021883Y001021D03*
X021717Y001025D03*
X021460Y001022D03*
X021331Y001186D03*
X021130Y001133D03*
X021025Y001074D03*
X020862Y001220D03*
X020443Y001181D03*
X020215Y001178D03*
X020215Y001049D03*
X020101Y001044D03*
X019990Y001178D03*
X019992Y001179D03*
X019992Y001181D03*
X019765Y001181D03*
X021672Y001489D03*
X022317Y001186D03*
X022305Y001074D03*
D190*
X022400Y001021D03*
X022413Y001136D03*
X022401Y001186D03*
X022358Y001220D03*
X022188Y001186D03*
X021503Y001220D03*
X021288Y001220D03*
X021246Y001186D03*
X020808Y001181D03*
X020330Y001176D03*
X020328Y001179D03*
X020328Y001046D03*
X019988Y001051D03*
X019988Y001052D03*
X019878Y001051D03*
X019878Y001049D03*
X019878Y001178D03*
X019878Y001179D03*
X020838Y001553D03*
X021365Y001562D03*
D191*
X021514Y001199D03*
X020499Y001205D03*
X020274Y001205D03*
X020272Y001024D03*
X020047Y001204D03*
X020047Y001205D03*
X019821Y001205D03*
X019821Y001022D03*
X020539Y001505D03*
D192*
X020039Y001024D03*
X020039Y001022D03*
X020549Y002852D03*
X021629Y002858D03*
D193*
X021634Y002897D03*
X019821Y001235D03*
X019879Y001176D03*
X019989Y001175D03*
X020103Y001181D03*
X020103Y001046D03*
X020214Y001074D03*
X020331Y001154D03*
X020331Y001175D03*
X020554Y001181D03*
X020556Y001179D03*
X020556Y001178D03*
X020557Y001175D03*
X019987Y001054D03*
X019764Y001051D03*
X021547Y001022D03*
X021558Y001179D03*
X021892Y001187D03*
X022104Y001186D03*
D194*
X022093Y001176D03*
X021793Y001024D03*
X021238Y001178D03*
X020803Y001172D03*
X020803Y001171D03*
D195*
X020916Y001172D03*
X020918Y001169D03*
X021018Y001171D03*
X021137Y001142D03*
X021137Y001099D03*
X021137Y001097D03*
X021231Y001169D03*
X021233Y001171D03*
X021347Y001169D03*
X021564Y001164D03*
X021564Y001163D03*
X021560Y001039D03*
X021558Y001037D03*
X021558Y001036D03*
X021638Y001028D03*
X021638Y001026D03*
X021639Y001025D03*
X021797Y001028D03*
X021797Y001029D03*
X021797Y001031D03*
X021876Y001172D03*
X021878Y001174D03*
X022088Y001171D03*
X022088Y001169D03*
X022202Y001171D03*
X022203Y001169D03*
X022298Y001111D03*
X022298Y001066D03*
X022299Y001043D03*
X022299Y001041D03*
X022415Y001034D03*
X022416Y001037D03*
X022418Y001166D03*
X022416Y001169D03*
X022416Y001171D03*
X021635Y002903D03*
X020543Y002897D03*
D196*
X020533Y001466D03*
X020337Y001081D03*
X020337Y001079D03*
X021448Y001034D03*
X021448Y001174D03*
X021717Y001034D03*
X021795Y001025D03*
X021987Y001174D03*
X022198Y001175D03*
X022200Y001174D03*
X022302Y001039D03*
X022303Y001037D03*
X022305Y001036D03*
X022305Y001034D03*
X021360Y001554D03*
D197*
X021395Y001606D03*
X020540Y001508D03*
X020046Y001199D03*
X019821Y001199D03*
X019821Y001201D03*
X019821Y001026D03*
D198*
X020040Y001026D03*
X020040Y001028D03*
X020549Y002851D03*
X021629Y002856D03*
D199*
X021394Y001604D03*
X021664Y001526D03*
X020272Y001028D03*
X020272Y001026D03*
D200*
X020802Y001169D03*
X021237Y001176D03*
X021342Y001175D03*
X021344Y001174D03*
X021717Y001031D03*
X021989Y001136D03*
X022197Y001176D03*
X022407Y001026D03*
X022409Y001028D03*
D201*
X021553Y001028D03*
X020533Y001469D03*
D202*
X020540Y001509D03*
X020273Y001196D03*
X020262Y001119D03*
X019821Y001196D03*
X019821Y001031D03*
X019821Y001029D03*
X020549Y002854D03*
X021629Y002861D03*
D203*
X020268Y001124D03*
X020041Y001029D03*
D204*
X020042Y001031D03*
X021663Y001534D03*
D205*
X019821Y001033D03*
D206*
X020043Y001033D03*
D207*
X020272Y001033D03*
D208*
X021449Y001033D03*
D209*
X021637Y001033D03*
X021798Y001033D03*
X021874Y001168D03*
X022087Y001168D03*
X022204Y001168D03*
X022297Y001063D03*
X021231Y001168D03*
X021018Y001168D03*
X020919Y001168D03*
D210*
X020802Y001168D03*
X021717Y001033D03*
X021990Y001138D03*
D211*
X022313Y001082D03*
X021290Y001216D03*
X021122Y001127D03*
X020541Y001193D03*
X020315Y001193D03*
X020222Y001084D03*
X020090Y001034D03*
X019779Y001034D03*
X019778Y001193D03*
X020544Y002885D03*
D212*
X020833Y001559D03*
X020535Y001476D03*
X020862Y001216D03*
X020815Y001187D03*
X020323Y001149D03*
X020230Y001034D03*
X019995Y001040D03*
X021670Y001494D03*
X021931Y001216D03*
X021976Y001126D03*
D213*
X021371Y001568D03*
X021075Y001216D03*
X020322Y001148D03*
X020231Y001193D03*
X019995Y001039D03*
D214*
X019877Y001048D03*
X019766Y001048D03*
X019766Y001183D03*
X019992Y001183D03*
X020216Y001048D03*
D215*
X020103Y001048D03*
D216*
X020329Y001048D03*
X020553Y001183D03*
X022414Y001138D03*
X020544Y002893D03*
D217*
X021439Y001063D03*
X021442Y001048D03*
D218*
X021564Y001048D03*
X021566Y001153D03*
X021566Y001228D03*
X021716Y001093D03*
X021716Y001078D03*
X021716Y001048D03*
X021869Y001153D03*
X021672Y001483D03*
X021227Y001153D03*
D219*
X021801Y001153D03*
X021801Y001168D03*
X021801Y001183D03*
X021801Y001198D03*
X021801Y001138D03*
X021801Y001123D03*
X021801Y001108D03*
X021801Y001093D03*
X021801Y001078D03*
X021801Y001063D03*
X021801Y001048D03*
D220*
X021868Y001048D03*
X022300Y001168D03*
X021133Y001168D03*
D221*
X021015Y001063D03*
X021446Y001168D03*
X021870Y001063D03*
X021989Y001168D03*
D222*
X021886Y001078D03*
X020217Y001078D03*
D223*
X020208Y001138D03*
X020336Y001078D03*
X021563Y001168D03*
D224*
X021029Y001078D03*
D225*
X022309Y001078D03*
D226*
X022433Y001078D03*
D227*
X022434Y001079D03*
X021639Y002912D03*
D228*
X021372Y001569D03*
X020832Y001561D03*
X020535Y001478D03*
X020457Y001193D03*
X020322Y001146D03*
X020817Y001189D03*
X021042Y001085D03*
X021975Y001124D03*
D229*
X021897Y001085D03*
X021044Y001086D03*
D230*
X022317Y001085D03*
D231*
X020316Y001142D03*
X020272Y001231D03*
X020229Y001089D03*
X019821Y001231D03*
D232*
X020045Y001239D03*
X020345Y001091D03*
X021006Y001134D03*
X021350Y001139D03*
D233*
X020232Y001093D03*
X020047Y001228D03*
X020545Y002878D03*
D234*
X020346Y001093D03*
D235*
X021052Y001093D03*
D236*
X021909Y001093D03*
X021972Y001123D03*
D237*
X022326Y001094D03*
X021378Y001580D03*
X021108Y001115D03*
X020273Y001224D03*
X020046Y001224D03*
D238*
X020236Y001096D03*
X020545Y002874D03*
D239*
X020825Y001566D03*
X021065Y001099D03*
X021920Y001097D03*
X021921Y001099D03*
X021966Y001118D03*
X022385Y001116D03*
X019821Y001229D03*
D240*
X020240Y001099D03*
X020819Y001574D03*
X021381Y001583D03*
X021075Y001204D03*
X021104Y001112D03*
X021932Y001204D03*
X022359Y001204D03*
X020546Y002871D03*
D241*
X022332Y001099D03*
D242*
X022333Y001100D03*
X021102Y001111D03*
X020818Y001576D03*
D243*
X020818Y001577D03*
X021076Y001201D03*
X021100Y001109D03*
X022335Y001101D03*
X021631Y002874D03*
X020547Y002869D03*
D244*
X020547Y002867D03*
X021385Y001589D03*
X021076Y001199D03*
X020499Y001219D03*
X020274Y001217D03*
X022336Y001103D03*
D245*
X022145Y001199D03*
X021951Y001104D03*
X020840Y001214D03*
X020046Y001217D03*
D246*
X020250Y001108D03*
D247*
X021099Y001108D03*
X021384Y001588D03*
D248*
X021954Y001108D03*
D249*
X022343Y001108D03*
D250*
X022360Y001193D03*
X021520Y001209D03*
X021390Y001595D03*
X020845Y001208D03*
X020251Y001109D03*
D251*
X022370Y001111D03*
X022373Y001112D03*
X021633Y002885D03*
D252*
X021958Y001112D03*
D253*
X021962Y001114D03*
X021932Y001208D03*
X021075Y001208D03*
X020537Y001489D03*
X020309Y001134D03*
D254*
X020264Y001121D03*
X021663Y001531D03*
X021629Y002859D03*
D255*
X020265Y001123D03*
D256*
X021117Y001123D03*
D257*
X021075Y001213D03*
X020535Y001483D03*
X022395Y001123D03*
D258*
X020270Y001126D03*
D259*
X020329Y001178D03*
X020901Y001187D03*
X021036Y001187D03*
X021982Y001131D03*
X021634Y002896D03*
D260*
X020307Y001133D03*
D261*
X021344Y001133D03*
X021810Y001220D03*
D262*
X021862Y001134D03*
X021573Y001298D03*
X022203Y001136D03*
X020272Y001239D03*
X019822Y001239D03*
X020542Y002903D03*
X021636Y002909D03*
D263*
X021135Y001138D03*
X020209Y001153D03*
D264*
X021865Y001138D03*
D265*
X021555Y001183D03*
X020328Y001153D03*
X020327Y001183D03*
D266*
X021351Y001153D03*
X021440Y001153D03*
D267*
X020332Y001168D03*
D268*
X021347Y001168D03*
X022418Y001168D03*
D269*
X020101Y001183D03*
D270*
X020533Y001468D03*
X021028Y001183D03*
D271*
X020811Y001184D03*
D272*
X021076Y001193D03*
X021522Y001211D03*
X021388Y001594D03*
X020814Y001583D03*
X021933Y001194D03*
X022360Y001194D03*
D273*
X021512Y001194D03*
X021512Y001193D03*
D274*
X021396Y001607D03*
X019821Y001194D03*
D275*
X020047Y001194D03*
D276*
X020046Y001214D03*
X019821Y001214D03*
X021666Y001517D03*
X022145Y001194D03*
D277*
X020540Y001511D03*
X020046Y001196D03*
D278*
X020046Y001198D03*
X019821Y001198D03*
X020273Y001198D03*
X020499Y001198D03*
D279*
X020851Y001198D03*
D280*
X021076Y001198D03*
D281*
X021288Y001198D03*
X020841Y001213D03*
X020538Y001498D03*
X021932Y001198D03*
X022359Y001198D03*
D282*
X021513Y001198D03*
X021393Y001603D03*
D283*
X022146Y001198D03*
D284*
X021515Y001201D03*
X020850Y001199D03*
X020498Y001206D03*
X019820Y001206D03*
X021392Y001601D03*
D285*
X020817Y001579D03*
X022359Y001201D03*
D286*
X020848Y001202D03*
X020548Y002861D03*
D287*
X020847Y001204D03*
D288*
X020847Y001205D03*
D289*
X021289Y001205D03*
X022146Y001205D03*
X020538Y001491D03*
D290*
X021075Y001206D03*
D291*
X021392Y001599D03*
X019820Y001208D03*
X021630Y002866D03*
D292*
X021289Y001209D03*
X022146Y001209D03*
X019821Y001226D03*
D293*
X019821Y001213D03*
X020046Y001213D03*
X020273Y001213D03*
D294*
X020499Y001213D03*
D295*
X021289Y001213D03*
X022146Y001213D03*
X022359Y001213D03*
D296*
X021523Y001213D03*
D297*
X021638Y001213D03*
D298*
X021722Y001213D03*
X021804Y001213D03*
X020847Y001543D03*
D299*
X021932Y001213D03*
D300*
X021807Y001214D03*
X021672Y001476D03*
X020803Y001299D03*
D301*
X020533Y001460D03*
X021808Y001216D03*
D302*
X022145Y001220D03*
D303*
X020273Y001228D03*
X019821Y001228D03*
D304*
X021576Y001303D03*
D305*
X021672Y001487D03*
X020533Y001471D03*
D306*
X021669Y001498D03*
D307*
X020541Y001513D03*
D308*
X021667Y001513D03*
D309*
X020541Y001516D03*
D310*
X020541Y001517D03*
D311*
X020542Y001519D03*
X021663Y001538D03*
D312*
X020542Y001520D03*
D313*
X020543Y001523D03*
D314*
X020544Y001524D03*
X020551Y002837D03*
D315*
X020551Y002836D03*
X021093Y003091D03*
X021661Y001547D03*
X020544Y001526D03*
D316*
X020544Y001528D03*
D317*
X021664Y001528D03*
D318*
X020544Y001529D03*
X020551Y002834D03*
D319*
X021626Y002840D03*
X021660Y001551D03*
X020544Y001531D03*
D320*
X020544Y001532D03*
X020552Y002831D03*
D321*
X021664Y001532D03*
D322*
X020545Y001534D03*
D323*
X020546Y001535D03*
X021659Y001556D03*
D324*
X020546Y001536D03*
D325*
X021663Y001536D03*
D326*
X020546Y001538D03*
D327*
X020547Y001539D03*
X020553Y002824D03*
X021094Y003086D03*
D328*
X021657Y001562D03*
X020547Y001541D03*
D329*
X020547Y001543D03*
D330*
X021662Y001543D03*
X021627Y002848D03*
D331*
X021657Y001566D03*
X020548Y001544D03*
D332*
X021662Y001544D03*
D333*
X021657Y001568D03*
X020548Y001546D03*
X021622Y002824D03*
D334*
X021662Y001546D03*
D335*
X021656Y001569D03*
X020549Y001547D03*
X021093Y003079D03*
D336*
X021656Y001571D03*
X020549Y001549D03*
D337*
X021661Y001549D03*
X021627Y002843D03*
D338*
X020550Y001550D03*
D339*
X021660Y001550D03*
X021626Y002841D03*
D340*
X021621Y002819D03*
X021093Y003053D03*
X021093Y003054D03*
X021093Y003056D03*
X021093Y003059D03*
X020550Y001551D03*
D341*
X020550Y001553D03*
X021654Y001576D03*
X021620Y002816D03*
X021093Y003046D03*
D342*
X021625Y002837D03*
X021660Y001553D03*
D343*
X020551Y001554D03*
D344*
X021659Y001554D03*
X021624Y002836D03*
X020552Y002828D03*
D345*
X020558Y002804D03*
X021092Y003024D03*
X021092Y003026D03*
X021653Y001580D03*
X020552Y001556D03*
D346*
X020552Y001558D03*
X021092Y003013D03*
D347*
X020834Y001558D03*
D348*
X021659Y001558D03*
D349*
X020553Y001559D03*
X021093Y003002D03*
X021093Y003004D03*
X021093Y003005D03*
X021093Y003006D03*
X021093Y003008D03*
D350*
X021658Y001559D03*
D351*
X020553Y001561D03*
X021093Y002994D03*
D352*
X021658Y001561D03*
D353*
X020553Y001562D03*
X020559Y002801D03*
X021618Y002809D03*
D354*
X021092Y002978D03*
X021092Y002979D03*
X020559Y002798D03*
X020553Y001564D03*
D355*
X021657Y001564D03*
D356*
X021651Y001589D03*
X020553Y001565D03*
X020559Y002795D03*
X021092Y002957D03*
X021092Y002959D03*
X021092Y002960D03*
X021092Y002961D03*
X021092Y002963D03*
X021092Y002964D03*
X021092Y002966D03*
X021617Y002804D03*
D357*
X021657Y001565D03*
D358*
X021651Y001591D03*
X020554Y001566D03*
D359*
X020554Y001568D03*
D360*
X020555Y001569D03*
D361*
X020555Y001571D03*
X021615Y002799D03*
X021090Y002921D03*
X021090Y002924D03*
X021090Y002926D03*
D362*
X020556Y001573D03*
D363*
X020821Y001573D03*
D364*
X021374Y001573D03*
D365*
X021655Y001573D03*
D366*
X020556Y001574D03*
X021092Y002897D03*
X021092Y002899D03*
X021092Y002900D03*
D367*
X021093Y003051D03*
X021654Y001574D03*
D368*
X021648Y001601D03*
X020557Y001576D03*
X021091Y002881D03*
X021091Y002882D03*
X021091Y002884D03*
X021091Y002885D03*
X021091Y002886D03*
D369*
X021090Y002874D03*
X021090Y002873D03*
X020557Y001577D03*
D370*
X021654Y001577D03*
X021619Y002814D03*
X021093Y003035D03*
X021093Y003036D03*
X021093Y003038D03*
X020557Y002807D03*
D371*
X020557Y001579D03*
D372*
X021654Y001579D03*
X021093Y003029D03*
X021093Y003031D03*
X021093Y003032D03*
D373*
X020558Y001580D03*
D374*
X020558Y001581D03*
D375*
X021653Y001581D03*
X021092Y003009D03*
X021092Y003011D03*
X021092Y003014D03*
X021092Y003016D03*
D376*
X021091Y002846D03*
X020559Y001583D03*
D377*
X021652Y001583D03*
D378*
X020559Y001584D03*
X020564Y002776D03*
D379*
X021092Y002984D03*
X021092Y002986D03*
X021651Y001584D03*
D380*
X020559Y001586D03*
X021092Y002843D03*
D381*
X021091Y002975D03*
X021091Y002976D03*
X021618Y002806D03*
X021651Y001586D03*
D382*
X020559Y001588D03*
D383*
X021651Y001588D03*
X021091Y002968D03*
D384*
X020559Y001589D03*
D385*
X020632Y001591D03*
X020671Y001696D03*
X020674Y002003D03*
X020650Y002030D03*
X021504Y001764D03*
X021505Y001761D03*
X021565Y001609D03*
D386*
X021513Y001746D03*
X021512Y001749D03*
X021512Y001751D03*
X021510Y001754D03*
X021506Y001997D03*
X021504Y002374D03*
X021503Y002375D03*
X021501Y002376D03*
X020649Y002341D03*
X020675Y002001D03*
X020676Y002000D03*
X020666Y001688D03*
X020664Y001685D03*
X020663Y001682D03*
X020631Y001592D03*
D387*
X021650Y001592D03*
D388*
X021566Y001611D03*
X021515Y001744D03*
X021462Y001883D03*
X021500Y002379D03*
X020684Y002378D03*
X020678Y001997D03*
X020679Y001996D03*
X020729Y001866D03*
X020729Y001865D03*
X020661Y001679D03*
X020631Y001594D03*
D389*
X021649Y001594D03*
X021091Y002927D03*
D390*
X020686Y002381D03*
X020685Y002379D03*
X020646Y002031D03*
X020659Y001676D03*
X020659Y001674D03*
X020631Y001595D03*
X021462Y001884D03*
X021516Y001742D03*
X021517Y001741D03*
X021567Y001613D03*
X021498Y002381D03*
D391*
X020562Y002791D03*
X021648Y001595D03*
D392*
X021521Y001733D03*
X021519Y001734D03*
X021519Y001736D03*
X021518Y001739D03*
X020658Y001673D03*
X020657Y001670D03*
X020630Y001596D03*
X020681Y001994D03*
X020646Y002339D03*
D393*
X020562Y002789D03*
X021091Y002912D03*
X021091Y002914D03*
X021091Y002915D03*
X021615Y002796D03*
X021648Y001596D03*
D394*
X021528Y001719D03*
X021498Y001988D03*
X020688Y002386D03*
X020630Y001599D03*
X020630Y001598D03*
D395*
X021648Y001598D03*
D396*
X021648Y001599D03*
X021091Y002888D03*
X021091Y002889D03*
X021091Y002891D03*
X021091Y002894D03*
X021091Y002896D03*
D397*
X020691Y002389D03*
X020690Y002387D03*
X021530Y001715D03*
X021531Y001714D03*
X020648Y001655D03*
X020648Y001654D03*
X020646Y001652D03*
X020630Y001601D03*
D398*
X020630Y001603D03*
D399*
X021647Y001603D03*
D400*
X020645Y001649D03*
X020630Y001606D03*
X020630Y001604D03*
D401*
X021646Y001604D03*
X021613Y002791D03*
X021090Y002856D03*
X021090Y002858D03*
X021090Y002859D03*
X021090Y002861D03*
D402*
X021090Y002851D03*
X020563Y002780D03*
X021645Y001606D03*
D403*
X020631Y001607D03*
X020691Y001982D03*
D404*
X021644Y001607D03*
X021612Y002786D03*
X020564Y002777D03*
D405*
X021486Y002394D03*
X021492Y001979D03*
X021462Y001901D03*
X021462Y001899D03*
X021462Y001898D03*
X021462Y001896D03*
X021542Y001696D03*
X021542Y001694D03*
X021543Y001691D03*
X020727Y001886D03*
X020691Y001981D03*
X020642Y001643D03*
X020642Y001641D03*
X020640Y001640D03*
X020640Y001639D03*
X020630Y001610D03*
X020630Y001609D03*
D406*
X020662Y001681D03*
X020664Y001684D03*
X020665Y001686D03*
X020677Y001999D03*
X021462Y001881D03*
X021504Y001994D03*
X021505Y001996D03*
X021513Y001748D03*
X021514Y001745D03*
X021565Y001610D03*
X021511Y002369D03*
X021501Y002378D03*
X021091Y002816D03*
D407*
X020631Y001614D03*
X020631Y001613D03*
X020631Y001611D03*
D408*
X020728Y001871D03*
X020728Y001874D03*
X021522Y001731D03*
X021523Y001730D03*
X021525Y001729D03*
X021525Y001727D03*
X021567Y001614D03*
D409*
X021546Y001685D03*
X021545Y001686D03*
X020631Y001622D03*
X020631Y001621D03*
X020631Y001619D03*
X020631Y001616D03*
X021485Y002396D03*
D410*
X021525Y001726D03*
X021567Y001616D03*
X020727Y001876D03*
X020727Y001877D03*
X020684Y001991D03*
X020655Y001666D03*
X020654Y001664D03*
D411*
X020631Y001618D03*
D412*
X021462Y001888D03*
X021567Y001618D03*
D413*
X021568Y001619D03*
X020728Y001879D03*
X020686Y001986D03*
X020686Y001988D03*
X020685Y001989D03*
X020652Y001661D03*
X021493Y002387D03*
X021495Y002386D03*
X021091Y002814D03*
D414*
X021492Y002389D03*
X021497Y001985D03*
X021495Y001984D03*
X021462Y001891D03*
X021462Y001889D03*
X021567Y001621D03*
X020727Y001880D03*
X020727Y001881D03*
X020651Y001659D03*
X020649Y001658D03*
D415*
X020688Y001985D03*
X021534Y001709D03*
X021535Y001706D03*
X021537Y001704D03*
X021568Y001622D03*
X021522Y002364D03*
X021492Y002390D03*
X021490Y002391D03*
D416*
X021462Y001906D03*
X021462Y001904D03*
X020727Y001889D03*
X020694Y001976D03*
X020697Y002394D03*
X020637Y001634D03*
X020634Y001629D03*
X020633Y001626D03*
X020633Y001625D03*
X020633Y001624D03*
D417*
X020643Y001644D03*
X021540Y001699D03*
X021540Y001700D03*
X021541Y001697D03*
X021570Y001624D03*
X021493Y001981D03*
X021562Y002054D03*
X021489Y002393D03*
X020695Y002393D03*
X020638Y002336D03*
D418*
X020692Y001979D03*
X020640Y001637D03*
X020638Y001636D03*
X021544Y001688D03*
X021544Y001689D03*
X021570Y001626D03*
X021570Y001625D03*
X021490Y001976D03*
D419*
X021489Y001974D03*
X021463Y001907D03*
X021549Y001682D03*
X021550Y001679D03*
X021552Y001676D03*
X021553Y001674D03*
X021570Y001628D03*
X020635Y001631D03*
X020634Y001628D03*
X020695Y001974D03*
X020700Y002396D03*
X021091Y002813D03*
X021481Y002401D03*
X021483Y002399D03*
D420*
X021462Y001909D03*
X021549Y001681D03*
X021554Y001673D03*
X021569Y001631D03*
X021569Y001629D03*
X020727Y001891D03*
X020727Y001892D03*
X020702Y002399D03*
D421*
X020693Y001978D03*
X020727Y001888D03*
X020636Y001633D03*
X021483Y002398D03*
D422*
X021569Y001633D03*
D423*
X021569Y001634D03*
X021569Y001636D03*
X020727Y001895D03*
X020727Y001896D03*
X020697Y001973D03*
D424*
X020727Y001899D03*
X020727Y001898D03*
X021463Y001911D03*
X021568Y002056D03*
X021568Y001641D03*
X021568Y001640D03*
X021568Y001639D03*
X021568Y001637D03*
D425*
X021567Y001643D03*
X021567Y001644D03*
X021567Y001646D03*
X021462Y001913D03*
X021477Y002404D03*
X020699Y001971D03*
X020727Y001901D03*
D426*
X020727Y001884D03*
X020727Y001883D03*
X020639Y002033D03*
X020693Y002391D03*
X021494Y001982D03*
X021462Y001895D03*
X021462Y001894D03*
X021462Y001892D03*
X021533Y001711D03*
X021537Y001703D03*
X021539Y001701D03*
X020643Y001646D03*
D427*
X020644Y001648D03*
D428*
X021567Y001648D03*
D429*
X021566Y001649D03*
X021566Y001651D03*
X021564Y001652D03*
X021564Y001654D03*
X021563Y001655D03*
X021561Y001656D03*
X021560Y001659D03*
X021483Y001970D03*
X021485Y001971D03*
X020706Y002404D03*
D430*
X020692Y002390D03*
X020689Y001984D03*
X020646Y001651D03*
X021532Y001712D03*
D431*
X021529Y001716D03*
X021529Y001718D03*
X021528Y001721D03*
X021498Y001986D03*
X020649Y001656D03*
D432*
X021558Y001664D03*
X021559Y001661D03*
X021561Y001658D03*
D433*
X020653Y001663D03*
D434*
X021558Y001663D03*
D435*
X021557Y001666D03*
X021557Y001667D03*
X020631Y002034D03*
X020705Y002402D03*
X021530Y002363D03*
D436*
X021517Y002366D03*
X021496Y002384D03*
X021501Y001991D03*
X021499Y001989D03*
X021526Y001724D03*
X020658Y001671D03*
X020656Y001669D03*
X020656Y001667D03*
X020688Y002384D03*
D437*
X020727Y001894D03*
X021463Y001910D03*
X021555Y001671D03*
X021556Y001670D03*
X021556Y001669D03*
X021480Y002402D03*
D438*
X021513Y002368D03*
X021554Y002053D03*
X020661Y001678D03*
D439*
X021552Y001678D03*
D440*
X021547Y001684D03*
D441*
X021462Y001879D03*
X021462Y001880D03*
X021507Y001999D03*
X020729Y001864D03*
X020667Y001689D03*
X020682Y002375D03*
D442*
X020682Y002374D03*
X020730Y001862D03*
X020668Y001691D03*
X021462Y001876D03*
X021462Y001877D03*
X021507Y001760D03*
X021507Y001759D03*
X021508Y001757D03*
X021510Y001756D03*
X021508Y002000D03*
X021510Y002001D03*
X021508Y002371D03*
X021507Y002372D03*
D443*
X020670Y001693D03*
D444*
X021463Y001903D03*
X021492Y001978D03*
X021543Y001693D03*
D445*
X021462Y001874D03*
X021510Y002003D03*
X020670Y001694D03*
D446*
X020672Y001697D03*
X020672Y001699D03*
X020673Y001701D03*
X020673Y002004D03*
X020679Y002372D03*
X021501Y001769D03*
X021503Y001766D03*
X021504Y001763D03*
D447*
X021501Y001771D03*
X021501Y001772D03*
X020674Y001703D03*
X020673Y001700D03*
X020673Y002006D03*
X020679Y002371D03*
D448*
X020676Y002366D03*
X020676Y001704D03*
X021499Y001774D03*
D449*
X021515Y002009D03*
X020676Y001706D03*
X020675Y002364D03*
D450*
X020676Y001708D03*
D451*
X021534Y001708D03*
D452*
X021498Y001775D03*
X021497Y001778D03*
X021495Y001781D03*
X021494Y001784D03*
X021492Y001786D03*
X021461Y001868D03*
X021548Y002051D03*
X020729Y001854D03*
X020729Y001853D03*
X020679Y001714D03*
X020678Y001711D03*
X020678Y001709D03*
X020669Y002012D03*
X020655Y002027D03*
X020673Y002363D03*
X021092Y002819D03*
D453*
X020668Y002014D03*
X020683Y001718D03*
X020682Y001716D03*
X020680Y001715D03*
X020679Y001712D03*
X021460Y001865D03*
X021460Y001866D03*
X021489Y001791D03*
X021490Y001790D03*
X021490Y001789D03*
X021492Y001787D03*
D454*
X021488Y001793D03*
X021488Y001794D03*
X021516Y002012D03*
X021516Y002014D03*
X020729Y001851D03*
X020729Y001850D03*
X020687Y001726D03*
X020685Y001721D03*
X020684Y001719D03*
X020667Y002015D03*
X020666Y002018D03*
X020658Y002026D03*
X020670Y002360D03*
X020672Y002361D03*
D455*
X020685Y001723D03*
X021486Y001798D03*
D456*
X021527Y001723D03*
D457*
X021487Y001796D03*
X021460Y001864D03*
X021517Y002015D03*
X021519Y002016D03*
X021519Y002018D03*
X020730Y001849D03*
X020688Y001729D03*
X020688Y001727D03*
X020686Y001724D03*
X020667Y002016D03*
X020665Y002019D03*
X020668Y002356D03*
X020670Y002357D03*
X020670Y002359D03*
D458*
X020667Y002354D03*
X020664Y002021D03*
X020730Y001847D03*
X020688Y001730D03*
X021461Y001862D03*
X021519Y002019D03*
X021092Y002821D03*
D459*
X021485Y001802D03*
X020690Y001731D03*
D460*
X020691Y001733D03*
X020661Y002344D03*
X021544Y002049D03*
D461*
X020691Y001734D03*
D462*
X020692Y001736D03*
X020694Y001739D03*
X020662Y002345D03*
X020664Y002346D03*
X021474Y001820D03*
X021474Y001819D03*
D463*
X020694Y001738D03*
D464*
X020687Y002383D03*
X021497Y002383D03*
X021518Y001738D03*
D465*
X021473Y001821D03*
X021473Y001823D03*
X021471Y001826D03*
X020732Y001841D03*
X020694Y001741D03*
D466*
X020695Y001742D03*
X021475Y001817D03*
X021522Y002024D03*
D467*
X021522Y002026D03*
X021524Y002027D03*
X021524Y002029D03*
X021540Y002048D03*
X021461Y001856D03*
X021461Y001854D03*
X020697Y001745D03*
X020696Y001744D03*
D468*
X020698Y001746D03*
X020700Y001748D03*
X021525Y002030D03*
D469*
X021525Y002031D03*
X021461Y001851D03*
X021461Y001850D03*
X021461Y001847D03*
X021467Y001834D03*
X021470Y001829D03*
X020732Y001835D03*
X020732Y001836D03*
X020732Y001838D03*
X020703Y001756D03*
X020702Y001754D03*
X020700Y001749D03*
D470*
X020701Y001751D03*
X020731Y001839D03*
X021460Y001853D03*
X021469Y001831D03*
X021472Y001824D03*
X021093Y002822D03*
D471*
X020702Y001753D03*
D472*
X021511Y001753D03*
D473*
X021468Y001832D03*
X021466Y001835D03*
X021465Y001836D03*
X021462Y001844D03*
X021462Y001846D03*
X021460Y001849D03*
X021526Y002033D03*
X021528Y002034D03*
X020704Y001759D03*
X020704Y001757D03*
D474*
X020705Y001760D03*
X020732Y001832D03*
X020732Y001834D03*
X021528Y002036D03*
X021530Y002039D03*
X021531Y002041D03*
X021533Y002042D03*
X021534Y002044D03*
X021536Y002045D03*
D475*
X020707Y001763D03*
X020706Y001761D03*
D476*
X020708Y001764D03*
X020708Y001766D03*
X020709Y001769D03*
X020732Y001831D03*
D477*
X020709Y001768D03*
D478*
X021503Y001768D03*
D479*
X020710Y001771D03*
D480*
X020712Y001772D03*
X020713Y001774D03*
D481*
X020714Y001775D03*
X020715Y001776D03*
X020715Y001778D03*
D482*
X020730Y001856D03*
X020670Y002011D03*
X020655Y002342D03*
X021496Y001779D03*
X021498Y001776D03*
D483*
X020716Y001779D03*
D484*
X020717Y001781D03*
X020732Y001829D03*
D485*
X020733Y001828D03*
X020718Y001783D03*
D486*
X021495Y001783D03*
D487*
X020720Y001786D03*
X020718Y001784D03*
D488*
X020721Y001787D03*
D489*
X020721Y001789D03*
X020721Y001790D03*
D490*
X020722Y001791D03*
X020724Y001794D03*
X020733Y001820D03*
X020733Y001821D03*
D491*
X020733Y001823D03*
X020723Y001793D03*
D492*
X020724Y001796D03*
X020726Y001799D03*
X020727Y001801D03*
X020733Y001817D03*
X020733Y001819D03*
D493*
X020725Y001798D03*
D494*
X020661Y002024D03*
X021486Y001801D03*
X021486Y001799D03*
D495*
X020733Y001811D03*
X020733Y001814D03*
X020733Y001816D03*
X020731Y001808D03*
X020731Y001806D03*
X020730Y001804D03*
X020728Y001802D03*
D496*
X020665Y002349D03*
X020667Y002351D03*
X021520Y002021D03*
X021460Y001861D03*
X021477Y001814D03*
X021480Y001809D03*
X021481Y001806D03*
X021483Y001805D03*
X021483Y001804D03*
D497*
X020732Y001809D03*
X020730Y001805D03*
D498*
X020730Y001844D03*
X020730Y001846D03*
X020664Y002348D03*
X021461Y001859D03*
X021476Y001816D03*
X021479Y001811D03*
X021480Y001808D03*
D499*
X020733Y001813D03*
D500*
X021478Y001813D03*
D501*
X020733Y001824D03*
X020733Y001826D03*
D502*
X021471Y001828D03*
D503*
X021464Y001838D03*
D504*
X021463Y001839D03*
X021463Y001841D03*
X021538Y002046D03*
D505*
X020731Y001843D03*
D506*
X021462Y001843D03*
D507*
X020729Y001858D03*
X020672Y002008D03*
D508*
X021461Y001858D03*
X021521Y002023D03*
D509*
X021462Y001871D03*
X020730Y001861D03*
X020730Y001859D03*
D510*
X020728Y001868D03*
X020728Y001869D03*
D511*
X020670Y002009D03*
X020654Y002029D03*
X021461Y001869D03*
X021512Y002004D03*
D512*
X020728Y001873D03*
D513*
X021462Y001873D03*
X021091Y002818D03*
D514*
X021462Y001886D03*
D515*
X020727Y001903D03*
D516*
X020727Y001904D03*
X021091Y002811D03*
D517*
X020627Y002036D03*
X020700Y001970D03*
X020726Y001906D03*
X021462Y001916D03*
X021482Y001969D03*
D518*
X021474Y002406D03*
X020711Y002406D03*
X020703Y001967D03*
X020726Y001909D03*
X020726Y001907D03*
D519*
X020725Y001910D03*
X020704Y001966D03*
X021472Y002408D03*
X021091Y002810D03*
D520*
X020713Y002411D03*
X020725Y001913D03*
X020725Y001911D03*
X021463Y001928D03*
X021463Y001929D03*
X021541Y002360D03*
D521*
X021462Y001931D03*
X020726Y001914D03*
D522*
X021463Y001914D03*
D523*
X021463Y001934D03*
X021579Y002060D03*
X020725Y001916D03*
X020620Y002039D03*
X021091Y002809D03*
D524*
X020726Y001918D03*
D525*
X021463Y001918D03*
D526*
X021473Y001961D03*
X020726Y001919D03*
X020711Y001961D03*
D527*
X021462Y001921D03*
X021462Y001919D03*
D528*
X021463Y001936D03*
X021466Y002414D03*
X021091Y002807D03*
X020617Y002041D03*
X020727Y001922D03*
X020727Y001921D03*
D529*
X020712Y002408D03*
X021478Y001964D03*
X021463Y001924D03*
X021463Y001922D03*
D530*
X021464Y001937D03*
X021468Y001956D03*
X020726Y001924D03*
X020715Y001956D03*
X020714Y001958D03*
X020712Y001959D03*
X020718Y002414D03*
D531*
X020617Y002331D03*
X020727Y001926D03*
X020727Y001925D03*
X021463Y001939D03*
X021468Y001955D03*
X021547Y002357D03*
X021465Y002416D03*
D532*
X020712Y002409D03*
X020624Y002333D03*
X021462Y001926D03*
X021462Y001925D03*
D533*
X020726Y001928D03*
X020726Y001929D03*
X020717Y001955D03*
D534*
X020725Y001931D03*
X021463Y001940D03*
X021463Y001941D03*
X021466Y001954D03*
X021583Y002061D03*
X021463Y002417D03*
X021091Y002806D03*
D535*
X020726Y001933D03*
D536*
X020709Y001963D03*
X021463Y001933D03*
D537*
X021463Y001943D03*
X021463Y001944D03*
X021463Y001946D03*
X021463Y001949D03*
X021465Y001952D03*
X020725Y001936D03*
X020725Y001934D03*
D538*
X020725Y001937D03*
X020725Y001939D03*
X020722Y001952D03*
X020613Y002330D03*
X020725Y002420D03*
D539*
X021092Y002804D03*
X021456Y002421D03*
X020723Y001951D03*
X020724Y001941D03*
X020724Y001940D03*
D540*
X020725Y001943D03*
X020725Y001944D03*
X020724Y001949D03*
D541*
X020724Y001946D03*
X020609Y002329D03*
D542*
X020724Y001948D03*
D543*
X021463Y001948D03*
D544*
X021464Y001951D03*
D545*
X021459Y002420D03*
X020724Y002419D03*
X020722Y002417D03*
X020613Y002042D03*
X020719Y001954D03*
D546*
X021471Y001958D03*
D547*
X021471Y001959D03*
X021545Y002359D03*
D548*
X021475Y001963D03*
D549*
X021575Y002059D03*
X021471Y002409D03*
X020706Y001964D03*
D550*
X020703Y001969D03*
X020709Y002405D03*
X021475Y002405D03*
X021537Y002361D03*
X021573Y002057D03*
X021481Y001967D03*
X021480Y001966D03*
D551*
X021487Y001973D03*
X020703Y002401D03*
D552*
X020682Y001993D03*
D553*
X021502Y001993D03*
D554*
X021513Y002006D03*
X020678Y002369D03*
D555*
X021514Y002008D03*
D556*
X021516Y002011D03*
D557*
X020663Y002023D03*
X020667Y002353D03*
D558*
X020623Y002038D03*
D559*
X021529Y002038D03*
D560*
X020604Y002044D03*
D561*
X020598Y002045D03*
X021599Y002064D03*
D562*
X020594Y002046D03*
X020595Y002324D03*
X021092Y002799D03*
D563*
X021091Y002798D03*
X020590Y002048D03*
D564*
X020588Y002049D03*
X021576Y002348D03*
D565*
X021580Y002346D03*
X021091Y002795D03*
X020584Y002051D03*
D566*
X020579Y002053D03*
D567*
X020571Y002054D03*
X021091Y002791D03*
D568*
X020566Y002056D03*
D569*
X020562Y002057D03*
X021411Y002436D03*
X021606Y002339D03*
D570*
X020559Y002059D03*
D571*
X020557Y002060D03*
D572*
X020552Y002061D03*
X021642Y002078D03*
X021617Y002334D03*
D573*
X021090Y002779D03*
X020544Y002063D03*
D574*
X021453Y002423D03*
X021556Y002354D03*
X021591Y002063D03*
D575*
X020538Y002064D03*
X020511Y002135D03*
X020511Y002136D03*
X020511Y002138D03*
X020511Y002139D03*
X020511Y002141D03*
X020511Y002144D03*
X020511Y002146D03*
X020511Y002147D03*
X020511Y002149D03*
X020511Y002224D03*
X020511Y002225D03*
X020511Y002226D03*
X020513Y002236D03*
X020513Y002237D03*
X020513Y002239D03*
X020513Y002240D03*
X020513Y002241D03*
X020513Y002243D03*
X021092Y002776D03*
D576*
X020536Y002306D03*
X020515Y002256D03*
X020515Y002255D03*
X020514Y002119D03*
X020514Y002117D03*
X020514Y002116D03*
X020535Y002066D03*
X021663Y002089D03*
X021664Y002090D03*
X021670Y002109D03*
X021670Y002111D03*
X021669Y002261D03*
X021667Y002266D03*
D577*
X021605Y002066D03*
D578*
X020532Y002068D03*
X020517Y002263D03*
D579*
X021608Y002068D03*
D580*
X021666Y002094D03*
X021666Y002096D03*
X021668Y002099D03*
X021668Y002101D03*
X021668Y002102D03*
X021660Y002289D03*
X021638Y002329D03*
X020531Y002303D03*
X020531Y002069D03*
D581*
X021612Y002069D03*
D582*
X020529Y002071D03*
X020521Y002285D03*
D583*
X021585Y002345D03*
X021615Y002071D03*
D584*
X020528Y002072D03*
X020526Y002074D03*
X020522Y002286D03*
X020526Y002296D03*
X020528Y002300D03*
X020529Y002301D03*
D585*
X021620Y002072D03*
D586*
X021628Y002074D03*
X021598Y002342D03*
D587*
X020527Y002299D03*
X020527Y002297D03*
X020526Y002294D03*
X020524Y002291D03*
X020524Y002289D03*
X020523Y002288D03*
X020526Y002075D03*
D588*
X021635Y002075D03*
D589*
X020525Y002076D03*
X020523Y002078D03*
X020523Y002079D03*
D590*
X021639Y002076D03*
D591*
X021646Y002079D03*
D592*
X021656Y002304D03*
X021642Y002326D03*
X020522Y002081D03*
D593*
X021651Y002081D03*
D594*
X020521Y002083D03*
D595*
X021657Y002083D03*
X021676Y002203D03*
X021675Y002218D03*
D596*
X021658Y002297D03*
X021658Y002299D03*
X021657Y002301D03*
X021657Y002303D03*
X020521Y002084D03*
X020520Y002086D03*
D597*
X021660Y002084D03*
X021672Y002117D03*
X021672Y002119D03*
X021672Y002120D03*
X021673Y002124D03*
X021673Y002126D03*
X021673Y002129D03*
X021673Y002131D03*
X021673Y002132D03*
X021672Y002246D03*
X021672Y002249D03*
X021672Y002251D03*
D598*
X021670Y002254D03*
X021670Y002255D03*
X021670Y002256D03*
X021661Y002086D03*
X020512Y002126D03*
X020512Y002129D03*
X020512Y002131D03*
X020512Y002132D03*
X020512Y002134D03*
X020514Y002244D03*
X020514Y002246D03*
X020514Y002249D03*
X020514Y002251D03*
D599*
X020520Y002284D03*
X020519Y002090D03*
X020519Y002089D03*
X020519Y002087D03*
X021641Y002327D03*
X021657Y002300D03*
X021659Y002296D03*
X021659Y002294D03*
D600*
X021669Y002259D03*
X021669Y002258D03*
X021671Y002116D03*
X021671Y002114D03*
X021662Y002087D03*
X020513Y002120D03*
X020513Y002121D03*
X020513Y002123D03*
X020513Y002124D03*
X020514Y002252D03*
X020514Y002254D03*
D601*
X020520Y002281D03*
X020520Y002282D03*
X020518Y002096D03*
X020518Y002094D03*
X020518Y002093D03*
X020518Y002091D03*
X021660Y002291D03*
D602*
X021663Y002284D03*
X021663Y002282D03*
X021663Y002281D03*
X021665Y002279D03*
X021665Y002276D03*
X021665Y002274D03*
X021665Y002273D03*
X021666Y002271D03*
X021666Y002270D03*
X021666Y002269D03*
X021666Y002267D03*
X021668Y002264D03*
X021635Y002330D03*
X021669Y002108D03*
X021669Y002106D03*
X021665Y002091D03*
X020516Y002109D03*
X020514Y002114D03*
X020516Y002258D03*
X020516Y002259D03*
X020517Y002264D03*
X020534Y002304D03*
D603*
X020517Y002261D03*
X020515Y002111D03*
X020517Y002108D03*
X020517Y002106D03*
X020517Y002105D03*
X021666Y002093D03*
X021669Y002104D03*
X021669Y002105D03*
X021663Y002285D03*
X021663Y002286D03*
X021661Y002288D03*
D604*
X021660Y002293D03*
X020518Y002098D03*
D605*
X021668Y002098D03*
D606*
X020517Y002099D03*
X020517Y002101D03*
X020517Y002102D03*
X020517Y002104D03*
X020519Y002273D03*
X020519Y002274D03*
X020519Y002276D03*
X020519Y002279D03*
D607*
X020514Y002113D03*
X021665Y002278D03*
D608*
X021671Y002113D03*
X020538Y002308D03*
D609*
X021672Y002123D03*
X021672Y002121D03*
D610*
X020512Y002128D03*
X020514Y002248D03*
D611*
X021672Y002248D03*
X021673Y002128D03*
D612*
X021674Y002134D03*
X021674Y002135D03*
X021674Y002136D03*
X021674Y002138D03*
X021674Y002139D03*
X021672Y002239D03*
X021672Y002240D03*
X021672Y002241D03*
X021672Y002243D03*
X021672Y002244D03*
X021671Y002252D03*
D613*
X021673Y002237D03*
X021673Y002236D03*
X021673Y002234D03*
X021673Y002231D03*
X021673Y002229D03*
X021675Y002150D03*
X021675Y002149D03*
X021675Y002147D03*
X021675Y002146D03*
X021675Y002144D03*
X021675Y002141D03*
X021631Y002331D03*
D614*
X020511Y002143D03*
D615*
X021675Y002143D03*
X021673Y002233D03*
D616*
X020541Y002309D03*
X020512Y002234D03*
X020512Y002231D03*
X020512Y002229D03*
X020512Y002228D03*
X020511Y002222D03*
X020511Y002221D03*
X020511Y002219D03*
X020511Y002216D03*
X020511Y002214D03*
X020511Y002213D03*
X020511Y002211D03*
X020511Y002159D03*
X020511Y002156D03*
X020511Y002154D03*
X020511Y002153D03*
X020511Y002151D03*
X020511Y002150D03*
D617*
X021675Y002151D03*
X021675Y002153D03*
X021675Y002154D03*
X021675Y002156D03*
X021675Y002159D03*
X021675Y002210D03*
X021675Y002211D03*
X021675Y002213D03*
X021674Y002219D03*
X021674Y002221D03*
X021674Y002222D03*
X021674Y002224D03*
X021674Y002225D03*
X021674Y002226D03*
X021674Y002228D03*
D618*
X020512Y002233D03*
X020511Y002218D03*
X020511Y002158D03*
D619*
X021675Y002158D03*
D620*
X020510Y002161D03*
X020510Y002162D03*
X020510Y002164D03*
X020510Y002165D03*
X020510Y002166D03*
X020510Y002168D03*
X020508Y002169D03*
X020508Y002171D03*
X020508Y002174D03*
X020508Y002176D03*
X020508Y002177D03*
X020508Y002179D03*
X020510Y002201D03*
X020510Y002204D03*
X020510Y002206D03*
X020510Y002207D03*
X020510Y002209D03*
X020510Y002210D03*
D621*
X020508Y002183D03*
X020508Y002181D03*
X020508Y002180D03*
X021675Y002214D03*
X021675Y002216D03*
X021676Y002209D03*
X021676Y002207D03*
X021676Y002206D03*
X021676Y002204D03*
X021676Y002201D03*
X021676Y002199D03*
X021676Y002169D03*
X021676Y002168D03*
X021676Y002166D03*
X021676Y002165D03*
X021676Y002164D03*
X021676Y002162D03*
X021676Y002161D03*
D622*
X021677Y002171D03*
X021677Y002174D03*
X021677Y002176D03*
X021677Y002177D03*
X021677Y002179D03*
X021677Y002180D03*
X021677Y002181D03*
X021677Y002183D03*
X021677Y002184D03*
X021677Y002186D03*
X021677Y002189D03*
X021677Y002191D03*
X021677Y002192D03*
X021677Y002194D03*
X021677Y002195D03*
X021677Y002196D03*
X021677Y002198D03*
X020544Y002311D03*
X020508Y002191D03*
X020508Y002189D03*
X020508Y002186D03*
X020508Y002184D03*
D623*
X020508Y002173D03*
X020510Y002203D03*
D624*
X020508Y002188D03*
X021677Y002188D03*
X021677Y002173D03*
D625*
X020509Y002192D03*
X020509Y002194D03*
X020509Y002195D03*
X020509Y002196D03*
X020509Y002198D03*
X020509Y002199D03*
D626*
X021669Y002263D03*
D627*
X020518Y002266D03*
X020518Y002267D03*
X020518Y002269D03*
X020518Y002270D03*
X020518Y002271D03*
D628*
X020519Y002278D03*
D629*
X020526Y002293D03*
D630*
X021645Y002324D03*
X021655Y002306D03*
D631*
X021655Y002308D03*
X021646Y002323D03*
D632*
X021648Y002321D03*
X021653Y002312D03*
X021654Y002309D03*
D633*
X021654Y002311D03*
X021652Y002314D03*
X021652Y002315D03*
D634*
X021091Y002780D03*
X020550Y002312D03*
D635*
X020557Y002314D03*
X021091Y002783D03*
D636*
X021091Y002786D03*
X021603Y002341D03*
X020565Y002315D03*
D637*
X020569Y002316D03*
D638*
X021650Y002319D03*
X021651Y002316D03*
D639*
X020573Y002318D03*
D640*
X021651Y002318D03*
D641*
X020576Y002319D03*
D642*
X020580Y002321D03*
D643*
X020586Y002323D03*
D644*
X020601Y002326D03*
D645*
X020607Y002327D03*
D646*
X021625Y002333D03*
D647*
X020633Y002334D03*
D648*
X021612Y002336D03*
D649*
X020643Y002338D03*
D650*
X021609Y002338D03*
D651*
X021591Y002344D03*
D652*
X021573Y002349D03*
X021437Y002432D03*
X020747Y002432D03*
D653*
X021570Y002351D03*
D654*
X021564Y002353D03*
D655*
X021551Y002356D03*
X021461Y002419D03*
D656*
X020676Y002368D03*
D657*
X020683Y002376D03*
D658*
X020700Y002398D03*
D659*
X021471Y002411D03*
D660*
X020715Y002413D03*
D661*
X021469Y002413D03*
D662*
X020720Y002416D03*
D663*
X020728Y002421D03*
D664*
X020731Y002423D03*
D665*
X020735Y002424D03*
D666*
X021447Y002424D03*
D667*
X020738Y002426D03*
D668*
X021445Y002426D03*
D669*
X020739Y002428D03*
D670*
X021444Y002428D03*
D671*
X021091Y002801D03*
X020742Y002429D03*
D672*
X021441Y002429D03*
D673*
X020743Y002431D03*
D674*
X021440Y002431D03*
D675*
X021428Y002434D03*
X020756Y002434D03*
D676*
X020763Y002435D03*
D677*
X021417Y002435D03*
D678*
X020768Y002436D03*
D679*
X021092Y002438D03*
D680*
X021091Y002439D03*
D681*
X021092Y002441D03*
X021089Y002621D03*
D682*
X021092Y002443D03*
D683*
X021091Y002444D03*
D684*
X021091Y002446D03*
X021088Y002618D03*
D685*
X021089Y002616D03*
X021090Y002447D03*
D686*
X021091Y002449D03*
X021088Y002615D03*
D687*
X021091Y002451D03*
X021091Y002450D03*
D688*
X021092Y002453D03*
X021089Y002612D03*
D689*
X021091Y002454D03*
D690*
X021092Y002456D03*
X021092Y002459D03*
D691*
X021092Y002458D03*
D692*
X021092Y002461D03*
X021092Y002462D03*
X021092Y002464D03*
D693*
X021092Y002465D03*
X021089Y002606D03*
D694*
X021091Y002466D03*
D695*
X021092Y002468D03*
D696*
X021092Y002469D03*
D697*
X021091Y002471D03*
X021088Y002600D03*
D698*
X021092Y002473D03*
D699*
X021092Y002474D03*
X021092Y002476D03*
X021089Y002597D03*
D700*
X021089Y002596D03*
X021092Y002480D03*
X021092Y002479D03*
X021092Y002477D03*
D701*
X021091Y002481D03*
X021088Y002594D03*
D702*
X021092Y002483D03*
D703*
X021091Y002484D03*
D704*
X021092Y002486D03*
D705*
X021091Y002488D03*
D706*
X021091Y002489D03*
X021091Y002491D03*
D707*
X021091Y002492D03*
D708*
X021092Y002494D03*
D709*
X021091Y002495D03*
D710*
X021092Y002496D03*
X021092Y002498D03*
D711*
X021092Y002499D03*
X021092Y002501D03*
D712*
X021091Y002503D03*
D713*
X021092Y002504D03*
D714*
X021091Y002506D03*
X021088Y002579D03*
D715*
X021088Y002576D03*
X021091Y002507D03*
D716*
X021090Y002509D03*
X021087Y002574D03*
D717*
X021088Y002573D03*
X021091Y002510D03*
D718*
X021091Y002511D03*
X021088Y002570D03*
D719*
X021092Y002513D03*
D720*
X021091Y002514D03*
X021088Y002569D03*
D721*
X021092Y002516D03*
D722*
X021092Y002518D03*
D723*
X021092Y002519D03*
X021092Y002521D03*
D724*
X021092Y002522D03*
X021087Y002564D03*
D725*
X021091Y002524D03*
D726*
X021091Y002525D03*
D727*
X021091Y002526D03*
D728*
X021092Y002528D03*
X021087Y002556D03*
D729*
X021088Y002555D03*
X021091Y002529D03*
D730*
X021092Y002531D03*
D731*
X021092Y002533D03*
D732*
X021092Y002534D03*
D733*
X021091Y002536D03*
X021091Y002537D03*
D734*
X021091Y002539D03*
X021091Y002540D03*
X021088Y002551D03*
D735*
X021087Y002549D03*
X021089Y002544D03*
X021089Y002543D03*
X021090Y002541D03*
D736*
X021088Y002546D03*
D737*
X021088Y002548D03*
D738*
X021087Y002552D03*
D739*
X021088Y002554D03*
D740*
X021087Y002558D03*
X021087Y002559D03*
D741*
X021087Y002561D03*
D742*
X021087Y002563D03*
D743*
X021087Y002566D03*
D744*
X021088Y002567D03*
D745*
X021087Y002571D03*
D746*
X021088Y002578D03*
D747*
X021088Y002581D03*
D748*
X021088Y002582D03*
D749*
X021088Y002584D03*
D750*
X021088Y002585D03*
D751*
X021087Y002586D03*
D752*
X021088Y002588D03*
D753*
X021087Y002589D03*
D754*
X021088Y002591D03*
D755*
X021088Y002593D03*
D756*
X021089Y002599D03*
D757*
X021089Y002601D03*
D758*
X021088Y002603D03*
D759*
X021088Y002604D03*
D760*
X021089Y002608D03*
D761*
X021089Y002609D03*
D762*
X021089Y002611D03*
D763*
X021089Y002614D03*
D764*
X021089Y002619D03*
D765*
X021090Y002623D03*
D766*
X021090Y002624D03*
D767*
X021090Y002626D03*
D768*
X021089Y002627D03*
D769*
X021089Y002629D03*
D770*
X021088Y002630D03*
D771*
X021089Y002631D03*
D772*
X021089Y002633D03*
D773*
X021090Y002634D03*
D774*
X021090Y002636D03*
D775*
X021090Y002638D03*
D776*
X021090Y002639D03*
D777*
X021090Y002641D03*
D778*
X021089Y002642D03*
D779*
X021089Y002644D03*
D780*
X021090Y002645D03*
D781*
X021089Y002646D03*
D782*
X021090Y002648D03*
D783*
X021090Y002649D03*
D784*
X021090Y002651D03*
D785*
X021090Y002653D03*
D786*
X021090Y002654D03*
D787*
X021090Y002656D03*
D788*
X021089Y002657D03*
D789*
X021089Y002659D03*
X021089Y002660D03*
D790*
X021089Y002661D03*
D791*
X021090Y002663D03*
D792*
X021090Y002664D03*
X021090Y002666D03*
D793*
X021090Y002668D03*
D794*
X021090Y002669D03*
D795*
X021090Y002671D03*
D796*
X021090Y002672D03*
X021090Y002674D03*
D797*
X021090Y002675D03*
D798*
X021090Y002676D03*
D799*
X021090Y002678D03*
D800*
X021090Y002679D03*
X021090Y002681D03*
D801*
X021090Y002683D03*
D802*
X021090Y002684D03*
D803*
X021090Y002686D03*
D804*
X021090Y002687D03*
X021090Y002689D03*
D805*
X021090Y002690D03*
D806*
X021090Y002691D03*
D807*
X021090Y002693D03*
D808*
X021091Y002694D03*
D809*
X021091Y002696D03*
D810*
X021090Y002698D03*
D811*
X021090Y002699D03*
D812*
X021090Y002701D03*
D813*
X021090Y002702D03*
D814*
X021090Y002704D03*
D815*
X021090Y002705D03*
D816*
X021091Y002706D03*
D817*
X021091Y002708D03*
X021091Y002709D03*
D818*
X021091Y002711D03*
D819*
X021090Y002713D03*
D820*
X021090Y002714D03*
D821*
X021090Y002716D03*
D822*
X021091Y002717D03*
D823*
X021091Y002719D03*
X021093Y002766D03*
D824*
X021092Y002720D03*
D825*
X021091Y002721D03*
X021093Y002765D03*
D826*
X021091Y002724D03*
X021091Y002723D03*
D827*
X021091Y002726D03*
D828*
X021090Y002728D03*
D829*
X021090Y002729D03*
D830*
X021091Y002731D03*
D831*
X021090Y002732D03*
X021092Y002756D03*
D832*
X021091Y002734D03*
D833*
X021091Y002735D03*
X021093Y002753D03*
D834*
X021092Y002751D03*
X021092Y002750D03*
X021092Y002741D03*
X021092Y002739D03*
X021092Y002738D03*
X021092Y002736D03*
D835*
X021093Y002743D03*
D836*
X021093Y002744D03*
X021093Y002746D03*
X021093Y002747D03*
X021093Y002749D03*
D837*
X021092Y002754D03*
D838*
X021093Y002758D03*
D839*
X021093Y002759D03*
D840*
X021092Y002761D03*
D841*
X021092Y002762D03*
D842*
X021092Y002764D03*
D843*
X021092Y002768D03*
D844*
X021092Y002769D03*
D845*
X021610Y002780D03*
X020566Y002771D03*
D846*
X021269Y002771D03*
D847*
X020565Y002773D03*
D848*
X021270Y002773D03*
D849*
X020565Y002774D03*
D850*
X021271Y002774D03*
D851*
X021608Y002776D03*
D852*
X021090Y002777D03*
D853*
X021610Y002777D03*
D854*
X021612Y002789D03*
X021090Y002849D03*
X020564Y002779D03*
D855*
X021610Y002779D03*
D856*
X020564Y002781D03*
D857*
X021090Y002781D03*
D858*
X021610Y002781D03*
D859*
X020563Y002783D03*
D860*
X021611Y002783D03*
D861*
X020562Y002784D03*
D862*
X021091Y002784D03*
D863*
X021612Y002784D03*
D864*
X021614Y002795D03*
X020562Y002786D03*
D865*
X020562Y002788D03*
X021091Y002908D03*
D866*
X021091Y002788D03*
D867*
X021090Y002848D03*
X021612Y002788D03*
D868*
X021090Y002789D03*
D869*
X021090Y002929D03*
X021090Y002930D03*
X021090Y002931D03*
X021615Y002801D03*
X020561Y002792D03*
D870*
X021091Y002792D03*
D871*
X021090Y002864D03*
X021090Y002866D03*
X021090Y002867D03*
X021090Y002869D03*
X021090Y002870D03*
X021613Y002792D03*
D872*
X021091Y002941D03*
X021091Y002942D03*
X021091Y002944D03*
X020560Y002794D03*
D873*
X021091Y002794D03*
D874*
X021613Y002794D03*
D875*
X021092Y002971D03*
X021092Y002972D03*
X021092Y002974D03*
X020559Y002796D03*
D876*
X021091Y002796D03*
D877*
X021090Y002916D03*
X021090Y002918D03*
X021090Y002919D03*
X021615Y002798D03*
D878*
X021618Y002807D03*
X021091Y002981D03*
X020559Y002799D03*
D879*
X020558Y002803D03*
X021092Y002998D03*
D880*
X021091Y002803D03*
D881*
X021616Y002803D03*
D882*
X020558Y002806D03*
D883*
X020557Y002809D03*
X021093Y003041D03*
X021093Y003044D03*
D884*
X021093Y003047D03*
X021093Y003049D03*
X021093Y003050D03*
X020557Y002810D03*
D885*
X021618Y002810D03*
D886*
X021093Y003061D03*
X020556Y002811D03*
D887*
X021092Y002996D03*
X021092Y002999D03*
X021092Y003001D03*
X021618Y002811D03*
D888*
X021093Y003074D03*
X020556Y002813D03*
D889*
X021093Y003017D03*
X021093Y003019D03*
X021093Y003020D03*
X021093Y003021D03*
X021093Y003023D03*
X021619Y002813D03*
D890*
X020556Y002814D03*
D891*
X020555Y002816D03*
X021093Y003080D03*
D892*
X020555Y002818D03*
D893*
X021621Y002818D03*
D894*
X021623Y002826D03*
X020555Y002819D03*
D895*
X020554Y002821D03*
X021093Y003083D03*
D896*
X021093Y003071D03*
X021093Y003069D03*
X021093Y003068D03*
X021093Y003066D03*
X021093Y003065D03*
X021093Y003064D03*
X021093Y003062D03*
X021621Y002821D03*
D897*
X021623Y002829D03*
X021093Y003084D03*
X020553Y002822D03*
D898*
X021093Y003076D03*
X021093Y003077D03*
X021621Y002822D03*
D899*
X021092Y002824D03*
D900*
X020553Y002825D03*
D901*
X021092Y002825D03*
D902*
X021093Y003081D03*
X021623Y002825D03*
D903*
X020553Y002826D03*
D904*
X021091Y002826D03*
D905*
X021092Y002828D03*
D906*
X021623Y002828D03*
D907*
X021095Y003089D03*
X020552Y002829D03*
D908*
X021092Y002829D03*
D909*
X021092Y002831D03*
D910*
X021624Y002831D03*
D911*
X020552Y002833D03*
D912*
X021091Y002833D03*
D913*
X021624Y002833D03*
D914*
X021093Y002834D03*
D915*
X021625Y002834D03*
D916*
X021093Y002836D03*
D917*
X021093Y002837D03*
D918*
X020550Y002839D03*
D919*
X021093Y002839D03*
D920*
X021625Y002839D03*
D921*
X021627Y002846D03*
X020550Y002840D03*
D922*
X021093Y002840D03*
D923*
X021092Y002841D03*
D924*
X021091Y002844D03*
D925*
X020549Y002846D03*
D926*
X020549Y002848D03*
D927*
X020549Y002849D03*
D928*
X021090Y002852D03*
X021090Y002854D03*
X021090Y002855D03*
D929*
X021627Y002852D03*
D930*
X021628Y002854D03*
D931*
X021628Y002855D03*
D932*
X020547Y002856D03*
D933*
X020548Y002858D03*
X021630Y002864D03*
D934*
X020548Y002859D03*
D935*
X020547Y002863D03*
D936*
X021089Y002863D03*
D937*
X021630Y002863D03*
D938*
X020546Y002870D03*
D939*
X021090Y002871D03*
D940*
X021090Y002876D03*
X021090Y002879D03*
D941*
X021090Y002878D03*
D942*
X021632Y002878D03*
D943*
X021091Y002893D03*
D944*
X021633Y002893D03*
D945*
X021091Y002901D03*
X021091Y002903D03*
X021091Y002904D03*
X021091Y002906D03*
X021091Y002909D03*
D946*
X021090Y002911D03*
D947*
X021090Y002923D03*
D948*
X021091Y002933D03*
X021091Y002934D03*
X021091Y002936D03*
D949*
X021092Y002938D03*
D950*
X021092Y002939D03*
D951*
X021092Y002945D03*
X021092Y002946D03*
X021092Y002948D03*
X021092Y002949D03*
X021092Y002951D03*
X021092Y002954D03*
X021092Y002956D03*
D952*
X021092Y002953D03*
D953*
X021091Y002969D03*
D954*
X021091Y002983D03*
D955*
X021091Y002987D03*
D956*
X021092Y002989D03*
X021092Y002990D03*
X021092Y002991D03*
X021092Y002993D03*
D957*
X021093Y003028D03*
D958*
X021092Y003034D03*
D959*
X021093Y003039D03*
D960*
X021093Y003043D03*
D961*
X021093Y003058D03*
D962*
X021093Y003073D03*
D963*
X021094Y003088D03*
M02*
