%
M48
M72
T01C0.0150
T02C0.0236
T03C0.0315
T04C0.0394
T05C0.0400
T06C0.0787
T07C0.1142
T08C0.1260
%
T01
X23131Y20972
X23131Y20421
T02
X2147Y16209
X7069Y19240
X11596Y19358
X14667Y18571
X15376Y19988
X16872Y20894
X20769Y21406
X21202Y21051
X23722Y19161
X24549Y18925
X23604Y18098
X21163Y18413
X19982Y17508
X21675Y15736
X24785Y16209
X26320Y12823
X26065Y11579
X26065Y10657
X25257Y10854
X26065Y9736
X28368Y9276
X28368Y10197
X28368Y11118
X36439Y7862
X31911Y7469
X28604Y7469
X25100Y6091
X29470Y4594
X30257Y5303
X25061Y3846
X36557Y1799
X11202Y16878
X36084Y17547
T03
X33116Y3476
X34887Y3476
X34887Y5445
X33116Y5445
X28092Y19201
X30100Y20067
T04
X3100Y18185
X4100Y18185
X5100Y18185
X6100Y18185
X6100Y19185
X5100Y19185
X4100Y19185
X3100Y19185
X3100Y20185
X2100Y20185
X1100Y20185
X1100Y21185
X2100Y21185
X3100Y21185
X4100Y21185
X5100Y21185
X6100Y21185
X7100Y21185
X8100Y21185
X9100Y21185
X10100Y21185
X11100Y21185
X12100Y21185
X13100Y21185
X13100Y20185
X12100Y20185
X11100Y20185
X10100Y20185
X9100Y20185
X8100Y20185
X7100Y20185
X6100Y20185
X5100Y20185
X4100Y20185
T05
X26529Y6012
X27529Y6012
T06
X31801Y12709
X31801Y15819
X31801Y18929
T07
X1194Y1301
X10194Y7301
X1194Y11801
X17694Y1301
X32694Y1301
X32694Y11801
X31651Y17341
X32694Y21301
T08
X34588Y9516
X34470Y20933
M30
